<?xml version="1.0" encoding="UTF-8" standalone="no"?>
<!-- Created with Inkscape (http://www.inkscape.org/) -->

<svg
   xmlns:dc="http://purl.org/dc/elements/1.1/"
   xmlns:cc="http://creativecommons.org/ns#"
   xmlns:rdf="http://www.w3.org/1999/02/22-rdf-syntax-ns#"
   xmlns:svg="http://www.w3.org/2000/svg"
   xmlns="http://www.w3.org/2000/svg"
   version="1.1"
   width="851"
   height="315"
   id="svg2">
  <defs
     id="defs4" />
  <metadata
     id="metadata7">
    <rdf:RDF>
      <cc:Work
         rdf:about="">
        <dc:format>image/svg+xml</dc:format>
        <dc:type
           rdf:resource="http://purl.org/dc/dcmitype/StillImage" />
        <dc:title></dc:title>
      </cc:Work>
    </rdf:RDF>
  </metadata>
  <g
     transform="translate(0,-737.36218)"
     id="layer1-8"
     style="fill:#f9f9f9" />
  <g
     transform="translate(141.23767,-104.69253)"
     id="g3115"
     style="fill:#b3b3b3">
    <g
       transform="scale(1.1566278,0.86458234)"
       id="text2993"
       style="font-size:168.3792572px;font-style:normal;font-weight:normal;line-height:125%;letter-spacing:0px;word-spacing:0px;fill:#b3b3b3;fill-opacity:1;stroke:none;font-family:Sans" />
    <g
       transform="scale(1.1566278,0.86458236)"
       id="text2993-3"
       style="font-size:168.3792572px;font-style:normal;font-weight:normal;line-height:125%;letter-spacing:0px;word-spacing:0px;fill:#b3b3b3;fill-opacity:1;stroke:none;font-family:Sans">
      <g
         id="g2999">
        <rect
           width="851"
           height="315"
           x="0"
           y="737.36218"
           transform="matrix(0.86458237,0,0,1.1566278,-122.1116,-731.76331)"
           id="rect2989-1"
           style="fill:#f9f9f9;fill-opacity:1;stroke:none" />
        <path
           d="m 444.1288,132.66142 67.89052,0 0,67.89052 c -1.1e-4,46.87713 -22.63026,79.81208 -67.89052,98.80496 l 0,-39.40075 c 22.226,-12.12297 33.33902,-31.92436 33.3391,-59.40421 l -33.3391,0 0,-67.89052"
           id="path3110"
           style="font-size:606.16540527px;font-style:normal;font-variant:normal;font-weight:normal;font-stretch:normal;line-height:125%;letter-spacing:0px;word-spacing:0px;fill:#b3b3b3;fill-opacity:1;stroke:none;font-family:Varela;-inkscape-font-specification:Varela" />
        <path
           d="m 537.30864,132.66178 67.89052,0 0,67.89053 c -1.1e-4,46.87712 -22.63026,79.81208 -67.89052,98.80496 l 0,-39.40075 c 22.226,-12.12298 33.33902,-31.92436 33.3391,-59.40421 l -33.3391,0 0,-67.89053"
           id="path3113"
           style="font-size:606.16540527px;font-variant:normal;font-stretch:normal;fill:#b3b3b3;font-family:Varela;-inkscape-font-specification:Varela" />
      </g>
    </g>
  </g>
</svg>
