<?xml version="1.0" encoding="UTF-8" standalone="no"?>
<!-- Created with Inkscape (http://www.inkscape.org/) -->

<svg
   xmlns:dc="http://purl.org/dc/elements/1.1/"
   xmlns:cc="http://creativecommons.org/ns#"
   xmlns:rdf="http://www.w3.org/1999/02/22-rdf-syntax-ns#"
   xmlns:svg="http://www.w3.org/2000/svg"
   xmlns="http://www.w3.org/2000/svg"
   version="1.1"
   width="700"
   height="400"
   id="svg2">
  <metadata
     id="metadata8">
    <rdf:RDF>
      <cc:Work
         rdf:about="">
        <dc:format>image/svg+xml</dc:format>
        <dc:type
           rdf:resource="http://purl.org/dc/dcmitype/StillImage" />
        <dc:title></dc:title>
      </cc:Work>
    </rdf:RDF>
  </metadata>
  <defs
     id="defs6" />
  <g
     transform="translate(-498.25858,254.54132)"
     id="g3889">
    <rect
       width="700"
       height="400"
       ry="65.909096"
       x="498.25858"
       y="-254.54132"
       id="rect2989"
       style="opacity:0.65;fill:#000000;fill-opacity:0.84388182;stroke:none" />
    <g
       transform="matrix(0.51039646,0,0,0.51039646,760.69677,-141.49114)"
       id="g2984"
       style="opacity:0.8">
      <path
         d="m -212.17548,470.09969 c -5.17445,-81.86426 -30.37657,-101.12897 -38.46427,-230.08096 1.5741,-8.05235 4.16613,-9.91592 14.68576,-10.55847 10.26221,-0.62684 21.46131,1.73105 42.48677,8.94526 18.73148,6.42708 23.02018,7.30825 24.90986,5.118 7.81526,-9.05829 18.22102,-77.22479 14.25719,-93.39658 -1.25317,-5.11273 -1.37691,-5.22604 -5.50637,-5.04219 -2.67923,0.11924 -9.51908,3.06535 -18.69988,8.05444 -24.53754,13.33438 -31.57662,15.94951 -50.05368,18.59591 -12.09458,1.73221 -22.3808,0.70879 -29.32294,-2.91752 -2.85521,-1.49146 -4.46875,-2.63328 -5.13367,-4.04964 -0.66491,-1.41636 -0.38121,-3.10727 0.55805,-5.69689 2.38412,-6.57322 2.58655,-12.39387 0.69705,-20.04447 -0.97493,-3.9477 -1.69791,-7.23646 -1.60654,-7.30835 0.0906,-0.0719 5.43253,-2.62259 11.86939,-5.66823 23.43666,-11.08917 35.74884,-19.86294 33.13847,-23.61482 -2.10223,-3.021427 -22.49155,-6.291547 -51.29088,-8.226201 l -4.57635,-0.307432 c -0.86059,-4.30039 -17.17476,-86.7696288 -18.54914,-94.05761909 -1.84494,7.36535649 -17.66678,87.52813909 -18.83745,94.32755909 l -13.71294,0.865504 c -26.81427,1.6924 -41.52068,4.824357 -42.08791,8.963209 -0.62825,4.58384 8.06038,10.01301 44.49786,27.8048 0.83973,0.41003 0.65901,2.04535 -0.68168,6.171 -2.31542,7.12498 -2.30393,11.98135 0.0453,19.21275 1.76061,5.41944 1.77705,5.8967 0.28282,8.20268 -2.88823,4.457 -11.0739,6.84346 -23.25943,6.78099 -19.91058,-0.10211 -34.3739,-4.57327 -59.45305,-18.37946 -17.76326,-9.77869 -23.00895,-10.96043 -24.9799,-5.62736 -5.12156,13.85808 6.86732,92.64281 14.62075,96.07952 2.29908,1.01909 5.16509,0.30903 23.93499,-5.92982 20.48057,-6.80743 30.41969,-9.0727 39.79147,-9.06905 14.18164,0.006 16.97388,2.54566 18.31458,16.66012 -7.71041,113.33422 -32.18632,145.46722 -38.91243,223.72805 17.5875,0.58877 153.19399,0.34889 161.03829,0.46527 z m -197.74669,-24.47777 c -1.48533,-12.55347 -31.16151,-254.52388 -33.14292,-267.04556 8.33569,-15.87425 6.19054,-35.01268 -4.21248,-42.07432 -3.32772,-27.1733 -6.65555,-54.346581 -9.98338,-81.519861 3.39973,-2.537358 6.09033,-36.602514 1.30814,-39.749216 -4.68942,7.887599 0.64296,34.115578 -4.03884,34.842196 -7.37143,1.144051 -6.86729,-31.900228 -8.88516,-34.753954 -5.30814,3.756214 -3.19474,41.443336 7.4081,40.418887 3.10372,26.780955 6.34916,55.401208 9.4531,82.182158 -10.0841,10.88379 -10.24505,30.27757 4.84,41.29808 1.36093,9.20433 31.2968,262.4116 32.08579,269.68582 2.05803,-1.70085 3.2554,-2.49281 5.16729,-3.28423 z m 271.11483,-284.0939 c 1.02248,1.42796 1.13013,2.36865 0.38943,3.40307 -1.58471,2.21319 0.98896,5.67052 3.8727,5.20237 1.99941,-0.32459 2.42315,-1.07585 2.43427,-4.3157 0.007,-2.15749 0.82687,-5.61267 1.82106,-7.67819 1.069,-2.22092 1.95912,-6.76242 2.17839,-11.11433 0.31584,-6.26846 0.0113,-8.094 -2.05512,-12.32029 -1.33426,-2.72878 -2.42592,-5.49705 -2.42592,-6.15169 0,-1.50591 4.37836,-2.5736 12.1715,-2.96812 4.65761,-0.23577 6.08575,-0.76351 6.08575,-2.24885 0,-1.56254 -1.809,-2.00724 -9.28229,-2.28187 -5.10527,-0.18762 -10.4488,-0.54281 -10.75049,-0.96226 -0.26859,-3.60515 -4.11858,-130.381055 -4.06961,-134.64812 l -1.3303,-5.159658 -0.72982,5.318248 c 0.25142,3.474062 -2.28115,74.63513 1.62939,134.74015 l -3.65002,0.97275 c -2.00752,0.53501 -6.17795,1.16877 -9.26763,1.4084 -4.16789,0.32321 -5.69575,0.96275 -5.92033,2.4781 -0.25854,1.74439 1.07371,2.04247 9.12862,2.04247 9.30639,0 9.43134,0.0412 9.43134,3.10883 0,1.70984 -0.5669,3.76588 -1.25977,4.56896 -0.69288,0.80308 -2.01061,3.78547 -2.92829,6.62755 -1.36101,4.21512 -2.20721,5.2406 -4.59189,5.56469 l -2.92342,0.39728 -0.27137,11.52302 -0.27137,11.52301 5.58606,-5.50165 c 4.98062,-4.90535 5.73919,-5.28775 6.99913,-3.52817 z"
         id="path3207"
         style="fill:#f9f9f9" />
      <path
         d="m -293.57681,264.19944 c 0.7664,-3.19458 1.75134,-5.5871 2.18886,-5.3167 0.43752,0.2704 1.12151,2.86205 1.51993,5.75923 0.39854,2.89717 1.07463,5.26759 1.50245,5.26759 0.80402,0 5.33443,-18.41516 5.36298,-21.80001 0.039,-4.5565 1.72668,-4.65651 4.75834,-0.28189 2.94566,4.25057 3.03639,4.29388 3.95885,1.88825 0.90844,-2.36941 0.31518,-19.63167 -1.00434,-29.2193 -0.63035,-4.58012 -0.60801,-4.62111 2.13955,-3.93151 2.50089,0.62767 2.77507,0.40715 2.7619,-2.22104 -0.0105,-1.60485 -1.09518,-8.25253 -2.41585,-14.77265 -1.32067,-6.5201 -2.24587,-11.85473 -2.05587,-11.85473 0.18998,0 1.51424,0.76582 2.94281,1.70182 1.42848,0.93601 2.59731,1.39443 2.59731,1.01873 0,-2.20098 -12.35918,-23.82245 -13.58512,-23.76634 -0.35238,0.0161 -2.5033,1.43869 -4.77983,3.16127 -2.27664,1.72257 -4.64759,3.11268 -5.26877,3.08912 -0.6213,-0.0236 -2.70121,-1.38764 -4.6222,-3.03132 l -3.49267,-2.98848 2.8444,-2.23746 c 3.89215,-3.06149 8.20064,-2.80781 16.14531,0.95065 3.70459,1.75254 6.90252,3.01949 7.10653,2.81545 0.20411,-0.20404 -1.53638,-2.92746 -3.86759,-6.05205 l -4.23863,-5.68107 c -4.7114,-0.60422 -10.41608,0.85592 -14.87638,-0.99725 -1.35187,-0.62345 -2.89129,0.62195 -6.58534,5.32754 -2.65156,3.37765 -4.82135,6.51682 -4.82177,6.97592 -3.2e-4,0.4591 2.16346,-0.4335 4.8085,-1.98357 l 4.80901,-2.81831 -4.197,6.49358 c -3.93229,6.08399 -9.57062,18.38954 -11.15442,24.34432 l -0.70064,2.63438 2.06863,-2.37094 c 2.47117,-2.83221 3.81165,-3.08223 2.82491,-0.52689 -0.92889,2.4057 -5.8398,31.36052 -5.82273,34.33078 0.0105,1.5811 1.13783,0.33534 3.65621,-4.03532 l 3.64315,-6.32253 0.039,11.5913 c 0.0221,6.37522 0.34363,14.81322 0.7155,18.75112 l 0.6762,7.15981 2.99351,-2.86797 c 1.64638,-1.57739 3.16568,-2.66544 3.37612,-2.41791 0.21043,0.24754 1.43637,5.07944 2.72427,10.73758 1.2879,5.65812 2.6993,10.06647 3.13639,9.79633 0.43721,-0.27015 1.42184,-3.10492 2.18813,-6.2995 z"
         id="path3271-9-7"
         style="fill:#000000;fill-opacity:0.27426159" />
    </g>
    <text
       x="553.83221"
       y="-181.81317"
       id="text2988"
       xml:space="preserve"
       style="font-size:40px;font-style:normal;font-weight:normal;line-height:125%;letter-spacing:0px;word-spacing:0px;fill:#000000;fill-opacity:1;stroke:none;font-family:Sans"><tspan
         x="553.83221"
         y="-181.81317"
         id="tspan2990"
         style="font-size:55px;font-weight:bold;fill:#ff6600;-inkscape-font-specification:Sans Bold">You Shall not pass!</tspan></text>
  </g>
</svg>
