<?xml version="1.0" encoding="UTF-8" standalone="no"?>
<svg
   xmlns:dc="http://purl.org/dc/elements/1.1/"
   xmlns:cc="http://creativecommons.org/ns#"
   xmlns:rdf="http://www.w3.org/1999/02/22-rdf-syntax-ns#"
   xmlns:svg="http://www.w3.org/2000/svg"
   xmlns="http://www.w3.org/2000/svg"
   xmlns:sodipodi="http://sodipodi.sourceforge.net/DTD/sodipodi-0.dtd"
   xmlns:inkscape="http://www.inkscape.org/namespaces/inkscape"
   width="600"
   height="300"
   id="svg2"
   version="1.1"
   inkscape:version="0.48.5 r10040"
   sodipodi:docname="Resistencia.svg">
  <metadata
     id="metadata10">
    <rdf:RDF>
      <cc:Work
         rdf:about="">
        <dc:format>image/svg+xml</dc:format>
        <dc:type
           rdf:resource="http://purl.org/dc/dcmitype/StillImage" />
      </cc:Work>
    </rdf:RDF>
  </metadata>
  <defs
     id="defs8" />
  <sodipodi:namedview
     pagecolor="#ffffff"
     bordercolor="#666666"
     borderopacity="1"
     objecttolerance="10"
     gridtolerance="10"
     guidetolerance="10"
     inkscape:pageopacity="0"
     inkscape:pageshadow="2"
     inkscape:window-width="1023"
     inkscape:window-height="572"
     id="namedview6"
     showgrid="false"
     inkscape:zoom="0.43531261"
     inkscape:cx="79.46046"
     inkscape:cy="12.343056"
     inkscape:window-x="1"
     inkscape:window-y="0"
     inkscape:window-maximized="1"
     inkscape:current-layer="svg2"
     inkscape:showpageshadow="false"
     showborder="false" />
  <g
     id="g3022"
     transform="matrix(10,0,0,10.000086,2.3488769e-8,-0.00259)">
    <path
       style="fill:none;stroke:#000000;stroke-width:0.99209023;stroke-linejoin:bevel"
       inkscape:connector-curvature="0"
       id="path4"
       d="m 0.49604511,24.5 14.75197789,0 2.458662,-5.003955 4.917326,10.00791 4.917326,-10.00791 4.917326,10.00791 4.917326,-10.00791 4.917326,10.00791 2.458662,-5.003955 14.751978,0" />
    <g
       transform="translate(-10.327737,0.296464)"
       id="text2987"
       style="font-size:31.53181648px;font-style:normal;font-weight:normal;text-align:center;line-height:125%;letter-spacing:0px;word-spacing:0px;text-anchor:middle;fill:#000000;fill-opacity:1;stroke:none;font-family:Sans">
      <path
         inkscape:connector-curvature="0"
         id="path2988"
         style="font-size:9.25440598px;font-variant:normal;font-stretch:normal;font-family:Cousine;-inkscape-font-specification:Cousine"
         d="m 23.915627,6.4096249 -0.894713,0 -2.28197,-6.0957977 0.908269,0 1.446001,4.0759151 c 0.09339,0.259077 0.21991,0.6793206 0.379575,1.2607321 0.120498,-0.4488616 0.247023,-0.8691052 0.379576,-1.2607321 l 1.436963,-4.0759151 0.908269,0 -2.28197,6.0957977" />
      <path
         inkscape:connector-curvature="0"
         id="path2990"
         style="font-size:9.25440598px;font-variant:normal;font-stretch:normal;font-family:Cousine;-inkscape-font-specification:Cousine"
         d="m 29.609256,5.767962 1.717126,0 0,0.6416629 -4.437416,0 0,-0.6416629 1.906914,0 0,-3.6059648 -1.441482,0 0,-0.641663 2.254858,0 0,4.2476278 m -0.903751,-5.1965659 0,-0.8676005 0.903751,0 0,0.8676005 -0.903751,0" />
      <path
         inkscape:connector-curvature="0"
         id="path2992"
         style="font-size:9.25440598px;font-variant:normal;font-stretch:normal;font-family:Cousine;-inkscape-font-specification:Cousine"
         d="m 35.022722,6.4096249 -0.962495,0 -1.95662,-4.8892907 0.912788,0 1.211026,3.1812021 0.07682,0.2394939 0.234975,0.8314505 0.158156,-0.528694 0.176232,-0.5332129 1.247175,-3.1902396 0.90827,0 -2.006326,4.8892907" />
      <path
         inkscape:connector-curvature="0"
         id="path2994"
         style="font-size:9.25440598px;font-variant:normal;font-stretch:normal;font-family:Cousine;-inkscape-font-specification:Cousine"
         d="m 42.315989,5.9080433 c 0.07832,5e-7 0.167188,-0.010543 0.266606,-0.031631 l 0,0.5061003 c -0.204855,0.0482 -0.414224,0.0723 -0.628107,0.0723 -0.301254,0 -0.521167,-0.078325 -0.659738,-0.2349751 C 41.159184,6.060175 41.082365,5.8116439 41.064294,5.4742431 l -0.02711,0 C 40.841368,5.8387564 40.609406,6.1008438 40.341297,6.2605061 40.076194,6.4201687 39.747831,6.4999999 39.356208,6.5 c -0.475976,-1e-7 -0.834464,-0.1295376 -1.075463,-0.3886128 -0.241001,-0.2590746 -0.361501,-0.6145495 -0.3615,-1.0664257 -10e-7,-1.0513607 0.683837,-1.584573 2.051514,-1.5996385 l 1.066425,-0.018075 0,-0.2666064 c -3e-6,-0.3946341 -0.07983,-0.677809 -0.239493,-0.8495256 -0.159666,-0.1747208 -0.414222,-0.2620833 -0.76367,-0.2620877 -0.355477,4.4e-6 -0.61154,0.063267 -0.768188,0.1897877 -0.156652,0.1265291 -0.250039,0.3223415 -0.280162,0.5874379 L 38.136145,2.749435 c 0.138574,-0.8796461 0.775718,-1.3194708 1.911433,-1.3194758 0.602497,5e-6 1.054372,0.1415924 1.355625,0.4247627 0.304259,0.280167 0.45639,0.6868543 0.456395,1.2200633 l 0,2.1057389 c -5e-6,0.2410012 0.03163,0.4232573 0.09489,0.546769 0.06326,0.1205007 0.183758,0.1807507 0.361501,0.1807501 m -2.751921,-0.027112 c 0.289198,4e-7 0.54526,-0.069287 0.768188,-0.2078627 0.222922,-0.1385741 0.396141,-0.3238428 0.519657,-0.5558065 0.123509,-0.2319612 0.185265,-0.4714548 0.185268,-0.7184817 l 0,-0.402169 -0.858563,0.018075 c -0.355477,0.00603 -0.626602,0.04519 -0.813375,0.1174875 -0.186777,0.072302 -0.332883,0.1837647 -0.438319,0.3343877 -0.102427,0.1476144 -0.153639,0.3449331 -0.153638,0.5919567 -10e-7,0.2470262 0.06627,0.4458512 0.198825,0.5964754 0.135561,0.1506257 0.33288,0.2259381 0.591957,0.2259376" />
      <path
         inkscape:connector-curvature="0"
         id="path2996"
         style="font-size:9.25440598px;font-variant:normal;font-stretch:normal;font-family:Cousine;-inkscape-font-specification:Cousine"
         d="m 51.764701,5.767962 1.717126,0 0,0.6416629 -4.437416,0 0,-0.6416629 1.906914,0 0,-5.4225035 -1.30592,0 0,-0.6416629 2.119296,0 0,6.0641664" />
      <path
         inkscape:connector-curvature="0"
         id="path2998"
         style="font-size:9.25440598px;font-variant:normal;font-stretch:normal;font-family:Cousine;-inkscape-font-specification:Cousine"
         d="m 58.963074,5.9080433 c 0.07832,5e-7 0.167188,-0.010543 0.266606,-0.031631 l 0,0.5061003 c -0.204855,0.0482 -0.414224,0.0723 -0.628106,0.0723 -0.301255,0 -0.521167,-0.078325 -0.659738,-0.2349751 C 57.806269,6.060175 57.72945,5.8116439 57.711379,5.4742431 l -0.02711,0 C 57.488453,5.8387564 57.25649,6.1008438 56.988381,6.2605061 56.723278,6.4201687 56.394915,6.4999999 56.003293,6.5 c -0.475977,-1e-7 -0.834465,-0.1295376 -1.075464,-0.3886128 -0.241,-0.2590746 -0.3615,-0.6145495 -0.3615,-1.0664257 0,-1.0513607 0.683837,-1.584573 2.051514,-1.5996385 l 1.066426,-0.018075 0,-0.2666064 c -4e-6,-0.3946342 -0.07983,-0.677809 -0.239494,-0.8495256 -0.159666,-0.1747208 -0.414222,-0.2620833 -0.763669,-0.2620877 -0.355478,4.4e-6 -0.61154,0.063267 -0.768188,0.1897877 -0.156652,0.1265291 -0.25004,0.3223415 -0.280163,0.5874379 L 54.783229,2.749435 c 0.138574,-0.8796461 0.775718,-1.3194708 1.911433,-1.3194758 0.602497,5e-6 1.054372,0.1415924 1.355626,0.4247627 0.304258,0.280167 0.456389,0.6868543 0.456394,1.2200633 l 0,2.1057388 c -5e-6,0.2410012 0.03163,0.4232573 0.09489,0.5467691 0.06326,0.1205007 0.183757,0.1807506 0.3615,0.1807501 m -2.751919,-0.027112 c 0.289198,5e-7 0.54526,-0.069287 0.768188,-0.2078626 0.222922,-0.1385742 0.396141,-0.3238429 0.519657,-0.5558066 0.123509,-0.2319612 0.185265,-0.4714548 0.185269,-0.7184817 l 0,-0.4021689 -0.858563,0.018075 c -0.355478,0.00603 -0.626603,0.04519 -0.813376,0.1174875 -0.186777,0.072302 -0.332883,0.1837647 -0.438319,0.3343877 -0.102426,0.1476144 -0.153639,0.3449331 -0.153638,0.5919567 -1e-6,0.2470262 0.06627,0.4458512 0.198826,0.5964754 0.13556,0.1506257 0.332879,0.225938 0.591956,0.2259376" />
      <path
         inkscape:connector-curvature="0"
         id="path3000"
         style="font-size:9.25440598px;font-variant:normal;font-stretch:normal;font-family:Cousine;-inkscape-font-specification:Cousine"
         d="m 13.920146,14.799159 -1.653864,-2.598283 -1.075463,0 0,2.598283 -0.863082,0 0,-6.0957981 2.178039,0 c 0.701909,6.1e-6 1.236628,0.1461123 1.604157,0.438319 0.367521,0.2892056 0.551283,0.7049304 0.551288,1.2471761 -5e-6,0.448866 -0.141592,0.826935 -0.424763,1.134207 -0.280167,0.307278 -0.656729,0.500078 -1.129688,0.5784 l 1.807501,2.697696 -0.994125,0 m -0.126525,-4.396747 c -4e-6,-0.6717829 -0.457904,-1.0076765 -1.373701,-1.0076819 l -1.229101,0 0,2.1238139 1.265251,0 c 0.430784,3e-6 0.760653,-0.0964 0.989607,-0.2892 0.231958,-0.192797 0.34794,-0.46844 0.347944,-0.826932" />
      <path
         inkscape:connector-curvature="0"
         id="path3002"
         style="font-size:9.25440598px;font-variant:normal;font-stretch:normal;font-family:Cousine;-inkscape-font-specification:Cousine"
         d="m 16.599766,12.526226 c -10e-7,0.548277 0.120499,0.977558 0.3615,1.287844 0.244011,0.310289 0.576892,0.465433 0.998645,0.465432 0.310284,10e-7 0.581409,-0.06627 0.813375,-0.198825 0.234972,-0.135562 0.391621,-0.319324 0.469951,-0.551288 l 0.713962,0.203344 c -0.132554,0.373551 -0.376567,0.659738 -0.732037,0.858563 -0.352467,0.198825 -0.774217,0.298238 -1.265251,0.298238 -0.710953,0 -1.257721,-0.221419 -1.640308,-0.664257 -0.382588,-0.442837 -0.573882,-1.076968 -0.573881,-1.902395 -1e-6,-0.804335 0.186774,-1.421897 0.560325,-1.852689 0.376561,-0.433795 0.918811,-0.6506952 1.626751,-0.6507001 0.707935,4.9e-6 1.244159,0.2153991 1.608676,0.6461821 0.364508,0.430791 0.546764,1.081491 0.546769,1.952101 l 0,0.10845 -3.488477,0 m 1.34207,-2.105739 c -0.403678,4e-6 -0.723003,0.132554 -0.957976,0.39765 -0.234977,0.262092 -0.359995,0.623592 -0.375056,1.084501 l 2.638951,0 c -0.08435,-0.988097 -0.51966,-1.482147 -1.305919,-1.482151" />
      <path
         inkscape:connector-curvature="0"
         id="path3004"
         style="font-size:9.25440598px;font-variant:normal;font-stretch:normal;font-family:Cousine;-inkscape-font-specification:Cousine"
         d="m 25.483634,13.402864 c -5e-6,0.463926 -0.176236,0.828439 -0.528694,1.093538 -0.349454,0.262088 -0.834466,0.393132 -1.455038,0.393132 -0.620578,0 -1.09354,-0.0964 -1.418889,-0.289201 -0.322339,-0.195812 -0.533214,-0.503087 -0.632625,-0.921825 l 0.718481,-0.140081 c 0.05724,0.259076 0.179243,0.448863 0.366019,0.569362 0.189786,0.117489 0.512123,0.176232 0.967014,0.176232 0.813372,0 1.220059,-0.257568 1.220063,-0.772707 -4e-6,-0.192799 -0.07381,-0.347942 -0.221419,-0.465432 -0.147616,-0.120498 -0.373554,-0.218404 -0.677813,-0.293718 -0.795303,-0.195811 -1.299896,-0.349448 -1.513782,-0.460913 -0.213889,-0.11146 -0.37807,-0.250035 -0.492544,-0.415726 -0.114476,-0.168697 -0.171714,-0.378065 -0.171713,-0.628106 -10e-7,-0.442834 0.159662,-0.789271 0.478988,-1.039313 0.319323,-0.2500332 0.781742,-0.3750519 1.387257,-0.3750569 0.530197,5e-6 0.953453,0.1009237 1.26977,0.3027569 0.316308,0.198829 0.513627,0.489535 0.591956,0.872119 l -0.732038,0.09037 c -0.03314,-0.216896 -0.140085,-0.381077 -0.320831,-0.492544 -0.180754,-0.111458 -0.450372,-0.16719 -0.808857,-0.167194 -0.738065,4e-6 -1.107096,0.227448 -1.107094,0.682332 -2e-6,0.180753 0.06175,0.325353 0.185269,0.4338 0.126523,0.108453 0.32836,0.195816 0.605512,0.262088 l 0.537732,0.140081 c 0.491034,0.120503 0.843497,0.239496 1.057388,0.356981 0.216896,0.11749 0.387102,0.265103 0.510619,0.442838 0.123508,0.174727 0.185264,0.390121 0.185269,0.646182" />
      <path
         inkscape:connector-curvature="0"
         id="path3006"
         style="font-size:9.25440598px;font-variant:normal;font-stretch:normal;font-family:Cousine;-inkscape-font-specification:Cousine"
         d="m 29.609255,14.157496 1.717126,0 0,0.641663 -4.437415,0 0,-0.641663 1.906914,0 0,-3.605965 -1.441482,0 0,-0.6416631 2.254857,0 0,4.2476281 m -0.90375,-5.1965662 0,-0.8676006 0.90375,0 0,0.8676006 -0.90375,0" />
      <path
         inkscape:connector-curvature="0"
         id="path3008"
         style="font-size:9.25440598px;font-variant:normal;font-stretch:normal;font-family:Cousine;-inkscape-font-specification:Cousine"
         d="m 36.581691,13.402864 c -5e-6,0.463926 -0.176236,0.828439 -0.528694,1.093538 -0.349454,0.262088 -0.834467,0.393132 -1.455039,0.393132 -0.620577,0 -1.09354,-0.0964 -1.418888,-0.289201 -0.322339,-0.195812 -0.533214,-0.503087 -0.632625,-0.921825 l 0.718481,-0.140081 c 0.05724,0.259076 0.179242,0.448863 0.366019,0.569362 0.189786,0.117489 0.512123,0.176232 0.967013,0.176232 0.813372,0 1.22006,-0.257568 1.220064,-0.772707 -4e-6,-0.192799 -0.07381,-0.347942 -0.221419,-0.465432 -0.147616,-0.120498 -0.373554,-0.218404 -0.677813,-0.293718 -0.795303,-0.195811 -1.299897,-0.349448 -1.513782,-0.460913 -0.213889,-0.11146 -0.378071,-0.250035 -0.492544,-0.415726 -0.114477,-0.168697 -0.171714,-0.378065 -0.171713,-0.628106 -1e-6,-0.442834 0.159661,-0.789271 0.478988,-1.039313 0.319323,-0.2500332 0.781742,-0.3750519 1.387257,-0.3750569 0.530197,5e-6 0.953453,0.1009237 1.269769,0.3027569 0.316309,0.198829 0.513627,0.489535 0.591957,0.872119 l -0.732038,0.09037 c -0.03314,-0.216896 -0.140085,-0.381077 -0.320831,-0.492544 -0.180754,-0.111458 -0.450373,-0.16719 -0.808857,-0.167194 -0.738065,4e-6 -1.107096,0.227448 -1.107095,0.682332 -1e-6,0.180753 0.06175,0.325353 0.185269,0.4338 0.126523,0.108453 0.328361,0.195816 0.605513,0.262088 l 0.537732,0.140081 c 0.491034,0.120503 0.843496,0.239496 1.057388,0.356981 0.216896,0.11749 0.387102,0.265103 0.510619,0.442838 0.123508,0.174727 0.185264,0.390121 0.185269,0.646182" />
      <path
         inkscape:connector-curvature="0"
         id="path3010"
         style="font-size:9.25440598px;font-variant:normal;font-stretch:normal;font-family:Cousine;-inkscape-font-specification:Cousine"
         d="m 38.199404,10.551531 0,-0.6416631 0.768188,0 0.262088,-1.2742883 0.54225,0 0,1.2742883 1.952102,0 0,0.6416631 -1.952102,0 0,2.946227 c -2e-6,0.237988 0.06326,0.41422 0.189788,0.528694 0.129535,0.114476 0.34041,0.171713 0.632625,0.171712 0.403672,10e-7 0.851028,-0.05121 1.34207,-0.153637 l 0,0.619069 c -0.509117,0.138575 -1.013711,0.207863 -1.513782,0.207863 -0.488028,0 -0.854047,-0.102425 -1.098057,-0.307276 -0.244015,-0.207862 -0.366021,-0.534718 -0.366019,-0.980569 l 0,-3.032083 -0.759151,0" />
      <path
         inkscape:connector-curvature="0"
         id="path3012"
         style="font-size:9.25440598px;font-variant:normal;font-stretch:normal;font-family:Cousine;-inkscape-font-specification:Cousine"
         d="m 44.344908,12.526226 c -10e-7,0.548277 0.120499,0.977558 0.3615,1.287844 0.244011,0.310289 0.576892,0.465433 0.998645,0.465432 0.310284,10e-7 0.581409,-0.06627 0.813375,-0.198825 0.234972,-0.135562 0.391621,-0.319324 0.469951,-0.551288 l 0.713962,0.203344 c -0.132554,0.373551 -0.376567,0.659738 -0.732037,0.858563 -0.352467,0.198825 -0.774217,0.298238 -1.265251,0.298238 -0.710953,0 -1.257721,-0.221419 -1.640308,-0.664257 -0.382588,-0.442837 -0.573882,-1.076968 -0.573881,-1.902395 -1e-6,-0.804335 0.186774,-1.421897 0.560325,-1.852689 C 44.42775,10.036398 44.97,9.8194978 45.67794,9.8194929 c 0.707935,4.9e-6 1.244159,0.2153991 1.608676,0.6461821 0.364508,0.430791 0.546764,1.081491 0.546769,1.952101 l 0,0.10845 -3.488477,0 m 1.34207,-2.105739 c -0.403678,4e-6 -0.723003,0.132554 -0.957976,0.39765 -0.234977,0.262092 -0.359995,0.623592 -0.375056,1.084501 l 2.638951,0 c -0.08435,-0.988097 -0.51966,-1.482147 -1.305919,-1.482151" />
      <path
         inkscape:connector-curvature="0"
         id="path3014"
         style="font-size:9.25440598px;font-variant:normal;font-stretch:normal;font-family:Cousine;-inkscape-font-specification:Cousine"
         d="m 52.361177,14.799159 0,-3.140534 c -3e-6,-0.409696 -0.07983,-0.713959 -0.239493,-0.912788 -0.156654,-0.198821 -0.408198,-0.298233 -0.754632,-0.298237 -0.373553,4e-6 -0.680828,0.137073 -0.921826,0.411206 -0.237989,0.271129 -0.356983,0.64016 -0.356981,1.107094 l 0,2.833259 -0.813376,0 0,-3.845459 c -1e-6,-0.569359 -0.009,-0.917302 -0.02711,-1.0438321 l 0.768188,0 c 0.003,0.015067 0.006,0.055736 0.009,0.1220061 0.003,0.06628 0.006,0.143099 0.009,0.230457 0.006,0.08435 0.01205,0.245523 0.01808,0.483506 l 0.01356,0 c 0.316311,-0.617558 0.837473,-0.9263392 1.563488,-0.9263441 0.52116,4.9e-6 0.909772,0.1415924 1.165839,0.4247631 0.256058,0.280167 0.384089,0.71246 0.384094,1.296882 l 0,3.258021 -0.817895,0" />
      <path
         inkscape:connector-curvature="0"
         id="path3016"
         style="font-size:9.25440598px;font-variant:normal;font-stretch:normal;font-family:Cousine;-inkscape-font-specification:Cousine"
         d="m 54.575364,12.349994 c 0,-0.813372 0.194306,-1.438465 0.582919,-1.875282 0.388612,-0.436808 0.950443,-0.6552142 1.685495,-0.6552191 0.548272,4.9e-6 1.000147,0.1325549 1.355626,0.3976501 0.355471,0.262092 0.575383,0.616061 0.659738,1.061907 l -0.867601,0.06326 c -0.0482,-0.274134 -0.168703,-0.489528 -0.3615,-0.646182 -0.192803,-0.159658 -0.466941,-0.23949 -0.822413,-0.239494 -0.475977,4e-6 -0.825427,0.147617 -1.04835,0.442838 -0.219915,0.295229 -0.329871,0.77271 -0.329869,1.432444 -2e-6,0.668778 0.109954,1.158309 0.329869,1.468595 0.222923,0.307276 0.570866,0.460914 1.043831,0.460913 0.325348,10e-7 0.594966,-0.07983 0.808857,-0.239494 0.213884,-0.159662 0.346434,-0.403674 0.397651,-0.732038 l 0.858563,0.05423 c -0.03917,0.289201 -0.149124,0.552795 -0.329869,0.790782 -0.177742,0.234975 -0.414224,0.420244 -0.709445,0.555807 -0.295228,0.13255 -0.625097,0.198825 -0.989606,0.198825 -0.738066,0 -1.299897,-0.2169 -1.685495,-0.650701 -0.385601,-0.433799 -0.578401,-1.063411 -0.578401,-1.888839" />
      <path
         inkscape:connector-curvature="0"
         id="path3018"
         style="font-size:9.25440598px;font-variant:normal;font-stretch:normal;font-family:Cousine;-inkscape-font-specification:Cousine"
         d="m 62.903424,14.157496 1.717126,0 0,0.641663 -4.437415,0 0,-0.641663 1.906913,0 0,-3.605965 -1.441482,0 0,-0.6416631 2.254858,0 0,4.2476281 m -0.903751,-5.1965662 0,-0.8676006 0.903751,0 0,0.8676006 -0.903751,0" />
      <path
         inkscape:connector-curvature="0"
         id="path3020"
         style="font-size:9.25440598px;font-variant:normal;font-stretch:normal;font-family:Cousine;-inkscape-font-specification:Cousine"
         d="m 70.06113,14.297577 c 0.07832,10e-7 0.167189,-0.01054 0.266607,-0.03163 l 0,0.5061 c -0.204856,0.0482 -0.414224,0.0723 -0.628107,0.0723 -0.301255,0 -0.521167,-0.07832 -0.659738,-0.234975 -0.135566,-0.159662 -0.212385,-0.408193 -0.230456,-0.745594 l -0.02711,0 c -0.195816,0.364513 -0.427778,0.6266 -0.695888,0.786263 -0.265103,0.159662 -0.593465,0.239494 -0.985088,0.239494 -0.475977,0 -0.834464,-0.129538 -1.075463,-0.388613 -0.241001,-0.259075 -0.361501,-0.61455 -0.3615,-1.066426 -1e-6,-1.051361 0.683836,-1.584573 2.051513,-1.599638 l 1.066426,-0.01807 0,-0.266607 c -4e-6,-0.394634 -0.07984,-0.677809 -0.239494,-0.849525 -0.159666,-0.174721 -0.414222,-0.262084 -0.763669,-0.262088 -0.355478,4e-6 -0.61154,0.06327 -0.768188,0.189788 -0.156652,0.126529 -0.250039,0.322341 -0.280163,0.587438 l -0.849525,-0.07682 c 0.138574,-0.879646 0.775717,-1.3194712 1.911432,-1.3194761 0.602497,4.9e-6 1.054372,0.1415924 1.355626,0.4247631 0.304258,0.280167 0.45639,0.686854 0.456394,1.220063 l 0,2.105739 c -4e-6,0.241001 0.03163,0.423257 0.09489,0.546769 0.06326,0.120501 0.183758,0.180751 0.3615,0.18075 m -2.75192,-0.02711 c 0.289197,1e-6 0.54526,-0.06929 0.768188,-0.207862 0.222922,-0.138574 0.39614,-0.323843 0.519656,-0.555807 0.123509,-0.231961 0.185265,-0.471455 0.185269,-0.718481 l 0,-0.402169 -0.858563,0.01807 c -0.355478,0.006 -0.626603,0.04519 -0.813375,0.117487 -0.186777,0.0723 -0.332884,0.183765 -0.43832,0.334388 -0.102426,0.147614 -0.153639,0.344933 -0.153637,0.591956 -2e-6,0.247027 0.06627,0.445852 0.198825,0.596476 0.135561,0.150626 0.33288,0.225938 0.591957,0.225937" />
    </g>
  </g>
  <text
     xml:space="preserve"
     style="font-size:40px;font-style:normal;font-weight:normal;line-height:125%;letter-spacing:0px;word-spacing:0px;fill:#000000;fill-opacity:1;stroke:none;font-family:Sans"
     x="-55.707092"
     y="226.48961"
     id="text2993"
     sodipodi:linespacing="125%"><tspan
       sodipodi:role="line"
       id="tspan2995"
       x="-55.707092"
       y="226.48961" /></text>
</svg>
