<?xml version="1.0" encoding="UTF-8" standalone="no"?>
<!-- Created with Inkscape (http://www.inkscape.org/) -->

<svg
   xmlns:dc="http://purl.org/dc/elements/1.1/"
   xmlns:cc="http://creativecommons.org/ns#"
   xmlns:rdf="http://www.w3.org/1999/02/22-rdf-syntax-ns#"
   xmlns:svg="http://www.w3.org/2000/svg"
   xmlns="http://www.w3.org/2000/svg"
   version="1.1"
   width="200"
   height="175"
   id="svg5278">
  <defs
     id="defs5280">
    <linearGradient
       id="linearGradient5846">
      <stop
         id="stop5848"
         style="stop-color:#000000;stop-opacity:1"
         offset="0" />
    </linearGradient>
  </defs>
  <metadata
     id="metadata5283">
    <rdf:RDF>
      <cc:Work
         rdf:about="">
        <dc:format>image/svg+xml</dc:format>
        <dc:type
           rdf:resource="http://purl.org/dc/dcmitype/StillImage" />
        <dc:title></dc:title>
      </cc:Work>
    </rdf:RDF>
  </metadata>
  <g
     transform="translate(-560.39493,-290.7326)"
     id="layer1">
    <g
       transform="matrix(0.61550297,0,0,0.61550297,374.80229,-58.15718)"
       id="g5405"
       style="fill:#4300d3;fill-opacity:1;stroke:none">
      <g
         transform="matrix(0.88756457,0,0,0.88756457,153.49176,386.9138)"
         id="g5407"
         style="fill:#4300d3;fill-opacity:1;stroke:none">
        <path
           d="m 167.46053,393.75874 -0.66896,92.91577 13.62577,2.71107 1.37314,-32.11034 c 0,0 16.34673,28.70843 17.70998,31.44138 1.3633,2.73293 23.83629,-0.66897 23.83629,-0.66897 0,0 -30.05536,-46.66936 -27.25154,-46.47549 l 19.78729,1.37314 9.54156,-12.28784 -2.74627,-22.56878 -17.04102,-12.99201 -38.16624,-1.33793 z m 20.84356,15.03411 14.32994,0 6.79528,7.49946 -6.79528,10.94991 -7.49945,2.0421 -6.83049,-9.57677 0,-10.9147 z"
           id="path5409"
           style="fill:#a40000;fill-opacity:1;stroke:none" />
        <path
           d="m 230.8516,425.85948 c 1.36329,2.73294 0.68166,61.49105 0.68166,61.49105 0,0 25.22069,2.73292 23.8574,0 -1.36329,-2.73294 0,-58.75811 0,-58.75811 z"
           id="path5411"
           style="fill:#ce5c00;fill-opacity:1;stroke:none" />
        <path
           d="m 232.21489,410.82833 14.31446,8.19881 8.17968,-11.61498 -0.68166,-12.29821 -14.31445,-2.04969 -10.22458,7.51557 z"
           id="path5413"
           style="fill:#f57900;fill-opacity:1;stroke:none" />
        <path
           d="m 271.75004,412.1948 -0.68167,20.49702 10.22461,19.81379 5.45314,14.34789 -25.22069,4.78265 c 0,0 -3.40821,17.76408 1.36326,17.76408 4.7715,0 29.31052,0.68322 29.31052,0.68322 l 14.31446,-15.03114 0.68165,-16.39762 -11.58789,-19.13054 -2.04492,-12.98144 11.58789,-8.1988 4.77148,8.88204 12.95115,2.0497 -1.36329,-32.79522 -23.85739,-0.68324 -17.041,6.83234 z"
           id="path5415"
           style="fill:#edd400;fill-opacity:1;stroke:none" />
        <path
           d="m 330.37109,399.89659 -0.68166,87.45394 65.50596,2.0497 -4.77147,-15.03114 -38.92201,-1.36649 -1.36326,-13.66466 33.46887,-0.68325 0.68163,-15.03111 -23.92589,-2.73296 -2.72658,-26.64612 33.46887,-1.36646 -2.72655,-15.03115 z"
           id="path5417"
           style="fill:#4e9a06;fill-opacity:1;stroke:none" />
        <path
           d="m 402.01179,396.28031 4.08984,84.03775 23.85742,8.88207 19.08593,-6.1491 4.08984,-8.19881 0.68163,12.98144 c 0,0 14.31448,6.1491 13.63283,0 -0.68167,-6.14911 2.04494,-92.23659 -2.72659,-92.91982 -4.77147,-0.68323 -23.85739,2.04971 -23.85739,2.04971 l 5.45313,51.92578 -8.17969,10.24849 -10.90626,2.73296 c 0,0 -6.13474,-11.615 -6.13474,-14.34792 0,-2.73292 1.36326,-51.24255 1.36326,-51.24255 z"
           id="path5419"
           style="fill:#204a87;fill-opacity:1;stroke:none" />
        <path
           d="m 505.60495,394.21645 c -3.40822,0 -33.37786,2.07731 -33.37786,2.07731 0,4.09941 3.41525,93.58475 3.41525,93.58475 0,0 21.95054,1.56435 19.22395,-2.53503 -2.72656,-4.09941 -4.54192,-41.19419 -4.54192,-41.19419 l 20.06896,-0.66896 14.99891,-6.83049 7.49946,-15.03412 -9.54156,-22.56878 c 0,0 -14.33701,-6.83049 -17.74519,-6.83049 z m 2.99274,17.95644 5.42214,9.54156 -4.75318,10.24573 -10.21052,-1.33793 -2.74628,-17.11143 12.28784,-1.33793 z"
           id="path5421"
           style="fill:#5c3566;fill-opacity:1;stroke:none" />
      </g>
    </g>
    <g
       transform="matrix(0.48117778,0,0,0.48117598,977.23586,93.082695)"
       id="g5423">
      <g
         transform="matrix(1.167444,0,0,1.167444,-501.92011,-234.24921)"
         id="g5425">
        <path
           d="m -141.47493,683.8528 -60.01866,19.5795 14.71697,-59.09476 -41.8382,-29.66727 55.30132,-5.95319 8.73596,-56.21671 32.38921,55.24062 73.11213,-15.63033 -45.18557,52.36073 41.52514,74.89108 z"
           id="path5427"
           style="fill:#fb0000;fill-opacity:1;stroke:none" />
        <path
           d="m -141.47493,683.8528 -60.01866,19.5795 69.30526,-95.69131 73.11213,-15.63033 -45.18557,52.36073 41.52514,74.89108 z"
           id="path5429"
           style="fill:#000000;fill-opacity:1;stroke:none" />
        <path
           d="m -141.47493,683.8528 -60.01866,19.5795 14.71697,-59.09476 -41.8382,-29.66727 55.30132,-5.95319 8.73596,-56.21671 32.38921,55.24062 73.11213,-15.63033 -45.18557,52.36073 41.52514,74.89108 z"
           id="path5431"
           style="fill:none;stroke:none" />
      </g>
    </g>
    <g
       transform="translate(0,7.25267)"
       id="text4178"
       style="font-size:16.60189056px;font-style:normal;font-weight:normal;line-height:125%;letter-spacing:0px;word-spacing:0px;fill:#4d4d4d;fill-opacity:1;stroke:none;font-family:Sans">
      <path
         d="m 625.67457,449.54669 0,5.47992 -1.49157,0 0,-5.43128 c -10e-6,-0.85927 -0.16754,-1.50238 -0.5026,-1.92932 -0.33507,-0.42693 -0.83767,-0.6404 -1.50779,-0.64041 -0.80524,10e-6 -1.44024,0.25671 -1.905,0.77011 -0.46477,0.51341 -0.69715,1.21326 -0.69715,2.09956 l 0,5.13134 -1.49968,0 0,-12.61354 1.49968,0 0,4.94489 c 0.35668,-0.54582 0.77551,-0.95384 1.25649,-1.22406 0.48638,-0.2702 1.04572,-0.40531 1.67802,-0.40532 1.04302,10e-6 1.83204,0.32426 2.36707,0.97277 0.53501,0.64311 0.80252,1.59156 0.80253,2.84534"
         id="path4250" />
      <path
         d="m 630.14119,443.36962 0,2.57783 3.07233,0 0,1.15922 -3.07233,0 0,4.92868 c 0,0.74039 0.1,1.21596 0.29994,1.42673 0.20536,0.21077 0.61878,0.31615 1.24028,0.31615 l 1.53211,0 0,1.24838 -1.53211,0 c -1.15111,0 -1.94554,-0.21347 -2.38328,-0.6404 -0.43775,-0.43234 -0.65662,-1.21596 -0.65662,-2.35086 l 0,-4.92868 -1.09436,0 0,-1.15922 1.09436,0 0,-2.57783 1.49968,0"
         id="path4252" />
      <path
         d="m 636.65873,443.36962 0,2.57783 3.07232,0 0,1.15922 -3.07232,0 0,4.92868 c 0,0.74039 0.1,1.21596 0.29994,1.42673 0.20536,0.21077 0.61878,0.31615 1.24028,0.31615 l 1.5321,0 0,1.24838 -1.5321,0 c -1.15111,0 -1.94554,-0.21347 -2.38328,-0.6404 -0.43775,-0.43234 -0.65662,-1.21596 -0.65662,-2.35086 l 0,-4.92868 -1.09436,0 0,-1.15922 1.09436,0 0,-2.57783 1.49968,0"
         id="path4254" />
      <path
         d="m 643.14385,453.66474 0,4.81519 -1.49969,0 0,-12.53248 1.49969,0 0,1.37809 c 0.31344,-0.54042 0.70795,-0.94033 1.18353,-1.19975 0.48097,-0.2648 1.05383,-0.3972 1.71856,-0.39721 1.10246,10e-6 1.99686,0.43775 2.68321,1.31324 0.69174,0.87549 1.03761,2.0266 1.03762,3.45332 -10e-6,1.42673 -0.34588,2.57783 -1.03762,3.45332 -0.68635,0.87549 -1.58075,1.31324 -2.68321,1.31324 -0.66473,0 -1.23759,-0.12971 -1.71856,-0.38911 -0.47558,-0.26481 -0.87009,-0.66743 -1.18353,-1.20785 m 5.0746,-3.1696 c -10e-6,-1.09706 -0.22699,-1.95634 -0.68094,-2.57783 -0.44856,-0.62689 -1.06735,-0.94034 -1.85636,-0.94035 -0.78903,10e-6 -1.41052,0.31346 -1.86447,0.94035 -0.44856,0.62149 -0.67284,1.48077 -0.67283,2.57783 -1e-5,1.09707 0.22427,1.95905 0.67283,2.58594 0.45395,0.62149 1.07544,0.93223 1.86447,0.93223 0.78901,0 1.4078,-0.31074 1.85636,-0.93223 0.45395,-0.62689 0.68093,-1.48887 0.68094,-2.58594"
         id="path4256" />
      <path
         d="m 658.02718,446.21496 0,1.41052 c -0.42154,-0.21617 -0.85928,-0.37829 -1.31324,-0.48639 -0.45396,-0.10808 -0.92413,-0.16212 -1.41051,-0.16213 -0.74039,10e-6 -1.29702,0.1135 -1.66991,0.34047 -0.3675,0.22699 -0.55124,0.56746 -0.55124,1.02141 0,0.34588 0.1324,0.61879 0.39721,0.81874 0.26481,0.19456 0.79713,0.38101 1.59696,0.55934 l 0.51071,0.11349 c 1.05923,0.22699 1.81042,0.54854 2.25357,0.96466 0.44855,0.41073 0.67283,0.98629 0.67283,1.72667 0,0.84306 -0.33507,1.51049 -1.00519,2.00228 -0.66473,0.49178 -1.58075,0.73768 -2.74807,0.73768 -0.48638,0 -0.99438,-0.0486 -1.524,-0.14592 -0.52421,-0.0919 -1.07815,-0.23238 -1.66181,-0.42153 l 0,-1.54022 c 0.55124,0.28643 1.09436,0.5026 1.62939,0.64852 0.53502,0.14051 1.06463,0.21076 1.58885,0.21076 0.70255,0 1.24297,-0.11889 1.62128,-0.35668 0.37829,-0.24319 0.56744,-0.58366 0.56745,-1.0214 -10e-6,-0.40532 -0.13782,-0.71607 -0.41343,-0.93224 -0.27022,-0.21617 -0.86739,-0.42423 -1.79151,-0.62419 l -0.51881,-0.1216 c -0.92413,-0.19455 -1.59156,-0.49178 -2.00228,-0.8917 -0.41073,-0.40531 -0.61609,-0.95925 -0.61609,-1.66181 0,-0.85387 0.30264,-1.51319 0.90792,-1.97796 0.60527,-0.46476 1.46455,-0.69714 2.57783,-0.69715 0.55123,10e-6 1.07004,0.0405 1.55643,0.1216 0.48638,0.0811 0.93493,0.20266 1.34566,0.36478"
         id="path4258" />
      <path
         d="m 661.27784,452.96759 1.71045,0 0,2.05902 -1.71045,0 0,-2.05902 m 0,-6.52565 1.71045,0 0,2.05903 -1.71045,0 0,-2.05903"
         id="path4260" />
      <path
         d="m 669.15726,442.92377 1.37808,0 -4.21532,13.64306 -1.37809,0 4.21533,-13.64306"
         id="path4262" />
      <path
         d="m 674.76688,442.92377 1.37809,0 -4.21533,13.64306 -1.37808,0 4.21532,-13.64306"
         id="path4264" />
      <path
         d="m 682.98676,447.34175 c -0.16754,-0.0973 -0.35128,-0.16752 -0.55123,-0.21076 -0.19456,-0.0486 -0.41073,-0.0729 -0.64852,-0.073 -0.84306,10e-6 -1.49158,0.27562 -1.94553,0.82685 -0.44856,0.54584 -0.67283,1.33216 -0.67283,2.35896 l 0,4.78277 -1.49968,0 0,-9.07916 1.49968,0 0,1.41051 c 0.31344,-0.55122 0.72147,-0.95924 1.22407,-1.22406 0.50259,-0.2702 1.11327,-0.40531 1.83204,-0.40532 0.10267,10e-6 0.21616,0.008 0.34047,0.0243 0.12429,0.0108 0.2621,0.0297 0.41342,0.0567 l 0.008,1.53211"
         id="path4266" />
      <path
         d="m 684.56751,445.94745 1.49158,0 0,9.07916 -1.49158,0 0,-9.07916 m 0,-3.53438 1.49158,0 0,1.88878 -1.49158,0 0,-1.88878"
         id="path4268" />
      <path
         d="m 694.9599,446.21496 0,1.41052 c -0.42154,-0.21617 -0.85928,-0.37829 -1.31323,-0.48639 -0.45396,-0.10808 -0.92414,-0.16212 -1.41051,-0.16213 -0.74039,10e-6 -1.29703,0.1135 -1.66992,0.34047 -0.36749,0.22699 -0.55124,0.56746 -0.55123,1.02141 -10e-6,0.34588 0.1324,0.61879 0.39721,0.81874 0.2648,0.19456 0.79712,0.38101 1.59696,0.55934 l 0.5107,0.11349 c 1.05923,0.22699 1.81042,0.54854 2.25358,0.96466 0.44854,0.41073 0.67282,0.98629 0.67283,1.72667 -10e-6,0.84306 -0.33507,1.51049 -1.0052,2.00228 -0.66473,0.49178 -1.58075,0.73768 -2.74806,0.73768 -0.48639,0 -0.99439,-0.0486 -1.524,-0.14592 -0.52422,-0.0919 -1.07816,-0.23238 -1.66181,-0.42153 l 0,-1.54022 c 0.55123,0.28643 1.09436,0.5026 1.62938,0.64852 0.53502,0.14051 1.06464,0.21076 1.58885,0.21076 0.70255,0 1.24298,-0.11889 1.62128,-0.35668 0.37829,-0.24319 0.56744,-0.58366 0.56745,-1.0214 -10e-6,-0.40532 -0.13782,-0.71607 -0.41343,-0.93224 -0.27022,-0.21617 -0.86739,-0.42423 -1.79151,-0.62419 l -0.51881,-0.1216 c -0.92413,-0.19455 -1.59156,-0.49178 -2.00228,-0.8917 -0.41072,-0.40531 -0.61608,-0.95925 -0.61608,-1.66181 0,-0.85387 0.30263,-1.51319 0.90791,-1.97796 0.60528,-0.46476 1.46455,-0.69714 2.57784,-0.69715 0.55123,10e-6 1.07003,0.0405 1.55642,0.1216 0.48638,0.0811 0.93493,0.20266 1.34566,0.36478"
         id="path4270" />
      <path
         d="m 705.59549,450.11414 0,0.72957 -6.85801,0 c 0.0648,1.02682 0.37289,1.81043 0.92413,2.35086 0.55663,0.53502 1.32944,0.80253 2.31843,0.80253 0.57284,0 1.12678,-0.0702 1.66181,-0.21077 0.54041,-0.14051 1.07544,-0.35127 1.60506,-0.6323 l 0,1.41052 c -0.53503,0.22698 -1.08356,0.39991 -1.6456,0.51881 -0.56205,0.11889 -1.13219,0.17834 -1.71044,0.17834 -1.44835,0 -2.59675,-0.42154 -3.44522,-1.2646 -0.84307,-0.84306 -1.2646,-1.98336 -1.2646,-3.4209 0,-1.48616 0.39992,-2.66429 1.19975,-3.53438 0.80523,-0.87549 1.88878,-1.31323 3.25066,-1.31324 1.22136,10e-6 2.18602,0.39452 2.89398,1.18353 0.71336,0.78363 1.07004,1.85097 1.07005,3.20203 m -1.49158,-0.43775 c -0.0108,-0.81603 -0.2405,-1.46725 -0.68904,-1.95364 -0.44316,-0.48637 -1.03222,-0.72956 -1.7672,-0.72957 -0.83226,1e-5 -1.49968,0.23509 -2.00227,0.70525 -0.4972,0.47018 -0.78363,1.1322 -0.85928,1.98607 l 5.31779,-0.008"
         id="path4272" />
      <path
         d="m 707.8896,451.44359 0,-5.49614 1.49158,0 0,5.43939 c -10e-6,0.85928 0.16753,1.50509 0.50259,1.93743 0.33506,0.42694 0.83766,0.64041 1.50779,0.6404 0.80523,10e-6 1.44023,-0.2567 1.905,-0.7701 0.47017,-0.51341 0.70525,-1.21326 0.70526,-2.09956 l 0,-5.14756 1.49158,0 0,9.07916 -1.49158,0 0,-1.3943 c -0.36209,0.55124 -0.78363,0.96196 -1.2646,1.23217 -0.47558,0.26481 -1.02951,0.39722 -1.66181,0.39722 -1.04302,0 -1.83475,-0.32426 -2.37517,-0.97277 -0.54043,-0.64851 -0.81064,-1.59696 -0.81064,-2.84534 m 3.75326,-5.71501 0,0"
         id="path4274" />
      <path
         d="m 720.02487,453.66474 0,4.81519 -1.49969,0 0,-12.53248 1.49969,0 0,1.37809 c 0.31344,-0.54042 0.70795,-0.94033 1.18353,-1.19975 0.48097,-0.2648 1.05383,-0.3972 1.71855,-0.39721 1.10247,10e-6 1.99687,0.43775 2.68322,1.31324 0.69174,0.87549 1.03761,2.0266 1.03762,3.45332 -10e-6,1.42673 -0.34588,2.57783 -1.03762,3.45332 -0.68635,0.87549 -1.58075,1.31324 -2.68322,1.31324 -0.66472,0 -1.23758,-0.12971 -1.71855,-0.38911 -0.47558,-0.26481 -0.87009,-0.66743 -1.18353,-1.20785 m 5.0746,-3.1696 c -10e-6,-1.09706 -0.22699,-1.95634 -0.68094,-2.57783 -0.44856,-0.62689 -1.06735,-0.94034 -1.85636,-0.94035 -0.78903,10e-6 -1.41052,0.31346 -1.86447,0.94035 -0.44856,0.62149 -0.67284,1.48077 -0.67283,2.57783 -10e-6,1.09707 0.22427,1.95905 0.67283,2.58594 0.45395,0.62149 1.07544,0.93223 1.86447,0.93223 0.78901,0 1.4078,-0.31074 1.85636,-0.93223 0.45395,-0.62689 0.68093,-1.48887 0.68094,-2.58594"
         id="path4276" />
      <path
         d="m 729.331,452.96759 1.71045,0 0,2.05902 -1.71045,0 0,-2.05902"
         id="path4278" />
      <path
         d="m 741.95266,449.54669 0,5.47992 -1.49158,0 0,-5.43128 c -1e-5,-0.85927 -0.16754,-1.50238 -0.5026,-1.92932 -0.33507,-0.42693 -0.83766,-0.6404 -1.50778,-0.64041 -0.80524,10e-6 -1.44024,0.25671 -1.90501,0.77011 -0.46477,0.51341 -0.69715,1.21326 -0.69715,2.09956 l 0,5.13134 -1.49968,0 0,-9.07916 1.49968,0 0,1.41051 c 0.35668,-0.54582 0.77551,-0.95384 1.25649,-1.22406 0.48638,-0.2702 1.04572,-0.40531 1.67803,-0.40532 1.04301,10e-6 1.83203,0.32426 2.36706,0.97277 0.53502,0.64311 0.80253,1.59156 0.80254,2.84534"
         id="path4280" />
      <path
         d="m 752.70984,450.11414 0,0.72957 -6.85801,0 c 0.0649,1.02682 0.37289,1.81043 0.92413,2.35086 0.55663,0.53502 1.32944,0.80253 2.31843,0.80253 0.57284,0 1.12678,-0.0702 1.66181,-0.21077 0.54041,-0.14051 1.07544,-0.35127 1.60506,-0.6323 l 0,1.41052 c -0.53503,0.22698 -1.08356,0.39991 -1.6456,0.51881 -0.56205,0.11889 -1.1322,0.17834 -1.71044,0.17834 -1.44835,0 -2.59676,-0.42154 -3.44522,-1.2646 -0.84307,-0.84306 -1.2646,-1.98336 -1.2646,-3.4209 0,-1.48616 0.39992,-2.66429 1.19975,-3.53438 0.80523,-0.87549 1.88878,-1.31323 3.25066,-1.31324 1.22136,10e-6 2.18602,0.39452 2.89398,1.18353 0.71336,0.78363 1.07004,1.85097 1.07005,3.20203 m -1.49158,-0.43775 c -0.0108,-0.81603 -0.2405,-1.46725 -0.68904,-1.95364 -0.44316,-0.48637 -1.03222,-0.72956 -1.7672,-0.72957 -0.83226,1e-5 -1.49968,0.23509 -2.00228,0.70525 -0.49719,0.47018 -0.78362,1.1322 -0.85927,1.98607 l 5.31779,-0.008"
         id="path4282" />
      <path
         d="m 756.63333,443.36962 0,2.57783 3.07232,0 0,1.15922 -3.07232,0 0,4.92868 c -10e-6,0.74039 0.1,1.21596 0.29993,1.42673 0.20536,0.21077 0.61879,0.31615 1.24028,0.31615 l 1.53211,0 0,1.24838 -1.53211,0 c -1.15111,0 -1.94554,-0.21347 -2.38328,-0.6404 -0.43775,-0.43234 -0.65662,-1.21596 -0.65662,-2.35086 l 0,-4.92868 -1.09436,0 0,-1.15922 1.09436,0 0,-2.57783 1.49969,0"
         id="path4284" />
    </g>
  </g>
</svg>
