<?xml version="1.0" encoding="UTF-8" standalone="no"?>
<!-- Created with Inkscape (http://www.inkscape.org/) -->

<svg
   xmlns:svg="http://www.w3.org/2000/svg"
   xmlns="http://www.w3.org/2000/svg"
   version="1.0"
   width="138.53999"
   height="138.28999"
   id="svg13701">
  <defs
     id="defs13703" />
  <g
     transform="translate(0,-12.469973)"
     id="g3659">
    <g
       transform="translate(-302.75889,-113.6908)"
       id="layer1"
       style="fill:#000000">
      <g
         transform="matrix(3.75,0,0,3.75,-799.53838,-433.72913)"
         id="g13861"
         style="fill:#000000">
        <g
           id="g626"
           style="fill:#000000;fill-opacity:1">
          <g
             transform="translate(296.22198,179.7959)"
             id="use628"
             style="fill:#000000" />
        </g>
        <g
           id="g630"
           style="fill:#000000;fill-opacity:1">
          <g
             transform="translate(318.44711,183.45215)"
             id="use632"
             style="fill:#000000" />
        </g>
        <g
           id="g634"
           style="fill:#000000;fill-opacity:1">
          <g
             transform="translate(315.57727,179.7959)"
             id="use636"
             style="fill:#000000">
            <path
               d="m -6.7615397,-9 c 0,0.105469 -0.105469,0.15625 -0.3125,0.15625 -0.08594,0 -0.144531,-0.039062 -0.171875,-0.125 -0.242187,-0.800781 -0.589844,-1.367188 -1.046875,-1.703125 -0.460938,-0.332031 -1.136719,-0.5 -2.0312503,-0.5 l -0.8125,0 c -0.28125,0 -0.476562,0.05078 -0.578125,0.140625 -0.105469,0.08594 -0.15625,0.253906 -0.15625,0.5 l 0,8.71875 c 0,0.386719 0.05078,0.664062 0.15625,0.828125 0.101563,0.167969 0.28125,0.300781 0.53125,0.390625 0.257813,0.09375 0.625,0.167969 1.09375,0.21875 0.089844,0.011719 0.1406253,0.089844 0.1406253,0.234375 0,0.1640625 -0.050781,0.25 -0.1406253,0.25 -0.386719,0 -0.847656,-0.0234375 -1.375,-0.0625 -0.5,-0.03125 -0.917969,-0.046875 -1.25,-0.046875 -0.355469,0 -0.789063,0.015625 -1.296875,0.046875 -0.53125,0.0390625 -0.992188,0.0625 -1.375,0.0625 -0.08594,0 -0.125,-0.0859375 -0.125,-0.25 0,-0.144531 0.03906,-0.222656 0.125,-0.234375 0.695312,-0.070312 1.171875,-0.195312 1.421875,-0.375 0.246094,-0.175781 0.375,-0.53125 0.375,-1.0625 l 0,-8.71875 c 0,-0.246094 -0.05469,-0.414062 -0.15625,-0.5 -0.105469,-0.08984 -0.304687,-0.140625 -0.59375,-0.140625 l -0.65625,0 c -0.8125,0 -1.550781,0.207031 -2.203125,0.609375 -0.65625,0.40625 -1.085938,0.941406 -1.28125,1.59375 -0.03125,0.085938 -0.09766,0.125 -0.1875,0.125 -0.199218,0 -0.296875,-0.0625 -0.296875,-0.1875 0.320313,-0.863281 0.625,-1.84375 0.90625,-2.9375 0.777344,0.167969 2.5625,0.25 5.34375,0.25 2.8515633,0 4.6640633,-0.08203 5.4375003,-0.25 0.08203,0.75 0.253906,1.742188 0.515625,2.96875 z m 0,0"
               id="path13851"
               style="fill:#000000;stroke:none" />
          </g>
        </g>
        <g
           id="g638"
           style="fill:#000000;fill-opacity:1">
          <g
             transform="translate(324.9476,183.45215)"
             id="use640"
             style="fill:#000000">
            <path
               d="m -7.9802897,-2.8125 c -0.449219,1 -0.820312,1.960938 -1.109375,2.875 -2.1562503,-0.0703125 -3.6953133,-0.109375 -4.6093753,-0.109375 -0.917969,0 -2.457031,0.0390625 -4.609375,0.109375 -0.09375,0 -0.140625,-0.0820312 -0.140625,-0.25 0,-0.144531 0.04687,-0.222656 0.140625,-0.234375 0.464844,-0.050781 0.828125,-0.125 1.078125,-0.21875 0.257812,-0.089844 0.4375,-0.21875 0.53125,-0.375 0.101562,-0.164063 0.15625,-0.441406 0.15625,-0.828125 l 0,-8.046875 c 0,-0.394531 -0.05078,-0.671875 -0.140625,-0.828125 -0.09375,-0.164062 -0.273437,-0.296875 -0.53125,-0.390625 -0.25,-0.101563 -0.617187,-0.179687 -1.09375,-0.234375 -0.09375,0 -0.140625,-0.08203 -0.140625,-0.25 0,-0.152344 0.04687,-0.234375 0.140625,-0.234375 1.445313,0.07422 2.925781,0.109375 4.4375,0.109375 1.527344,0 3.015625,-0.03516 4.4531253,-0.109375 0.113281,0.855469 0.296875,1.707031 0.546875,2.546875 0,0.117188 -0.105469,0.171875 -0.3125,0.171875 -0.09375,0 -0.152344,-0.039063 -0.171875,-0.125 -0.429688,-1.289063 -1.3359383,-1.9375 -2.7187503,-1.9375 l -1.734375,0 c -0.65625,0 -0.984375,0.332031 -0.984375,0.984375 l 0,3.640625 2.203125,0 c 0.589844,0 0.992187,-0.125 1.203125,-0.375 0.207031,-0.246094 0.351562,-0.691406 0.4375,-1.328125 0,-0.082031 0.07813,-0.125 0.234375,-0.125 0.152344,0 0.234375,0.050781 0.234375,0.140625 0,0.292969 -0.03516,0.652344 -0.09375,1.078125 -0.0625,0.417969 -0.09375,0.761719 -0.09375,1.03125 0,0.261719 0.03125,0.601562 0.09375,1.015625 0.05859,0.449219 0.09375,0.820313 0.09375,1.109375 0,0.09375 -0.08203,0.140625 -0.234375,0.140625 -0.15625,0 -0.234375,-0.046875 -0.234375,-0.140625 -0.09375,-0.738281 -0.253906,-1.253906 -0.46875,-1.546875 C -11.63654,-5.847656 -12.031071,-6 -12.589665,-6 l -2.203125,0 0,4.359375 c 0,0.699219 0.328125,1.046875 0.984375,1.046875 l 1.875,0 c 0.675781,0 1.347656,-0.222656 2.0156253,-0.671875 0.675781,-0.445313 1.171875,-1.007813 1.484375,-1.6875 0.01953,-0.050781 0.06641,-0.078125 0.140625,-0.078125 0.08203,0 0.15625,0.023438 0.21875,0.0625 0.05859,0.042969 0.09375,0.097656 0.09375,0.15625 z m 0,0"
               id="path13855"
               style="fill:#000000;stroke:none" />
          </g>
        </g>
        <g
           id="g642"
           style="fill:#000000;fill-opacity:1">
          <g
             transform="translate(334.00293,179.7959)"
             id="use644"
             style="fill:#000000">
            <path
               d="m -5.7771647,-0.140625 c 0,0.1640625 -0.05078,0.25 -0.140625,0.25 -0.273438,0 -0.648438,-0.0234375 -1.125,-0.0625 C -7.5545087,0.015625 -7.9724777,0 -8.2927897,0 c -0.335938,0 -0.777344,0.015625 -1.328125,0.046875 -0.5859373,0.0390625 -1.0742193,0.0625 -1.4687503,0.0625 -0.08594,0 -0.125,-0.0859375 -0.125,-0.25 0,-0.144531 0.04687,-0.222656 0.140625,-0.234375 0.789062,-0.101562 1.1875003,-0.28125 1.1875003,-0.53125 0,-0.195312 -0.1445313,-0.5 -0.4218753,-0.90625 l -2.234375,-3.234375 -2.390625,3.234375 c -0.199219,0.242188 -0.296875,0.472656 -0.296875,0.6875 0,0.210938 0.101562,0.371094 0.3125,0.484375 0.214844,0.105469 0.582031,0.195313 1.09375,0.265625 0.07031,0.011719 0.109375,0.089844 0.109375,0.234375 0,0.1640625 -0.05078,0.25 -0.140625,0.25 -0.398438,0 -0.851562,-0.0234375 -1.359375,-0.0625 C -15.652165,0.015625 -16.023259,0 -16.32404,0 c -0.261719,0 -0.574219,0.015625 -0.9375,0.046875 -0.429688,0.0390625 -0.816406,0.0625 -1.15625,0.0625 -0.09375,0 -0.140625,-0.0859375 -0.140625,-0.25 0,-0.144531 0.0625,-0.222656 0.1875,-0.234375 0.589844,-0.050781 1.050781,-0.171875 1.375,-0.359375 0.332031,-0.183594 0.71875,-0.550781 1.15625,-1.09375 l 2.96875,-3.6875 -3.140625,-4.375 c -0.40625,-0.589844 -0.773438,-0.96875 -1.09375,-1.125 -0.3125,-0.152344 -0.789062,-0.265625 -1.421875,-0.328125 0.02734,0 0.04687,-0.08203 0.04687,-0.25 0,-0.152344 0.03906,-0.234375 0.125,-0.234375 0.269531,0 0.648438,0.01953 1.140625,0.04687 0.539063,0.04297 0.960937,0.0625 1.265625,0.0625 0.351562,0 0.796875,-0.01953 1.328125,-0.0625 0.570313,-0.02734 1.050781,-0.04687 1.4375,-0.04687 0.08984,0 0.140625,0.08203 0.140625,0.234375 0,0.167969 -0.06641,0.25 -0.1875,0.25 -0.523438,0.0625 -0.878906,0.136719 -1.0625,0.21875 -0.179688,0.07422 -0.265625,0.183594 -0.265625,0.328125 0,0.1875 0.15625,0.492187 0.46875,0.90625 l 2.25,3.03125 2.0937503,-3.03125 c 0.207031,-0.320313 0.3125,-0.554687 0.3125,-0.703125 0,-0.195312 -0.117187,-0.351562 -0.34375,-0.46875 -0.2304693,-0.121094 -0.6015633,-0.21875 -1.1093753,-0.28125 -0.07422,0 -0.109375,-0.08203 -0.109375,-0.25 0,-0.152344 0.04687,-0.234375 0.140625,-0.234375 0.371094,0 0.789062,0.01953 1.2500003,0.04687 0.433594,0.04297 0.832031,0.0625 1.1875,0.0625 0.257812,0 0.570312,-0.01563 0.9375,-0.04687 0.445312,-0.03906 0.867188,-0.0625 1.265625,-0.0625 0.08984,0 0.140625,0.08203 0.140625,0.234375 0,0.0625 -0.02344,0.121094 -0.0625,0.171875 -0.04297,0.05469 -0.08594,0.07813 -0.125,0.07813 -0.617188,0.0625 -1.089844,0.195312 -1.421875,0.390625 -0.324219,0.1875 -0.691406,0.542969 -1.09375,1.0625 l -2.7500003,3.515625 3.1562503,4.5625 c 0.425781,0.59375 0.78125,0.964844 1.0625,1.109375 0.277344,0.148437 0.742187,0.257813 1.390625,0.328125 0.08984,0.011719 0.140625,0.089844 0.140625,0.234375 z m 0,0"
               id="path13859"
               style="fill:#000000;stroke:none" />
          </g>
        </g>
      </g>
    </g>
    <g
       id="text2831"
       style="font-size:63.61233521px;font-style:normal;font-variant:normal;font-weight:normal;font-stretch:normal;fill:#000000;fill-opacity:1;stroke:none;font-family:TeXGyreBonum;-inkscape-font-specification:TeXGyreBonum">
      <path
         d="m 27.957577,67.76001 0,-2.061796 -1.330191,-0.199528 c -3.591511,-0.598586 -4.32312,-1.795764 -4.32312,-7.31605 l 0,-26.138252 c 0,-5.520286 0.731609,-6.717464 4.32312,-7.31605 l 1.330191,-0.199528 0,-2.061796 -17.957577,0 0,2.061796 1.330191,0.199528 c 3.591511,0.598586 4.32312,1.795764 4.32312,7.31605 l 0,26.138252 c 0,5.520286 -0.731609,6.717464 -4.32312,7.31605 L 10,65.698214 l 0,2.061796 17.957577,0"
         id="path3657"
         style="font-size:84.8164444px;fill:#000000;font-family:TeXGyreBonum;-inkscape-font-specification:TeXGyreBonum" />
    </g>
    <path
       d="m 48.232204,22.467005 c 4.108362,4.7e-5 7.336273,2.378029 9.683965,7.133955 0.849945,1.882188 1.295205,3.319089 1.335696,4.310723 l 0.09112,0 c 0.708266,-3.278538 1.993405,-6.000566 3.855345,-8.166097 2.185644,-2.18568 4.644594,-3.278534 7.376763,-3.278581 4.229762,4.7e-5 7.619642,2.266718 10.169718,6.800023 0.647574,1.679801 0.971345,3.258377 0.971416,4.735727 -7.1e-5,5.059569 -2.104807,9.886372 -6.314288,14.480408 l -16.058954,19.276842 -0.182185,0 L 42.09999,46.843874 C 38.699972,42.695072 37,38.414709 37,34.002755 c 0,-4.270206 2.013686,-7.660102 6.041065,-10.169676 1.70005,-0.910669 3.43037,-1.366027 5.191119,-1.366074"
       id="path2857"
       style="font-size:82.14466858px;font-style:normal;font-variant:normal;font-weight:normal;font-stretch:normal;text-align:start;line-height:125%;writing-mode:lr-tb;text-anchor:start;fill:#ef0000;fill-opacity:1;stroke:none;font-family:'Ænigma Scrawl 4 BRK';-inkscape-font-specification:'Ænigma Scrawl 4 BRK'" />
  </g>
</svg>
