<?xml version="1.0" encoding="UTF-8" standalone="no"?>
<!-- Created with Inkscape (http://www.inkscape.org/) -->

<svg
   xmlns:dc="http://purl.org/dc/elements/1.1/"
   xmlns:cc="http://creativecommons.org/ns#"
   xmlns:rdf="http://www.w3.org/1999/02/22-rdf-syntax-ns#"
   xmlns:svg="http://www.w3.org/2000/svg"
   xmlns="http://www.w3.org/2000/svg"
   version="1.1"
   width="58"
   height="58"
   id="svg10668">
  <defs
     id="defs10670" />
  <metadata
     id="metadata10673">
    <rdf:RDF>
      <cc:Work
         rdf:about="">
        <dc:format>image/svg+xml</dc:format>
        <dc:type
           rdf:resource="http://purl.org/dc/dcmitype/StillImage" />
        <dc:title></dc:title>
      </cc:Work>
    </rdf:RDF>
  </metadata>
  <g
     transform="translate(-0.87043769,0.72767882)"
     id="g3126">
    <path
       d="m 37.392591,53.6456 c -0.0057,-0.153947 -0.0224,-0.31929 -0.05055,-0.46184 l -0.02803,-0.136759 -0.140292,0.02849 -1.626739,0.336397 -0.235597,-1.123214 1.245287,-0.256562 -0.145842,-0.707007 -1.245287,0.256586 -0.196332,-0.935066 1.609908,-0.330687 0,-0.125374 c -0.01149,-0.148236 -0.03355,-0.313579 -0.0618,-0.45613 l -0.02803,-0.136758 -2.428884,0.501739 0.869466,4.173543 2.462533,-0.507438 z m -3.034697,0.01705 -0.145842,0.01168 -1.514545,0.119688 -0.280471,-3.529276 -0.779709,0.06282 0.336556,4.253365 2.367181,-0.18245 0.01149,-0.119687 c 0.01677,-0.102639 0.0224,-0.205255 0.0224,-0.307894 0,-0.0571 -0.0057,-0.108244 -0.0057,-0.165343 z m -5.586974,-1.721883 -1.553824,-0.153937 0.162683,-1.647758 -0.774113,-0.07415 -0.420707,4.247666 0.774115,0.07415 0.185096,-1.875818 1.553812,0.148248 -0.185108,1.881517 0.77972,0.07415 0.01149,-0.142609 0.403876,-4.105117 -0.774102,-0.07415 z m -3.786364,-1.562215 c 0.106495,0 0.218757,0.01705 0.347768,0.05126 0.280482,0.07415 0.544123,0.205255 0.729241,0.370598 l 0.123348,0.119687 0.08972,-0.148236 c 0.08409,-0.125374 0.173907,-0.279379 0.229991,-0.439013 l 0.02803,-0.08559 -0.06169,-0.06271 c -0.224375,-0.205254 -0.61142,-0.370598 -0.964818,-0.461817 -0.185108,-0.04554 -0.364609,-0.07415 -0.54411,-0.07415 -0.824594,-0.0058 -1.503322,0.570143 -1.78941,1.738967 -0.08421,0.313591 -0.123348,0.598669 -0.123348,0.872338 -0.01149,0.87235 0.482408,1.493812 1.368704,1.710463 0.19632,0.05138 0.415099,0.07987 0.633856,0.07987 0.185119,0 0.364621,-0.02277 0.538505,-0.06843 l 0.08972,-0.02849 0.01149,-0.09692 c 0.0057,-0.07987 0.01149,-0.165343 0.01149,-0.245166 0,-0.07987 -0.0057,-0.165344 -0.01149,-0.239468 l -0.01149,-0.188149 -0.179502,0.06271 c -0.145841,0.05138 -0.308513,0.07415 -0.471184,0.07415 -0.145853,0 -0.286077,-0.01705 -0.431919,-0.05126 -0.527292,-0.14826 -0.729241,-0.404823 -0.740454,-0.946463 0,-0.199556 0.03355,-0.439024 0.106496,-0.718403 0.246809,-0.940752 0.572164,-1.220143 1.020912,-1.22583 m 6.03014,-0.03993 -0.77971,0.0058 0.01149,4.264762 0.77971,-0.0058 0,-0.13677 z"
       id="path1050"
       style="fill:#000000;fill-opacity:1;fill-rule:nonzero;stroke:none" />
    <path
       d="m 39.720517,4.5950816 c -0.128954,0.3249886 -0.291707,0.4390128 -0.538505,0.4447232 -0.10661,0 -0.229992,-0.028492 -0.370239,-0.07987 L 38.45277,4.8288631 38.890306,3.6657382 c 0.140304,0.039817 0.308513,0.091195 0.426324,0.1367583 0.330949,0.1310715 0.465578,0.2736805 0.465578,0.5017397 0,0.079869 -0.01677,0.1767403 -0.06181,0.2907763 M 39.580097,3.1582179 C 39.265967,3.0442521 38.9294,2.9472644 38.508706,2.8503469 l -0.12336,-0.028491 -1.486503,3.9340751 0.723624,0.2736687 0.588984,-1.5679244 0.415111,0.1539469 c 0.106495,0.2451659 0.201927,0.6556748 0.252416,1.1174927 l 0.08972,0.8381364 0.08972,0.028492 c 0.162673,0.051377 0.370216,0.1139649 0.555336,0.1253848 l 0.173884,0.011677 -0.0224,-0.1710417 -0.123347,-0.9578591 c -0.0448,-0.3706102 -0.128953,-0.6899002 -0.235597,-0.9407755 0.471184,-0.034213 0.875071,-0.3249777 1.060179,-0.8096107 0.07295,-0.1881483 0.100981,-0.3592019 0.100981,-0.524545 0,-0.5986572 -0.448748,-0.9749657 -0.987253,-1.174522 m -2.686917,-0.1026389 0.0448,-0.1139659 c 0.05618,-0.142608 0.10098,-0.3021833 0.13456,-0.4390236 l 0.02803,-0.1425971 -2.423277,-0.5245568 -0.914339,4.1678448 2.462533,0.535953 0.0448,-0.1139659 c 0.05618,-0.1367583 0.106495,-0.2964848 0.140304,-0.4390355 L 36.438725,5.849707 36.304165,5.81561 34.683033,5.4621067 34.924249,4.3445913 36.163931,4.6125732 36.320995,3.911289 35.081315,3.6376085 35.288858,2.7025418 z M 32.557192,4.5553347 z M 32.422631,2.7251251 c -0.03917,0.3762966 -0.213151,0.5416397 -0.549718,0.5530596 -0.01677,0 -0.03917,-0.00584 -0.0618,-0.00584 l -0.538505,-0.034097 0.07858,-1.0946993 c 0.0448,0 0.08421,0 0.123348,0 0.13456,0 0.24681,0 0.353396,0.011677 0.437536,0.039818 0.583378,0.1938587 0.600208,0.5131487 0,0.017048 0,0.034096 -0.0057,0.057099 m -0.0057,1.8187888 c -0.0448,0.4276156 -0.224375,0.5929596 -0.673122,0.6043795 -0.03366,0 -0.06732,0 -0.106495,0 -0.12336,-0.011677 -0.297301,-0.028492 -0.493633,-0.062704 l 0.08421,-1.1973392 0.583376,0.04554 c 0.420706,0.039817 0.600208,0.2166621 0.605825,0.5530478 0,0.017048 0,0.039818 0,0.0571 M 32.70299,3.6035336 c 0.263629,-0.1767522 0.465578,-0.4675275 0.493621,-0.855244 0.0057,-0.039818 0.0057,-0.074147 0.0057,-0.1139649 C 33.208011,1.8817113 32.613289,1.5111132 31.839174,1.4769 31.704614,1.47106 31.553109,1.465223 31.396032,1.465223 c -0.218757,0 -0.443142,0.00584 -0.645079,0.02277 l -0.12336,0.00584 -0.291683,4.1507381 0.12336,0.02277 c 0.415088,0.085591 0.8414,0.1426089 1.127476,0.1596573 0.06181,0.00584 0.117754,0.011677 0.179502,0.011677 l 0.03917,0 c 0.706782,0 1.35748,-0.370598 1.407971,-1.2201434 l -0.140293,-0.00584 0.140293,0.00584 c 0.0057,-0.028491 0.0057,-0.062704 0.0057,-0.091195 0,-0.4105218 -0.201926,-0.7297999 -0.516057,-0.9236577 m -2.911256,1.3512699 -0.140293,0.011677 -1.520162,0.1196872 -0.280471,-3.5292638 -0.779709,0.062704 0.336567,4.2533533 2.36717,-0.1824498 0.01149,-0.1196872 c 0.01677,-0.1026388 0.0224,-0.2052658 0.0224,-0.3078819 0,-0.0571 0,-0.1139659 -0.0057,-0.1653431 z M 19.683602,7.5092474 18.483187,4.9036412 c 0.196332,-0.1082436 0.4151,-0.216663 0.588996,-0.2964858 0.162671,-0.074147 0.325343,-0.1196871 0.49362,-0.1196871 0.353398,0 0.734837,0.1938469 1.09384,0.9692562 0.168289,0.3535033 0.246811,0.6670838 0.246811,0.9179591 -0.01149,0.4162193 -0.19632,0.6841904 -0.61142,0.8837468 -0.162672,0.079869 -0.4151,0.1824497 -0.611432,0.2508644 m -0.01677,-3.7744307 c -0.291683,0 -0.588984,0.074148 -0.880678,0.2109644 -0.330961,0.1539361 -0.886296,0.4447114 -1.183584,0.6385691 l -0.100982,0.062704 1.744526,3.7801282 0.123348,-0.039818 c 0.4151,-0.1253848 0.919955,-0.3307099 1.256511,-0.4846449 0.650697,-0.2964739 1.065797,-0.8723378 1.06018,-1.6192443 0,-0.370598 -0.09535,-0.7811188 -0.302896,-1.2258301 C 20.968147,4.1511415 20.345503,3.734934 19.666763,3.734934 m 5.564549,0.5530477 -0.757272,0.1767521 0.112123,-1.2429476 z m -0.488014,-2.1837 -0.05618,-0.085591 -0.695582,0.1596563 -0.01149,0.1026388 c -0.185105,1.4083044 -0.319734,2.8222819 -0.40949,4.150739 l -0.01149,0.1482365 0.145841,0.00584 c 0.02803,0 0.05055,0 0.07858,0 0.140305,0 0.280471,-0.017048 0.403888,-0.039818 l 0.106494,-0.017048 0.112125,-1.3398651 1.194796,-0.2793791 0.706794,1.1460192 0.106495,-0.028491 c 0.162672,-0.04554 0.336578,-0.1026398 0.48242,-0.1881601 l 0.128954,-0.068426 -0.07295,-0.1253858 C 26.268157,4.4935392 25.488448,3.244893 24.742399,2.1045842 M 54.281621,20.41229 c -0.11213,0.03982 -0.20755,0.0571 -0.29169,0.0571 -0.26365,-0.0058 -0.43193,-0.142597 -0.57216,-0.524544 l -0.12335,-0.359202 1.17798,-0.404799 c 0.0617,0.131072 0.12335,0.296474 0.16828,0.416207 0.0392,0.125374 0.0617,0.239468 0.0617,0.330699 -0.006,0.228059 -0.0897,0.364899 -0.42071,0.484633 m -1.4921,-0.193869 c -0.11775,0.245166 -0.37583,0.575876 -0.70117,0.906562 l -0.58339,0.610066 0.0337,0.07987 c 0.0617,0.165356 0.14586,0.359202 0.25804,0.507439 l 0.10098,0.142608 0.11213,-0.125385 0.66191,-0.701285 c 0.25802,-0.27368 0.45435,-0.541651 0.58338,-0.781119 0.22438,0.23377 0.52728,0.370598 0.86384,0.370598 0.14031,0 0.28609,-0.02277 0.43755,-0.07415 0.60021,-0.199557 0.86945,-0.649966 0.86385,-1.128913 0,-0.205243 -0.0448,-0.421906 -0.11775,-0.632859 -0.11213,-0.31929 -0.25243,-0.63858 -0.44316,-1.026296 l -0.0562,-0.108244 -3.99392,1.362682 0.25243,0.729799 1.58747,-0.541651 z m 2.19328,14.869672 c 0,0.09692 -0.0224,0.210976 -0.0562,0.336396 -0.14029,0.433326 -0.34218,0.621463 -0.84702,0.632883 -0.21878,0 -0.49924,-0.04554 -0.84141,-0.148249 -0.90313,-0.273681 -1.21164,-0.575864 -1.20603,-0.986374 0,-0.102639 0.0168,-0.210953 0.0506,-0.330687 0.15145,-0.467527 0.36462,-0.63287 0.84141,-0.644278 0.22438,0 0.51046,0.04554 0.85263,0.148248 0.93117,0.285078 1.20602,0.59296 1.20602,0.992061 m -0.99847,-1.778889 c -0.35339,-0.10836 -0.67874,-0.159633 -0.96483,-0.159633 -0.83019,-0.01168 -1.40236,0.45613 -1.62111,1.237249 -0.0562,0.188137 -0.0897,0.370587 -0.0897,0.553037 0,0.786817 0.57776,1.425386 1.69405,1.750386 0.36461,0.108361 0.69555,0.159645 0.98726,0.159645 l 0.028,0 c 0.81336,0 1.37991,-0.456118 1.59307,-1.220131 0.0618,-0.18816 0.0842,-0.37061 0.0842,-0.55306 0.006,-0.81532 -0.60583,-1.453889 -1.71088,-1.767493 M 43.988427,6.0330437 c 0.106494,-0.1139649 0.201949,-0.2508634 0.274864,-0.3819942 l 0.07295,-0.1253739 -0.123348,-0.068426 -2.445702,-1.3398651 -0.347791,0.6328813 0.92555,0.5074275 -1.716471,3.1073577 0.689952,0.3762966 1.710866,-3.107335 0.886296,0.4846222 z M 16.687355,7.8347387 16.047882,8.2794718 15.688878,7.0821336 z m -1.267723,-1.8473044 -0.07858,-0.062704 -0.588984,0.4105099 0.0224,0.096917 c 0.353408,1.3740784 0.751666,2.7424583 1.161159,4.0138978 l 0.03918,0.131212 0.140303,-0.03993 c 0.151448,-0.05126 0.308513,-0.136759 0.431918,-0.216663 l 0.09535,-0.0571 -0.392651,-1.2828471 1.009688,-0.7012852 1.082628,0.8039122 0.08421,-0.062821 c 0.13456,-0.1026398 0.274865,-0.2223498 0.381452,-0.3535033 l 0.09535,-0.1139659 -0.117753,-0.085474 C 17.725122,7.6522653 16.535931,6.774229 15.419643,5.9873997 M 55.908471,30.139211 c -0.006,0.228072 -0.0337,0.467528 -0.0562,0.655687 -0.073,0.496031 -0.28047,0.917936 -1.1836,0.929356 -0.11212,0 -0.23559,-0.0058 -0.3646,-0.02277 -0.97604,-0.125386 -1.35749,-0.478924 -1.3687,-1.083303 0,-0.05138 0.006,-0.108244 0.0115,-0.17103 0.0224,-0.18245 0.0673,-0.444734 0.10649,-0.644291 z m 0.73483,-0.695586 -4.13974,-0.496042 -0.0336,0.119687 c -0.11213,0.421929 -0.20194,0.957859 -0.24681,1.322759 -0.006,0.08547 -0.0115,0.171053 -0.0115,0.256586 -0.0115,0.963557 0.70679,1.72757 2.05305,1.881517 0.1403,0.01705 0.28047,0.02277 0.40949,0.02277 l 0.028,0 c 1.14994,0 1.76697,-0.718391 1.86794,-1.647747 0.0392,-0.336397 0.0729,-0.883747 0.0729,-1.242948 0,-0.0341 0,-0.06843 0,-0.09692 z M 50.916081,18.32559 c 0.28047,0 0.589,-0.08559 0.93117,-0.267971 l -0.0673,-0.125385 0.0673,0.125385 2.40644,-1.254356 -0.35339,-0.667072 -2.35597,1.231528 c -0.26363,0.142609 -0.47118,0.205255 -0.62825,0.205255 -0.22437,-0.0058 -0.37583,-0.113966 -0.56094,-0.456131 -0.10098,-0.188136 -0.14029,-0.336373 -0.14029,-0.456119 0,-0.222361 0.15146,-0.416207 0.61142,-0.655663 l 2.35597,-1.23154 -0.35901,-0.6899 -2.40645,1.254344 c -0.64507,0.330699 -0.97043,0.758315 -0.97043,1.260055 0,0.273669 0.0953,0.558746 0.25242,0.85522 0.26365,0.518846 0.66192,0.87235 1.21164,0.87235 z M 45.918083,9.3627285 c -0.454354,0.5758639 -0.813358,0.8039345 -1.116264,0.8039345 -0.16829,0 -0.342173,-0.07415 -0.544123,-0.2280706 C 43.999662,9.7276284 43.893087,9.533782 43.893087,9.3000242 43.887387,9.0263437 44.061365,8.6614433 44.431592,8.193905 44.891564,7.6123653 45.256173,7.3899928 45.54225,7.3899928 l 0.0057,0 c 0.173884,0 0.347791,0.074147 0.549717,0.2280592 0.246822,0.1995564 0.359003,0.3877165 0.359003,0.6328824 0,0.26797 -0.157054,0.6328705 -0.538504,1.1117941 m 1.307001,-1.03767 c 0,-0.4903435 -0.246822,-0.9236695 -0.67874,-1.2600424 -0.325343,-0.2565867 -0.678728,-0.3991127 -1.048968,-0.3991127 -0.594589,0.00584 -1.183584,0.359189 -1.716482,1.0376808 -0.437537,0.5416397 -0.656292,1.0490899 -0.656292,1.522304 0,0.4960422 0.252416,0.9293548 0.689951,1.2771488 0.319737,0.250876 0.673135,0.393426 1.04335,0.393426 l 0.0057,0 c 0.577771,0 1.155531,-0.342106 1.694036,-1.0262966 C 47.000875,9.317119 47.22526,8.8039821 47.22526,8.3250585 m 4.134131,3.6831875 -1.29016,1.043403 -0.981657,-1.208746 1.290167,-1.037671 -0.49362,-0.610065 -3.326399,2.691139 0.493632,0.604356 1.469673,-1.185919 0.981654,1.203025 -1.464063,1.18593 0.488027,0.610066 0.112123,-0.0912 3.214193,-2.594222 z M 11.04456,14.220461 c -0.207544,-0.131072 -0.415111,-0.18816 -0.622655,-0.18816 -0.785315,0.01705 -1.447225,0.764013 -1.851112,0.73551 -0.06181,0 -0.117753,-0.01705 -0.179502,-0.05138 -0.151447,-0.102639 -0.218756,-0.193847 -0.224374,-0.330687 0,-0.102639 0.0448,-0.250864 0.173884,-0.444722 0.128954,-0.199556 0.336579,-0.44471 0.510463,-0.604368 l 0.106494,-0.09119 -0.08972,-0.10264 C 8.761541,13.023134 8.609991,12.880549 8.497809,12.806437 l -0.09535,-0.06271 -0.07858,0.07415 c -0.190737,0.18245 -0.409493,0.461829 -0.54974,0.684178 -0.201927,0.307894 -0.314119,0.627184 -0.314119,0.935066 0,0.382006 0.185108,0.735498 0.544111,0.969268 0.179501,0.113964 0.370227,0.159633 0.555334,0.159633 0.751667,-0.01705 1.402353,-0.764001 1.851112,-0.735498 0.08972,0 0.162673,0.01705 0.241205,0.06843 0.173884,0.113965 0.235598,0.228071 0.235598,0.37632 0,0.108243 -0.0448,0.245154 -0.145841,0.404799 -0.179502,0.273681 -0.387058,0.50745 -0.661922,0.6899 l -0.134549,0.07987 0.100981,0.125374 c 0.07858,0.102639 0.207567,0.250876 0.33096,0.353503 l 0.07858,0.06843 0.08972,-0.0571 c 0.314132,-0.205237 0.588996,-0.547343 0.768498,-0.832421 0.201926,-0.302171 0.297301,-0.604356 0.297301,-0.889444 0.0057,-0.404811 -0.207556,-0.764001 -0.566559,-0.99777 m -7.460546,12.246947 0.151459,-0.02277 c 1.37431,-0.210964 2.78228,-0.49603 4.100495,-0.798225 l 0.09535,-0.02277 0.08409,-0.707006 -0.08409,-0.04554 C 6.719669,24.249589 5.429497,23.662328 4.133732,23.126375 l -0.140304,-0.0571 -0.05055,0.142609 c -0.05055,0.136758 -0.08421,0.330687 -0.10098,0.473214 l -0.01149,0.102639 2.9786,1.328457 -3.208592,0.587272 -0.01149,0.102639 c -0.01149,0.09692 -0.0224,0.23377 -0.0224,0.3649 0,0.05138 0,0.09692 0.0057,0.148237 z m 4.223911,0.957859 -0.145841,0 -4.134155,0.01705 0.0057,0.781119 4.279996,-0.02277 z m 0.274864,4.065217 -2.843982,0.37061 2.653245,-2.081073 -0.01149,-0.07987 c -0.01677,-0.142608 -0.06732,-0.330686 -0.112124,-0.45613 l -0.03355,-0.113965 -4.201463,0.547349 0.01677,0.136771 0.05618,0.444722 0.0224,0.142597 2.754238,-0.359202 -2.552289,2.001251 0.0057,0.08547 c 0.0224,0.148237 0.06732,0.3649 0.128954,0.530243 l 0.03917,0.108244 4.173409,-0.54164 z M 8.980286,20.70309 8.868162,20.65171 C 8.733614,20.58901 8.582085,20.526336 8.436244,20.492065 l -0.140304,-0.0341 -0.03354,0.131072 -0.431918,1.596439 -1.11067,-0.296474 0.33096,-1.220143 -0.701176,-0.18816 -0.330961,1.220143 -0.92555,-0.245165 0.4263,-1.585043 -0.106609,-0.05126 C 5.272483,19.756674 5.115487,19.699687 4.975241,19.665428 l -0.13455,-0.03982 -0.650686,2.394665 4.134144,1.106096 z m 45.318535,5.604627 1.21163,0.325 -1.17237,0.450421 z m -1.92964,-1.265741 -0.0335,0.136759 c -0.0337,0.148236 -0.0448,0.307893 -0.0448,0.450432 0,0.01168 0,0.02277 0,0.03982 l 0.006,0.102639 1.29577,0.347793 0.0673,1.220143 -1.25091,0.49603 0.006,0.102639 c 0.0115,0.17103 0.0448,0.35348 0.10098,0.513137 l 0.0448,0.136759 0.13455,-0.05138 c 1.25652,-0.473237 2.63083,-1.020587 3.88734,-1.55083 l 0.0953,-0.03982 -0.0392,-0.712693 -0.0953,-0.02849 c -1.36308,-0.427615 -2.73739,-0.803912 -4.03317,-1.128912 z m 3.09078,-2.166594 -3.49466,0.63287 0.13455,0.769711 3.50029,-0.63287 0.1795,0.986362 0.11212,0.0058 c 0.0392,0.0058 0.0842,0.0058 0.12335,0.0058 0.11775,0 0.24121,-0.01168 0.35341,-0.0341 l 0.14029,-0.02277 -0.028,-0.142457 -0.49363,-2.73105 -0.71239,0.131212 z M 6.276527,17.840909 c 0.0448,-0.142608 0.112124,-0.302183 0.162694,-0.416219 0.145842,-0.302184 0.291683,-0.427616 0.499228,-0.427616 0.08972,0 0.196331,0.02277 0.325342,0.07987 0.302907,0.142597 0.403876,0.302172 0.403876,0.524545 0,0.113966 -0.02803,0.250865 -0.10098,0.41051 l -0.162672,0.347793 z m 2.995442,-0.541663 c -0.375833,0.02277 -0.706793,0.07987 -0.95921,0.171054 0.0057,-0.473226 -0.263641,-0.900853 -0.734836,-1.111806 -0.207557,-0.09692 -0.409483,-0.142457 -0.600197,-0.142457 -0.555334,0 -0.936785,0.404811 -1.161159,0.900841 -0.140305,0.302195 -0.258046,0.632882 -0.387058,1.043392 l -0.03918,0.119687 3.836843,1.761783 0.319736,-0.701297 -1.525757,-0.695586 0.185096,-0.399113 c 0.252439,-0.0912 0.667528,-0.153947 1.138712,-0.171054 l 0.841423,-0.03421 0.03366,-0.08547 c 0.06732,-0.159633 0.140293,-0.35919 0.168289,-0.54164 l 0.0224,-0.171053 -0.173896,0.0058 z M 7.577923,33.463174 c -0.213152,0 -0.448761,0.04005 -0.706783,0.119687 l -2.591555,0.815332 0.229992,0.718403 2.535883,-0.798973 c 0.218757,-0.06843 0.392663,-0.102639 0.527292,-0.102639 0.314119,0.01168 0.448749,0.131072 0.600208,0.558747 0.05055,0.148237 0.06732,0.26797 0.06732,0.364899 -0.0057,0.296486 -0.162671,0.461829 -0.729218,0.649977 l -2.535471,0.798226 0.23561,0.741197 2.585949,-0.815322 c 0.807751,-0.239467 1.206021,-0.701284 1.200415,-1.305652 0,-0.205266 -0.0448,-0.421929 -0.117753,-0.649988 -0.190715,-0.644267 -0.617027,-1.100386 -1.301384,-1.0947 M 13.586131,12.007405 11.561123,9.9662554 c 0.151459,-0.171041 0.325343,-0.342095 0.459972,-0.4789353 0.196332,-0.1938469 0.426324,-0.3306872 0.701187,-0.3306872 0.280471,0 0.633857,0.142609 1.07701,0.5872615 0.420695,0.4219176 0.61142,0.8039116 0.605814,1.1232016 0,0.245166 -0.100981,0.467539 -0.33096,0.701297 -0.128955,0.125373 -0.330962,0.302172 -0.488015,0.439012 M 12.817634,8.3698274 c -0.48242,0 -0.925551,0.2280592 -1.290172,0.5929586 -0.26364,0.256563 -0.684346,0.71838 -0.897507,0.9977714 l -0.07858,0.09692 2.939335,2.959098 0.09535,-0.07415 c 0.347791,-0.262272 0.757273,-0.627172 1.015307,-0.883745 0.359003,-0.353493 0.566546,-0.786808 0.566546,-1.254334 0,-0.547351 -0.269246,-1.1232029 -0.82458,-1.6819611 C 13.832872,8.6092363 13.316815,8.369781 12.817565,8.369781 m -3.231029,2.748145 -0.482408,0.610065 3.354434,2.651216 0.488026,-0.610053 -0.112124,-0.0912 z"
       id="path1052"
       style="fill:#000000;fill-opacity:1;fill-rule:nonzero;stroke:none" />
    <path
       d="m 38.56951,20.882915 c 0,0.4733 0.49211,0.8553 1.10725,0.8553 0.60954,0 1.11284,-0.382 1.11284,-0.8553 0,-0.4732 -0.5033,-0.8552 -1.11284,-0.8552 -0.61514,0 -1.10725,0.382 -1.10725,0.8552 m 2.58917,-1.9556 0.22927,0 c 0.006,-0.114 0.0671,-0.2109 0.0671,-0.325 0,-0.1197 -0.62073,-0.6442 -0.72698,-0.7184 -0.34112,0.1939 -0.66546,0.4333 -0.98423,0.6842 l 0,0.2224 c 0.35232,-0.097 0.56483,-0.1426 0.727,-0.1426 0.22926,0 0.25164,-0.051 0.68783,0.2793 m -2.96385,1.1119 -0.61513,0 c -0.26842,0.439 -0.52566,0.8723 -0.83882,1.3227 0.40822,0.012 0.6319,-0.04 0.78848,-0.04 0.16218,0 0.30757,0.1483 0.46416,0.1939 0.0167,-0.074 0.0783,-0.114 0.0783,-0.114 -0.0616,-0.2965 -0.12298,-0.5302 -0.12298,-0.65 0,-0.1197 0.12298,-0.3991 0.24605,-0.7127 m 1.33654,-1.471 c -0.31876,-0.2508 -0.6431,-0.4903 -0.97864,-0.6841 -0.10617,0.074 -0.73257,0.5986 -0.73257,0.7183 0,0.114 0.0616,0.211 0.0671,0.325 l 0.22928,0 c 0.43618,-0.3307 0.45856,-0.2793 0.69342,-0.2793 0.15659,0 0.36909,0.046 0.72139,0.1425 z m 0.11739,-7.474701 c 0.31874,0 0.58158,-0.1653 0.58158,-0.3763 0,-0.2052 -0.26284,-0.3763 -0.58158,-0.3763 -0.32434,0 -0.58158,0.1711 -0.58158,0.3763 0,0.211 0.25724,0.3763 0.58158,0.3763 m 0,1.767501 c 0.31874,0 0.58158,-0.1654 0.58158,-0.3763 0,-0.2053 -0.26284,-0.3706 -0.58158,-0.3706 -0.32434,0 -0.58158,0.1653 -0.58158,0.3706 0,0.2109 0.25724,0.3763 0.58158,0.3763 m 0,1.7618 c 0.31874,0 0.58158,-0.1654 0.58158,-0.3706 0,-0.2053 -0.26284,-0.3706 -0.58158,-0.3706 -0.32434,0 -0.58158,0.1653 -0.58158,0.3706 0,0.2052 0.25724,0.3706 0.58158,0.3706 m 0.58159,1.4025 c 0,-0.2052 -0.26284,-0.3706 -0.58158,-0.3706 -0.32434,0 -0.58158,0.1654 -0.58158,0.3706 0,0.211 0.25724,0.3763 0.58158,0.3763 0.31874,0 0.58158,-0.1653 0.58158,-0.3763 m 1.86779,0.9522 c 0,-0.6443 -0.80527,-0.3022 -1.17436,-0.3991 -0.27401,-0.08 -0.19014,-0.325 -0.30756,-0.5017 -0.0167,-0.034 -0.0223,-0.068 -0.0223,-0.1084 0.006,0.034 0.006,0.068 0.006,0.1026 0,0.5474 -0.69902,0.5189 -0.76055,0.804 l 0.11178,0 c 0.15658,0.01 0.32434,-0.1882 0.48652,-0.1882 0.53125,0 0.65988,0.5816 0.72698,0.7526 0.0447,0.051 0.13413,0.1084 0.29637,0.1084 0.45857,0 0.63752,-0.4733 0.63752,-0.5702 m -0.35231,4.3446 c 0.15658,0 0.38028,0.051 0.79409,0.04 -0.31875,-0.4504 -0.57598,-0.8837 -0.84441,-1.3228 l -0.61514,0 c 0.12297,0.3136 0.25164,0.593 0.25164,0.7127 0,0.1197 -0.0671,0.3535 -0.12856,0.65 0,0 0.0616,0.04 0.0783,0.114 0.1566,-0.045 0.30199,-0.1939 0.46416,-0.1939 m 8.639891,6.6937 c 0,0.5929 -0.47534,1.0661 -1.068121,1.0661 -0.10617,0 -0.20131,0 -0.30196,-0.034 0,0.593 -0.47534,1.0605 -1.06811,1.0605 -0.59277,0 -1.0681,-0.4789 -1.0681,-1.0661 0,-0.068 0.006,-0.1368 0.0167,-0.1996 l -15.93764,-0.017 0.006,15.8617 0.0615,-0.017 c 0.0783,-0.012 0.0727,-0.017 0.17335,-0.017 0.59278,0 1.07369,0.479 1.07369,1.0662 0,0.593 -0.48091,1.0947 -1.07369,1.0947 0.0279,0.086 0.0447,0.1768 0.0447,0.268 0,0.593 -0.48092,1.0719 -1.0681,1.0719 -0.59276,0 -1.07369,-0.4789 -1.07369,-1.0719 0,-0.1026 0.006,-0.1939 0.0334,-0.2965 -0.59276,0 -1.06252,-0.4732 -1.06252,-1.0662 0,-0.5872 0.48093,-1.0662 1.07369,-1.0662 0.0671,0 0.20692,0 0.27403,0.012 l -0.0114,-15.8389 -16.01593,0.01 c 0.028,0.091 0.0447,0.1939 0.0447,0.2965 0,0.5872 -0.48093,1.0662 -1.0737,1.0662 -0.58718,0 -1.09606,-0.479 -1.09606,-1.0662 -0.084,0.023 -0.17895,0.04 -0.27403,0.04 -0.58716,0 -1.06809,-0.4733 -1.06809,-1.0662 0,-0.5873 0.48093,-1.0662 1.06809,-1.0662 0.11178,0 0.20133,0.01 0.30199,0.034 0,-0.5873 0.48092,-1.0548 1.0681,-1.0548 0.59277,0 1.0737,0.4732 1.0737,1.0605 0,0.074 -0.0115,0.1426 -0.0223,0.1995 l 15.9768,0.01 -0.006,-15.924401 c -0.0894,0.023 -0.19573,0.04 -0.29637,0.04 -0.58719,0 -1.06812,-0.4789 -1.06812,-1.0662 0,-0.5928996 0.47535,-1.0946995 1.06812,-1.0946995 -0.0223,-0.086 -0.0391,-0.1767 -0.0391,-0.2737 0,-0.5872 0.48092,-1.0662 1.0681,-1.0662 0.59277,0 1.0737,0.479 1.0737,1.0662 0,0.114 -0.006,0.2053 -0.039,0.3022 0.59278,0 1.06251,0.4732999 1.06251,1.0661995 0,0.5873 -0.47533,1.0662 -1.06809,1.0662 -0.0671,0 -0.13415,-0.012 -0.20133,-0.017 l 0.0114,15.901601 15.95442,0.01 c -0.0223,-0.091 -0.0334,-0.1938 -0.0334,-0.2908 0,-0.5929 0.47533,-1.0661 1.06809,-1.0661 0.59278,0 1.09607,0.4732 1.09607,1.0605 0.0894,-0.023 0.17895,-0.04 0.27401,-0.04 0.592781,0 1.068121,0.4789 1.068121,1.0662 m -5.866181,-8.6721 c 0,0.1881 0.11739,0.6101 0.11739,0.6101 0.16777,0.5302 0.45857,1.0718 0.45857,1.3968 0,0.1197 -0.0671,0.382 -0.084,0.5189 -0.11178,0.1139 -0.36908,0.2737 -0.46974,0.4447 -0.0951,0.1767 -0.0783,0.3763 -0.039,0.5131 0.18455,0.5759 -1.06809,0.9579 -1.06809,1.4596 0,0.1197 0.19573,0.4562 0.19573,0.5759 0,0.1197 -0.22929,0.4561 -0.3635,0.7013 -0.11178,0.2166 0.0334,0.593 -0.425,0.8267 l -1.43159,0 c -0.13414,-0.1026 -0.20691,-0.1424 -0.20691,-0.2623 0,-0.3934 0.4306,-0.6442 1.04014,-0.5644 0.24046,-0.2167 0.49211,-0.5816 0.49211,-0.7013 0,-0.1197 -0.45297,-0.7184 -0.45297,-0.8324 0,-0.1254 0.77171,-0.9579 0.77171,-1.0776 0,-0.1197 -0.17335,-0.2452 -0.29078,-0.2908 -0.54245,0.1881 0.0894,0.7184 -0.69902,0.7184 -0.39706,0 -1.02896,-0.5246 -1.17994,-0.5246 -0.11178,0 -0.48651,0.5132 -1.14081,0.6044 l 0,0.017 -0.0114,0 c -0.0279,0 -0.0615,-0.01 -0.0951,-0.01 -0.0334,0 -0.0615,0.01 -0.0951,0.01 l -0.0114,0 0,-0.017 c -0.65428,-0.091 -1.02896,-0.6044 -1.13522,-0.6044 -0.15658,0 -0.78291,0.5246 -1.18554,0.5246 -0.78848,0 -0.15657,-0.5303 -0.69902,-0.7184 -0.11739,0.045 -0.29078,0.171 -0.29078,0.2908 0,0.1197 0.77172,0.9521 0.77172,1.0776 0,0.1139 -0.44738,0.7127 -0.44738,0.8324 0,0.1197 0.24046,0.4846 0.48651,0.7013 0.60955,-0.08 1.04015,0.171 1.04015,0.5644 0,0.1197 -0.0727,0.1597 -0.20692,0.2623 l -1.42599,0 c -0.46415,-0.2337 -0.31316,-0.6101 -0.4306,-0.8267 -0.13413,-0.2452 -0.35789,-0.5816 -0.35789,-0.7013 0,-0.1197 0.19012,-0.4561 0.19012,-0.5759 0,-0.5017 -1.25264,-0.8837 -1.06809,-1.4596 0.0391,-0.1367 0.056,-0.3364 -0.0391,-0.5131 -0.0951,-0.171 -0.3579,-0.3307 -0.46974,-0.4447 -0.0223,-0.1368 -0.0839,-0.3991 -0.0839,-0.5189 0,-0.325 0.29639,-0.8666 0.45856,-1.3968 0,0 0.11739,-0.422 0.11739,-0.6101 0,-0.1254 -0.31876,-0.9294 -0.30756,-1.0491 l 0,-0.3592 c 0.79407,0.3079 1.19113,1.414 1.20231,2.0126 l 0,0.017 c 0,0.1197 -0.5145,1.1233 -0.5145,1.243 0,0.1139 -0.006,0.171 0.0951,0.2623 0.62633,-0.8496 0.55363,-0.9351 0.54804,-1.5166 0,0 -0.006,-0.046 -0.006,-0.063 0,-0.9009 -0.50889,-2.1609 -0.50889,-2.6057 0,-0.4618 0.50329,-1.5052 1.07369,-1.8359 0.2852,-0.1653 0.22369,-0.6214 0.74376,-0.6214 0.15657,0 0.89474,0.3877 1.39803,0.61 0.0336,0.029 0.30199,0.3136 0.17895,0.6386 -0.11739,0.1768 -0.0334,0.4219 -0.30756,0.5018 -0.36908,0.097 -1.16877,-0.2452 -1.16877,0.399 0,0.097 0.17336,0.5702 0.63751,0.5702 0.15658,0 0.24606,-0.057 0.2908,-0.1082 0.0671,-0.1711 0.19572,-0.7527 0.72697,-0.7527 0.16217,0 0.32994,0.1939 0.48652,0.1882 l 0.11178,0 c -0.0671,-0.268 -0.76053,-0.2566 -0.76053,-0.7982 0,-0.5873 0.82764,-0.593 0.83323,-0.9351 -0.006,-0.3421 -0.83323,-0.3535 -0.83323,-0.9407 0,-0.5588 0.75494,-0.5246 0.76613,-0.8324 -0.0114,-0.3022 -0.76613,-0.268 -0.76613,-0.8325 0,-0.5815 0.82206,-0.5929 0.83323,-0.935 -0.0114,-0.336401 -0.83323,-0.342101 -0.83323,-0.935101 0.49783,-0.9736996 1.8311,-0.4878 1.92372,0.012 0.0727,0.5759 -0.76053,0.5873 -0.77171,0.923701 0.0114,0.342 0.77171,0.3535 0.77171,0.935 0,0.5645 -0.75493,0.5132 -0.77171,0.8324 0.0167,0.325 0.77171,0.2737 0.77171,0.8382 0,0.5815 -0.76613,0.5929 -0.77171,0.935 0.006,0.3193 0.67105,0.3478 0.76053,0.8153 -0.0279,-0.2736 0.17895,-0.4903 0.2069,-0.5188 0.5033,-0.2224 1.24705,-0.6101 1.39804,-0.6101 0.52567,0 0.45856,0.4562 0.74375,0.6215 0.57601,0.3307 1.0737,1.3741 1.0737,1.8359 0,0.4447 -0.51447,1.7048 -0.51447,2.6056 l 0,0.063 c 0,0.5816 -0.0727,0.6671 0.55362,1.5166 0.10067,-0.091 0.0894,-0.1482 0.0894,-0.2623 0,-0.1196 -0.50889,-1.1232 -0.50889,-1.2429 l 0,-0.017 c 0.006,-0.5987 0.40265,-1.7048 1.20231,-2.0126 l 0,0.3592 c 0.0114,0.1197 -0.31315,0.9236 -0.31315,1.0491 M 27.99991,10.920014 c 0.27401,0.5302 0.68784,0.547301 0.68784,0.547301 l 0.0839,0.1711 0,4.7095 -3.67964,-7.4862005 c 0.69902,-0.1539 1.34771,-0.3877 2.0747,-0.4675 -0.006,0 0.2069,0.3934 0.76052,1.5279999 0,0 -0.2069,0.4732996 0.0727,0.9977996 m -4.15497,-1.7275995 4.92668,10.0519005 0,4.7094 -6.83919,-13.940301 c 0.63751,-0.2621996 1.24147,-0.6213995 1.91252,-0.8209995 m -3.08687,1.3113995 7.96324,16.255101 -0.12856,0.063 -2.1418,0 -7.44876,-15.1889 c 0.58718,-0.364901 1.13521,-0.826801 1.75595,-1.128901 m -2.82964,1.853001 7.09645,14.4648 -2.30396,0 -6.37505,-13.0395 c 0.52564,-0.4732 1.00658,-1.0091 1.58256,-1.4253 m 3.36648,14.4648 -2.30396,0 -5.04413,-10.2856 c 0.45856,-0.593 0.91712,-1.2772 1.44278,-1.8131 z m -8.14777,-9.037 4.42339,9.037 -2.30956,0 -3.32733,-6.7677 c 0.37468,-0.7527 0.74936,-1.5794 1.2135,-2.2693 m -1.81745,3.9626 2.51089,5.0744 -0.2964,-0.012 c 0,0 -0.11739,-0.7583 -0.96744,-0.8894 -0.85001,-0.1311 -1.23027,0.496 -1.23027,0.496 l -0.79969,-1.6591 c 0.22929,-0.9921 0.41384,-2.0868 0.78291,-3.0105 m 2.18095,15.8219 c 0.2069,-0.029 0.46973,-0.034 0.54802,-0.068 0.12298,-0.051 0.21251,-0.091 0.425,-0.1483 0.20692,-0.057 0.51448,-0.034 0.75496,-0.091 0.24046,-0.063 0.29637,-0.1424 0.51446,-0.1881 0.21251,-0.04 0.27962,0.017 0.48093,-0.057 0.20132,-0.068 0.25725,-0.1197 0.25725,-0.1197 0,0 -0.37468,-0.1996 -0.48654,-0.2452 -0.11739,-0.04 -0.45854,-0.085 -0.69901,-0.1767 -0.24047,-0.086 -0.43059,-0.2509 -0.60394,-0.2965 -0.17337,-0.045 -0.39146,-0.045 -0.61515,-0.1254 -0.22368,-0.074 -0.45297,-0.1482 -0.45297,-0.1482 -0.0839,-0.023 -0.11739,-0.1084 -0.0223,-0.1027 0.21251,0.017 0.47533,0.068 0.55362,0.057 0.13415,-0.023 0.23488,-0.045 0.44738,-0.057 0.21809,-0.01 0.51447,0.086 0.76053,0.08 0.24605,0 0.31874,-0.074 0.54243,-0.063 0.2181,0.01 0.26843,0.074 0.48093,0.051 0.21251,-0.023 0.27961,-0.057 0.27961,-0.057 0,0 -0.31316,-0.2907 -0.41382,-0.3592 -0.10067,-0.074 -0.41941,-0.2052 -0.62632,-0.3535 -0.20691,-0.1482 -0.35231,-0.3535 -0.50329,-0.4447 -0.15659,-0.085 -0.36909,-0.1426 -0.56481,-0.2737 -0.19573,-0.1312 -0.39705,-0.2622 -0.39705,-0.2622 -0.0783,-0.046 -0.0894,-0.1311 0.006,-0.1083 0.20132,0.068 0.43619,0.1882 0.52007,0.1939 0.13414,0.017 0.23486,0.023 0.44737,0.068 0.21251,0.051 0.46974,0.2109 0.71022,0.2736 0.24045,0.063 0.32992,0.012 0.54242,0.074 0.20691,0.068 0.24046,0.1426 0.44738,0.1768 0.21251,0.034 0.2908,0.012 0.2908,0.012 0,0 -0.23489,-0.3478 -0.31877,-0.439 -0.0839,-0.097 -0.36349,-0.2965 -0.53685,-0.4847 -0.16776,-0.1881 -0.25724,-0.4219 -0.38585,-0.5416 -0.13414,-0.1254 -0.32434,-0.2281 -0.48651,-0.4048 -0.16219,-0.1711 -0.32995,-0.3421 -0.32995,-0.3421 -0.0615,-0.057 -0.056,-0.1483 0.028,-0.097 0.17895,0.1083 0.38586,0.2794 0.46415,0.3022 0.12856,0.045 0.22369,0.068 0.41942,0.171 0.19571,0.091 0.40822,0.3079 0.6319,0.4219 0.21811,0.114 0.31876,0.085 0.50889,0.1939 0.19013,0.1083 0.20133,0.1938 0.39703,0.2737 0.20133,0.074 0.26284,0.051 0.26284,0.051 0,0 -0.14539,-0.3535 -0.2069,-0.4619 -0.0616,-0.1083 -0.30198,-0.3535 -0.43059,-0.5758 -0.12856,-0.2167 -0.17337,-0.4618 -0.27962,-0.6101 -0.10617,-0.1426 -0.27401,-0.2794 -0.40264,-0.4789 -0.12297,-0.1996 -0.25723,-0.3991 -0.25723,-0.3991 -0.0504,-0.074 -0.0223,-0.154 0.0504,-0.097 0.15099,0.1482 0.32434,0.3478 0.39706,0.3877 0.11739,0.068 0.2069,0.1139 0.38026,0.2451 0.17335,0.1313 0.34112,0.3878 0.53685,0.536 0.19573,0.1539 0.30197,0.1482 0.46414,0.2851 0.16217,0.1482 0.15657,0.2337 0.34112,0.3478 0.17895,0.1139 0.25724,0.1253 0.25724,0.1253 0,0 -0.0727,-0.4162 -0.11178,-0.5302 -0.0334,-0.1197 -0.21248,-0.4162 -0.29078,-0.6614 -0.0727,-0.2395 -0.0616,-0.4903 -0.13413,-0.6557 -0.0727,-0.1653 -0.20691,-0.3307 -0.27961,-0.5587 -0.0783,-0.2224 -0.16218,-0.4447 -0.16218,-0.4447 l 0.0727,-0.08 c 0.11178,0.171 0.23486,0.4105 0.29079,0.4618 0.10616,0.097 0.17894,0.1596 0.31875,0.325 0.13987,0.1653 0.25165,0.4504 0.40264,0.6443 0.15657,0.1881 0.25723,0.2052 0.39143,0.382 0.12856,0.1767 0.10067,0.2622 0.25167,0.4105 0.15098,0.1539 0.22368,0.1824 0.22368,0.1824 0,0 0.0334,-0.4219 0.0279,-0.5416 -0.006,-0.1254 -0.10067,-0.4562 -0.11178,-0.7127 -0.0114,-0.2509 0.0671,-0.4904 0.0391,-0.6671 -0.0223,-0.1767 -0.10067,-0.3763 -0.12297,-0.6158 -0.0783,-0.8267 0.2125,-0.01 0.2125,-0.01 0.0727,0.1197 0.12856,0.1996 0.22369,0.3934 0.0894,0.1939 0.12298,0.5018 0.21809,0.7298 0.10067,0.2224 0.19573,0.2623 0.2796,0.4675 0.0727,0.2053 0.0334,0.2794 0.13414,0.4619 0.10628,0.1881 0.16777,0.2337 0.16777,0.2337 0,0 0.13414,-0.3991 0.15657,-0.5188 0.0223,-0.1254 0.006,-0.4675 0.0504,-0.7184 0.0504,-0.2452 0.17895,-0.4618 0.19013,-0.6443 0.0167,-0.1767 -0.0223,-0.3877 0.0167,-0.6214 0.12298,-0.7013 0.21251,0.04 0.21251,0.04 0.0447,0.131 0.0783,0.2223 0.12298,0.4333 0.0504,0.2109 0.0114,0.5131 0.056,0.7583 0.0447,0.2395 0.13413,0.3022 0.16217,0.5188 0.0279,0.2167 -0.0279,0.2737 0.0279,0.479 0.0616,0.2052 0.10616,0.2679 0.10616,0.2679 0,0 0.21809,-0.3649 0.26842,-0.4789 0.0504,-0.1084 0.10617,-0.4504 0.20133,-0.6842 0.0951,-0.2337 0.26283,-0.4162 0.31316,-0.5872 0.056,-0.1711 0.10067,-0.3763 0.15097,-0.6044 0.12856,-0.6386 0.19573,0.08 0.19573,0.08 0.0167,0.1368 0.0334,0.2338 0.0334,0.4504 0,0.2167 -0.10067,0.5018 -0.10616,0.7469 -0.006,0.2452 0.0616,0.325 0.0504,0.5417 -0.0167,0.2166 -0.0894,0.2622 -0.0727,0.4732 0.0167,0.211 0.0504,0.2794 0.0504,0.2794 0,0 0.30198,-0.2965 0.37467,-0.3934 0.0727,-0.097 0.2181,-0.4105 0.36908,-0.6158 0.15659,-0.1995 0.3691,-0.3307 0.46415,-0.4846 0.0894,-0.1483 0.15659,-0.3535 0.29639,-0.5417 0.13986,-0.1938 0.27402,-0.3877 0.27402,-0.3877 l 0.10616,0.012 c -0.0783,0.1939 -0.20132,0.4276 -0.2125,0.5018 -0.0167,0.1367 -0.0279,0.2337 -0.0839,0.4447 -0.056,0.2052 -0.22929,0.4561 -0.29639,0.6956 -0.0727,0.2337 -0.0223,0.325 -0.0951,0.5302 -0.0727,0.2053 -0.15099,0.2338 -0.19012,0.4447 -0.039,0.2053 -0.0223,0.2851 -0.0223,0.2851 0,0 0.35789,-0.2223 0.45296,-0.3022 0.0951,-0.08 0.30757,-0.3478 0.50329,-0.5131 0.19013,-0.1597 0.4306,-0.2395 0.55363,-0.3649 0.12856,-0.1311 0.23487,-0.3136 0.41382,-0.4675 0.17895,-0.154 0.3579,-0.3193 0.3579,-0.3193 0.0616,-0.057 0.15098,-0.046 0.10067,0.04 -0.12298,0.171 -0.29639,0.3706 -0.32434,0.4447 -0.0447,0.1254 -0.0783,0.2167 -0.17895,0.4105 -0.10067,0.1939 -0.32434,0.3991 -0.44738,0.6101 -0.11739,0.2166 -0.0951,0.3136 -0.21251,0.5017 -0.11177,0.1825 -0.2013,0.1882 -0.28518,0.382 -0.0839,0.1996 -0.0894,0.2794 -0.0894,0.2794 0,0 0.4194,-0.1482 0.53125,-0.1996 0.11178,-0.051 0.38585,-0.2679 0.61513,-0.382 0.22928,-0.1082 0.48093,-0.131 0.63191,-0.2223 0.15659,-0.097 0.30199,-0.2452 0.52007,-0.3535 0.20693,-0.1084 0.41942,-0.2224 0.41942,-0.2224 0.0783,-0.045 0.15658,-0.012 0.0894,0.057 -0.15658,0.1426 -0.37468,0.2908 -0.41942,0.3592 -0.0783,0.114 -0.13414,0.1939 -0.2796,0.3592 -0.14539,0.1597 -0.41382,0.3079 -0.58159,0.4847 -0.17335,0.1767 -0.17335,0.285 -0.32993,0.4333 -0.15658,0.1539 -0.24047,0.1367 -0.37468,0.3079 -0.12855,0.171 -0.15098,0.2451 -0.15098,0.2451 0,0 0.425,-0.034 0.54803,-0.063 0.11739,-0.023 0.4306,-0.1767 0.67665,-0.2337 0.25165,-0.051 0.5033,-0.017 0.67105,-0.074 0.16777,-0.057 0.35232,-0.1711 0.58718,-0.2281 0.22928,-0.057 0.45856,-0.1197 0.45856,-0.1197 l 0.0727,0.074 c -0.18453,0.1027 -0.43059,0.1996 -0.49212,0.2566 -0.10067,0.086 -0.16775,0.1596 -0.34669,0.2851 -0.17895,0.1253 -0.47534,0.2052 -0.68226,0.3421 -0.20691,0.1367 -0.22369,0.2394 -0.41382,0.3534 -0.19012,0.1084 -0.26841,0.08 -0.43619,0.211 -0.16776,0.1368 -0.20131,0.2053 -0.20131,0.2053 0,0 0.41942,0.068 0.54245,0.08 0.12298,0 0.46413,-0.063 0.72138,-0.051 0.25164,0.012 0.48092,0.1082 0.65987,0.097 0.18455,-0.01 0.39146,-0.04 0.62633,-0.068 0.13413,-0.012 0.18454,0.1482 0.10617,0.228 -0.0783,0.08 -0.53127,0.1711 -0.53127,0.1711 -0.20131,0.074 -0.50887,0.08 -0.74375,0.1596 -0.23488,0.074 -0.28521,0.1711 -0.49212,0.2281 -0.21249,0.063 -0.2796,0.012 -0.47533,0.097 -0.19573,0.091 -0.25164,0.1482 -0.25164,0.1482 0,0 0.39145,0.1597 0.50889,0.1939 0.11739,0.04 0.46414,0.051 0.7102,0.1196 0.24606,0.063 0.45296,0.211 0.63191,0.2395 0.17335,0.034 0.39146,0.012 0.62073,0.074 0,0 0.3579,0.211 -0.50329,0.2908 -0.2181,0.023 -0.51447,-0.034 -0.76053,-0.012 -0.24605,0.023 -0.31877,0.1026 -0.53685,0.114 -0.21809,0.012 -0.27403,-0.051 -0.48093,-0.012 -0.2125,0.04 -0.24606,0.097 -0.24606,0.097 0,0 0.31317,0.2166 0.425,0.2736 0.11178,0.051 0.44738,0.1368 0.67667,0.2452 0.22368,0.114 0.39703,0.2965 0.5648,0.3592 0.16777,0.063 0.38028,0.097 0.59836,0.1882 0.43619,0.1881 -0.0951,0.1938 -0.0951,0.1938 -0.13986,0.01 -0.23486,0.017 -0.45296,0 -0.2181,-0.017 -0.4977,-0.1367 -0.74375,-0.1596 -0.24606,-0.023 -0.32994,0.045 -0.54805,0.012 -0.21808,-0.029 -0.26281,-0.1083 -0.47532,-0.1027 -0.21251,0 -0.28521,0.034 -0.28521,0.034 0,0 0.2908,0.3079 0.38586,0.3877 0.0114,0.012 0.0336,0.023 0.056,0.04 0.13414,0.086 0.38026,0.2167 0.54243,0.3535 0.20133,0.1597 0.32436,0.3763 0.47534,0.4789 0.15098,0.097 0.35231,0.1654 0.54243,0.3136 0.18455,0.1426 0.38028,0.2908 0.38028,0.2908 l -0.0167,0.1027 c -0.19573,-0.08 -0.42501,-0.2167 -0.5033,-0.2281 -0.13415,-0.023 -0.23487,-0.04 -0.44178,-0.1027 -0.21251,-0.063 -0.45855,-0.2394 -0.69342,-0.3192 -0.22928,-0.08 -0.32435,-0.034 -0.53127,-0.114 -0.2069,-0.08 -0.22926,-0.1597 -0.44176,-0.2053 -0.20692,-0.045 -0.28521,-0.034 -0.28521,-0.034 0,0 0.20691,0.3706 0.27961,0.4733 0.0671,0.1026 0.32994,0.3307 0.48092,0.5359 0.14539,0.2053 0.21251,0.4504 0.32994,0.5816 0.11739,0.1367 0.29639,0.2565 0.44178,0.4447 0.13986,0.1939 0.2908,0.382 0.2908,0.382 0.056,0.063 0.0334,0.1482 -0.0447,0.097 -0.16218,-0.1311 -0.35231,-0.325 -0.42501,-0.3535 -0.12297,-0.057 -0.21809,-0.097 -0.40264,-0.211 -0.18454,-0.1139 -0.37467,-0.3535 -0.58158,-0.4846 -0.20692,-0.1368 -0.31316,-0.1197 -0.48651,-0.2509 -0.17895,-0.1253 -0.17895,-0.2166 -0.36909,-0.3078 -0.19014,-0.1027 -0.26842,-0.1083 -0.26842,-0.1083 0,0 0.10617,0.4105 0.15657,0.5245 0.0447,0.114 0.24607,0.3935 0.34672,0.6272 0.0951,0.2338 0.10617,0.4847 0.19013,0.6443 0.0839,0.154 0.23487,0.3136 0.32994,0.5303 0.0951,0.2166 0.19573,0.4333 0.19573,0.4333 0.0447,0.08 0.006,0.1539 -0.0616,0.086 -0.12856,-0.1654 -0.26843,-0.3934 -0.33554,-0.4391 -0.10617,-0.086 -0.18453,-0.1426 -0.34112,-0.2964 -0.15657,-0.1483 -0.2852,-0.4277 -0.45855,-0.6044 -0.16777,-0.1768 -0.27403,-0.1825 -0.41942,-0.3478 -0.14539,-0.1653 -0.12856,-0.2509 -0.29078,-0.3877 -0.16217,-0.1368 -0.18454,-0.1254 -0.18454,-0.1254 0,0 0.0114,0.3877 0.0334,0.5074 0.0167,0.1197 0.15098,0.4391 0.19573,0.6899 0.0391,0.2452 -0.0114,0.4904 0.0391,0.6614 0.0447,0.1768 0.15658,0.3592 0.20131,0.593 0.0447,0.2337 0.0951,0.4675 0.0951,0.4675 0.0223,0.08 -0.0336,0.1482 -0.0839,0.063 -0.0894,-0.1824 -0.17336,-0.4333 -0.22368,-0.496 -0.0839,-0.1084 -0.151,-0.1825 -0.26842,-0.3592 -0.11178,-0.1882 -0.17895,-0.4847 -0.30759,-0.6956 -0.12297,-0.211 -0.22367,-0.2395 -0.32992,-0.4276 -0.10067,-0.1939 -0.0616,-0.2737 -0.19015,-0.4391 -0.12855,-0.171 -0.1957,-0.2166 -0.1957,-0.2166 0,0 -0.084,0.4162 -0.0894,0.5359 -0.006,0.1197 0.0504,0.4619 0.0391,0.7184 -0.0167,0.2452 -0.11739,0.479 -0.11178,0.6557 0.006,0.1768 0.0727,0.382 0.0616,0.6158 -0.0114,0.2394 -0.0114,0.4732 -0.0114,0.4732 0,0.091 -0.0671,0.1426 -0.0951,0.051 -0.0447,-0.2052 -0.0727,-0.4675 -0.10628,-0.5359 -0.0615,-0.1197 -0.11178,-0.211 -0.17895,-0.4106 -0.0727,-0.2052 -0.0727,-0.5131 -0.14542,-0.7469 -0.0782,-0.228 -0.1677,-0.285 -0.22362,-0.4903 -0.056,-0.2109 -0.006,-0.2794 -0.0839,-0.4732 -0.0894,-0.1939 -0.14539,-0.2509 -0.14539,-0.2509 0,0 -0.18455,0.382 -0.2237,0.4961 -0.0391,0.1197 -0.0727,0.4618 -0.15098,0.7013 -0.0783,0.2394 -0.23487,0.4276 -0.27403,0.6043 -0.0391,0.1768 -0.0336,0.3877 -0.10067,0.6158 -0.0727,0.228 -0.13986,0.4561 -0.13986,0.4561 -0.0167,0.086 -0.10067,0.114 -0.10067,0.023 0.0114,-0.211 0.0504,-0.4675 0.0336,-0.553 -0.0223,-0.1311 -0.0504,-0.2224 -0.0616,-0.4391 -0.0167,-0.2166 0.0616,-0.5131 0.0504,-0.7526 -0.0114,-0.2451 -0.0839,-0.3193 -0.0839,-0.5359 0,-0.2167 0.0671,-0.2737 0.0334,-0.479 -0.0279,-0.2109 -0.0671,-0.2793 -0.0671,-0.2793 0,0 -0.26843,0.3307 -0.33552,0.4333 -0.0615,0.1026 -0.17336,0.4276 -0.30199,0.6443 -0.13413,0.2166 -0.32994,0.3706 -0.40822,0.5302 -0.0783,0.1597 -0.11739,0.3706 -0.24046,0.5759 -0.11739,0.2052 -0.22928,0.4105 -0.22928,0.4105 -0.0391,0.08 -0.12856,0.097 -0.10628,0 0.056,-0.1996 0.15659,-0.4447 0.15659,-0.5246 0.006,-0.1367 0,-0.2337 0.0391,-0.4447 0.0336,-0.2166 0.17335,-0.4789 0.21809,-0.7241 0.0447,-0.2451 -0.0115,-0.325 0.0334,-0.5416 0.0504,-0.211 0.12855,-0.2452 0.15099,-0.4562 0.0167,-0.2109 -0.0279,-0.2622 -0.0279,-0.2622 0,0 -0.29639,0.2394 -0.38028,0.3307 -0.0839,0.091 -0.25164,0.3877 -0.425,0.5758 -0.16776,0.1882 -0.39145,0.3022 -0.4977,0.4447 -0.10628,0.1426 -0.19013,0.3364 -0.34671,0.5189 -0.15658,0.1767 -0.30757,0.3592 -0.30757,0.3592 -0.0504,0.068 -0.13987,0.068 -0.10067,-0.023 0.0894,-0.1825 0.23487,-0.4048 0.25165,-0.4846 0.0335,-0.1311 0.0504,-0.2281 0.12296,-0.4334 0.0727,-0.1995 0.26843,-0.439 0.3579,-0.6613 0.0894,-0.2338 0.0504,-0.3307 0.13987,-0.5246 0.0894,-0.1995 0.17336,-0.2166 0.22929,-0.4219 0.056,-0.2052 0.0447,-0.2851 0.0447,-0.2851 0,0 -0.37467,0.1882 -0.47533,0.2623 -0.10067,0.068 -0.33554,0.3193 -0.54245,0.4618 -0.21249,0.1483 -0.45295,0.2053 -0.59276,0.325 -0.13414,0.114 -0.25725,0.2851 -0.44737,0.4276 -0.19573,0.1368 -0.38586,0.2794 -0.38586,0.2794 -0.0671,0.057 -0.15099,0.034 -0.0951,-0.04 0.13414,-0.1653 0.32436,-0.3478 0.3635,-0.4162 0.056,-0.1254 0.0951,-0.2167 0.21251,-0.3934 0.11739,-0.1825 0.3579,-0.3706 0.49769,-0.5702 0.13986,-0.2052 0.12297,-0.3079 0.25724,-0.4789 0.12855,-0.1767 0.2125,-0.1767 0.31316,-0.3649 0.10617,-0.1824 0.11178,-0.2566 0.11178,-0.2566 0,0 -0.41383,0.085 -0.53127,0.1254 -0.11178,0.04 -0.40263,0.2281 -0.64309,0.3079 -0.24047,0.091 -0.49212,0.086 -0.65429,0.1596 -0.15657,0.08 -0.32434,0.2167 -0.54802,0.2965 -0.2181,0.086 -0.43619,0.1768 -0.43619,0.1768 -0.0839,0.034 -0.16217,-0.01 -0.0839,-0.068 0.16776,-0.1197 0.40263,-0.2452 0.45296,-0.3079 0.0894,-0.1027 0.15098,-0.1825 0.31315,-0.325 0.15659,-0.1425 0.44179,-0.2623 0.62633,-0.4219 0.19013,-0.1597 0.19572,-0.2623 0.36908,-0.3991 0.10067,-0.074 0.16776,-0.097 0.23488,-0.1368 0.0504,-0.028 0.10616,-0.057 0.16777,-0.1254 0.15098,-0.1539 0.17335,-0.2281 0.17335,-0.2281 0,0 -0.41942,-0.01 -0.54245,0.01 -0.12297,0.017 -0.44737,0.1313 -0.69902,0.1597 -0.25164,0.028 -0.49769,-0.029 -0.67106,0.01 -0.17335,0.04 -0.36348,0.1368 -0.60394,0.171 -0.0391,0 -0.0839,0.01 -0.12856,0.017 l -0.0223,-0.01 c -0.17336,0.034 -0.31316,0.057 -0.31316,0.057 -0.0727,0.012 -0.12856,-0.023 -0.10067,-0.063 0.0114,-0.01 0.0167,-0.017 0.0336,-0.023 0.19572,-0.08 0.44736,-0.1482 0.51448,-0.1995 0.11177,-0.08 0.18454,-0.1425 0.37467,-0.2452 0.19014,-0.1026 0.49211,-0.1596 0.70462,-0.2679 0.21809,-0.114 0.25723,-0.2167 0.45295,-0.3079 0.19573,-0.091 0.27402,-0.051 0.45297,-0.1711 0.17336,-0.1139 0.2237,-0.1824 0.2237,-0.1824 0,0 -0.4306,-0.1027 -0.55363,-0.1197 -0.12298,-0.017 -0.46415,0.023 -0.72139,-0.012 -0.25166,-0.034 -0.47534,-0.1539 -0.65429,-0.1539 -0.17895,-0.012 -0.39145,0.04 -0.62631,0.017 -0.24048,-0.029 -0.47534,-0.045 -0.47534,-0.045 -0.0894,-0.01 -0.13987,-0.08 -0.0391,-0.1027 m 19.88569,6.6138 c 0.41383,-0.821 0.88916,-1.5964 1.42042,-2.3262 -0.006,-0.08 -0.0114,-0.1711 -0.0167,-0.2851 -0.10617,-2.731 1.29738,-4.2248 1.29738,-4.2248 0.71579,-0.6785 1.10166,-1.0206 1.81745,-1.5452 0,0 -0.73257,1.4653 -0.40823,2.4973 -0.0951,-1.1232 1.10166,-3.0161 1.10166,-3.0161 1.95725,-1.3798 3.85299,-2.235 5.51387,-2.7539 0,0 -0.52567,0.4448 -0.73258,1.5052 0.69902,-1.1232 1.6385,-1.7674 1.6385,-1.7674 3.17075,-1.3114 5.094451,-0.4733 5.094451,-0.4733 0,0 -5.133591,2.6798 -8.874741,5.8042 0,0 -0.71021,0.2737 -1.63292,0.3307 0.50329,0.2281 0.97304,0.3079 0.97304,0.3079 -1.03455,0.9237 -1.71119,1.5907 -2.3487,2.56 0,0 -0.4306,0.6728 -2.4997,0.9693 -0.11739,0.034 -0.22368,0.074 -0.31315,0.1197 -0.76613,0.9806 -1.1464,1.6192 -1.1464,1.6192 -0.58158,0.268 -0.81087,0.553 -0.88357,0.6785 m 17.257431,-16.1412 c 0,-11.3518 -9.199111,-20.5541005 -20.551181,-20.5541005 -11.35208,0 -20.55118,9.2023005 -20.55118,20.5541005 0,11.3461 9.1991,20.5485 20.55118,20.5485 11.35207,0 20.551181,-9.2024 20.551181,-20.5485"
       id="path1054"
       style="fill:#000000;fill-opacity:1;fill-rule:nonzero;stroke:none" />
    <path
       d="m 21.52462,35.364915 0,-0.325 1.01778,0 c 0,0 0.19572,0.063 0.19572,0.325 z m 0,0.3649 c 0.31316,0.023 0.26283,0.3706 0.26283,0.3706 l 0,1.1688 -0.26283,0 z m 0,-0.3649 0,-0.325 z m -0.006,3.0047 0.0167,-0.5872 0.25165,0 0,0.7298 c 0,0 -0.24607,0.023 -0.26843,-0.1426 m -0.76613,0.01 c -0.0167,0.1653 -0.26283,0.1482 -0.26283,0.1482 l 0,-0.7298 0.25165,0 z m 0,-1.0947 -0.26283,0 0,-1.1746 c 0,0 -0.0504,-0.3477 0.26283,-0.3649 z m -1.01777,1.7446 c -0.0114,0.4391 -0.44178,0.3763 -0.44178,0.3763 -0.48651,0.028 -0.49771,-0.3534 -0.49771,-0.3534 l 0,-3.0618 c 0,0 -0.0223,-0.2623 0.46415,-0.2623 0.48653,0 0.46415,0.2395 0.46415,0.2395 z m 5.12799,-2.1437 0.3579,0 -0.13986,-1.5737 -0.31876,0 c 0,0 -0.0167,0.2395 -0.10067,0.211 -0.0838,-0.028 -0.48093,-0.1939 -0.56481,-0.1939 -0.084,-0.01 -0.45296,-0.1197 -0.90034,0.2794 0,0 -1.02895,1.1232 0.40264,2.0925 0,0 0.72698,0.4846 0.88356,0.7925 0.15658,0.3079 0.11178,0.9465 -0.54803,0.9008 -0.65987,-0.045 -0.90593,-1.1061 -0.90593,-1.1061 l -0.34112,0 0.12856,1.1004 c 0,0 -0.26284,0.04 -0.26284,-0.5758 l 0,-2.6456 c 0,0 -0.0671,-0.4618 0.48092,-0.4504 l 0,-1.5793 -0.30198,0.017 c 0,0 0.0167,0.2452 -0.17894,0.2509 l -1.01778,0 0,-1.0776 c 0,0 -0.0114,-0.1084 0.22928,-0.1311 l 0,-0.3193 -1.2806,0 0,0.3307 c 0,0 0.26283,0.01 0.27402,0.1084 l 0,1.089 -0.87797,0 c 0,0 -0.23489,0.028 -0.27962,-0.114 l 0.33554,-0.1654 -0.67666,-0.028 0,1.2259 0.49771,0 -0.16217,-0.1597 c 0,0 0.0167,-0.097 0.23486,-0.097 l 0.92831,0 0,0.3079 -3.24904,0.023 0,0.3478 c 0,0 0.48091,-0.04 0.51447,0.3022 l 0,2.9876 c 0,0 0.0223,0.3706 -0.51447,0.3649 l 0,0.3421 3.46713,0 0,-0.3193 c 0,0 -0.46973,0.045 -0.46973,-0.3763 l 0,-0.1938 1.2806,0 c 0,0 0.10616,0.5758 -0.46975,0.5644 l 0,0.3421 1.54344,0 0.0114,0.1026 0.32994,0 0.0447,-0.2109 c 0,0 1.35889,0.707 1.94047,-0.4675 0.58717,-1.1689 -0.74376,-1.9215 -0.74376,-1.9215 0,0 -0.85001,-0.5587 -0.88914,-0.8723 -0.0391,-0.3136 0.16776,-0.8153 0.76613,-0.496 0,0 0.44176,0.171 0.54242,0.992"
       id="path1056"
       style="fill:#000000;fill-opacity:1;fill-rule:nonzero;stroke:none" />
  </g>
  <path
     d="m 57.750225,28.999992 a 28.750225,28.750225 0 0 1 -57.50045049,0 28.750225,28.750225 0 1 1 57.50045049,0 z"
     id="path3091"
     style="fill:none;stroke:#000000;stroke-width:0.499549;stroke-miterlimit:4;stroke-opacity:1;stroke-dasharray:none" />
</svg>
