<?xml version="1.0" encoding="UTF-8" standalone="no"?>
<!-- Created with Inkscape (http://www.inkscape.org/) -->

<svg
   xmlns:dc="http://purl.org/dc/elements/1.1/"
   xmlns:cc="http://creativecommons.org/ns#"
   xmlns:rdf="http://www.w3.org/1999/02/22-rdf-syntax-ns#"
   xmlns:svg="http://www.w3.org/2000/svg"
   xmlns="http://www.w3.org/2000/svg"
   version="1.1"
   width="240"
   height="195"
   viewBox="0 0 240 195"
   id="Layer_1"
   xml:space="preserve"
   style="overflow:visible"><metadata
     id="metadata25"><rdf:RDF><cc:Work
         rdf:about=""><dc:format>image/svg+xml</dc:format><dc:type
           rdf:resource="http://purl.org/dc/dcmitype/StillImage" /><dc:title></dc:title></cc:Work></rdf:RDF></metadata><defs
     id="defs23" /><g
     transform="matrix(0.99250453,0,0,1.0079294,-3.0639414,-2.9994799)"
     id="g3762"><g
       transform="matrix(0.33070866,0,0,0.33070866,0,1.9530709e-4)"
       id="g3169"><g
         id="g3"><g
           id="g5"><path
             d="M 375,300"
             id="path9" /></g><path
           d="M 374.93223,19.501905 C 339.60661,41.346145 297.96599,53.953381 253.3801,53.953381 208.7942,53.953381 167.15305,41.344248 131.82799,19.5 L 20,131.32799 c 20.579357,29.25128 32.661443,64.91118 32.661443,103.39431 0,27.77264 -6.293177,54.07506 -17.531052,77.55884 C 25.430918,332.57555 20,355.30103 20,379.29428 c 0,85.9298 69.656965,155.58677 155.58677,155.58677 h 97.35368 c 41.17583,0 77.92294,18.9564 101.99178,48.61895 24.06838,-29.66255 60.81595,-48.61895 101.99177,-48.61895 h 97.35368 c 85.92981,0 155.58678,-69.65697 155.58678,-155.58677 0,-23.99325 -5.43083,-46.71873 -15.13136,-67.01314 -11.2379,-23.48378 -17.53006,-49.7862 -17.53006,-77.55884 0,-38.48313 12.08208,-74.14303 32.66142,-103.39431 L 618.03647,19.5 c -35.32507,21.844248 -76.96621,34.453381 -121.55211,34.453381 -44.5859,0 -86.22701,-12.607236 -121.55213,-34.451476 z"
           id="path11"
           style="fill:#ffffff;fill-rule:evenodd;stroke:#000000;stroke-width:21.16666794;stroke-miterlimit:4;stroke-opacity:1;stroke-dasharray:none" /></g><g
         transform="matrix(0.9906921,0,0,1,11.396185,16.66667)"
         id="g3164"><g
           id="g2991" /></g></g><g
       transform="matrix(0.32738704,0,0,0.33070866,5.8132004,5.5118049)"
       id="g2996"
       style="overflow:visible"><path
         d="M 212.23974,433.33333 H 168.80685 V 187.0645 H 150 v -32.68646 c 15.82196,-0.89546 27.01596,-7.91054 33.58233,-21.04471 h 28.65741 v 300 z"
         id="path19"
         style="fill-rule:evenodd" /><path
         d="m 398.24,349.78353 c 0,23.9541 -7.5338,43.86718 -22.6005,59.74023 -15.0666,15.87305 -34.2236,23.80957 -57.46883,23.80957 -23.24624,0 -42.33131,-7.57617 -57.25423,-22.72656 C 245.99302,395.45442 238.10137,375.90169 237.24,351.94856 h 40.46485 c 1.14784,11.83204 5.45274,21.57227 12.91468,29.22071 7.46195,7.64746 16.64566,11.47168 27.55114,11.47168 11.47939,0 21.0933,-4.11231 28.84173,-12.33789 7.7484,-8.22559 11.6231,-18.39746 11.6231,-30.51953 0,-15.2959 -3.7309,-28.42676 -11.192,-39.39356 -7.46188,-10.9668 -16.21539,-16.45019 -26.25951,-16.45019 h -20.23291 v -39.82715 h 17.21959 c 7.46098,0 14.49273,-3.75196 21.0933,-11.25537 8.03583,-9.23487 12.05323,-20.05762 12.05323,-32.46729 0,-11.25586 -3.0132,-20.12988 -9.0399,-26.62353 -6.02666,-6.49366 -14.06252,-9.74024 -24.10663,-9.74024 -18.65488,0 -29.12918,10.10108 -31.42486,30.30322 l -40.46582,-5.19531 c 2.00921,-19.33594 9.68577,-35.13672 23.03065,-47.40234 13.34489,-12.26563 29.63124,-18.39844 48.86003,-18.39844 20.66311,0 37.95353,7.14307 51.87243,21.42871 13.9188,14.28565 20.8787,31.81836 20.8787,52.59766 0,23.66504 -8.7535,45.74316 -26.2596,66.2334 22.3848,20.20214 33.5778,45.5996 33.5778,76.19043 z"
         id="path17"
         style="fill-rule:evenodd" /><path
         d="m 572.09667,180.79563 c -4.12997,6.56708 -10.54385,18.50731 -19.24071,35.82068 -20.65379,47.46191 -34.24208,95.22331 -40.76472,143.2842 -3.04301,22.38754 -4.5654,46.86494 -4.5654,73.43221 h -35.22018 c 0.65208,-67.16362 11.08784,-130.597 31.30769,-190.29863 7.17372,-21.19463 15.43517,-41.94028 24.78422,-62.23846 H 424.04 v -47.46291 h 148.05667 v 47.46291 z"
         id="path3086"
         style="fill-rule:evenodd;overflow:visible" /></g></g></svg>