<?xml version="1.0" encoding="UTF-8" standalone="no"?>
<!-- Created with Inkscape (http://www.inkscape.org/) -->

<svg
   xmlns:dc="http://purl.org/dc/elements/1.1/"
   xmlns:cc="http://creativecommons.org/ns#"
   xmlns:rdf="http://www.w3.org/1999/02/22-rdf-syntax-ns#"
   xmlns:svg="http://www.w3.org/2000/svg"
   xmlns="http://www.w3.org/2000/svg"
   version="1.1"
   width="990"
   height="765"
   id="svg2">
  <defs
     id="defs4" />
  <metadata
     id="metadata7">
    <rdf:RDF>
      <cc:Work
         rdf:about="">
        <dc:format>image/svg+xml</dc:format>
        <dc:type
           rdf:resource="http://purl.org/dc/dcmitype/StillImage" />
        <dc:title></dc:title>
      </cc:Work>
    </rdf:RDF>
  </metadata>
  <g
     transform="translate(0,-287.36218)"
     id="layer1">
    <g
       transform="matrix(1,0,0,1.013649,0,4.930349)"
       id="g2995">
      <g
         id="text2985"
         style="font-size:39.987957px;font-style:normal;font-weight:normal;line-height:125%;letter-spacing:0px;word-spacing:0px;fill:#000000;fill-opacity:1;stroke:none;font-family:Sans">
        <path
           d="m 80.000013,514.17572 13.601372,0 13.917685,38.73052 13.88253,-38.73052 13.60138,0 -19.43556,52.47247 -16.131855,0 -19.435552,-52.47247"
           id="path2989"
           style="font-size:71.97831726px;font-weight:bold;text-align:center;text-anchor:middle;-inkscape-font-specification:Sans Bold" />
        <path
           d="m 141.92667,514.17572 13.53108,0 0,31.45537 c -2e-5,4.33465 0.70289,7.43918 2.10874,9.3136 1.42924,1.85101 3.74885,2.77651 6.95884,2.77651 3.23337,0 5.55298,-0.9255 6.95884,-2.77651 1.42922,-1.87442 2.14385,-4.97895 2.14389,-9.3136 l 0,-31.45537 13.53108,0 0,31.45537 c -5e-5,7.42746 -1.86277,12.95704 -5.58816,16.58875 -3.72548,3.63172 -9.40736,5.44758 -17.04565,5.44758 -7.61491,0 -13.28507,-1.81586 -17.0105,-5.44758 -3.72545,-3.63171 -5.58816,-9.16129 -5.58816,-16.58875 l 0,-31.45537"
           id="path2991"
           style="font-size:71.97831726px;font-weight:bold;text-align:center;text-anchor:middle;-inkscape-font-specification:Sans Bold" />
        <path
           d="m 200.40906,514.17572 36.51634,0 0,10.22739 -22.98526,0 0,9.77049 21.61458,0 0,10.22739 -21.61458,0 0,12.01982 23.75846,0 0,10.22738 -37.28954,0 0,-52.47247"
           id="path2993"
           style="font-size:71.97831726px;font-weight:bold;text-align:center;text-anchor:middle;-inkscape-font-specification:Sans Bold" />
        <path
           d="m 249.61298,514.17572 13.53108,0 0,42.24509 23.75847,0 0,10.22738 -37.28955,0 0,-52.47247"
           id="path2995"
           style="font-size:71.97831726px;font-weight:bold;text-align:center;text-anchor:middle;-inkscape-font-specification:Sans Bold" />
        <path
           d="m 279.3462,514.17572 13.60138,0 13.91768,38.73052 13.88254,-38.73052 13.60137,0 -19.43555,52.47247 -16.13186,0 -19.43556,-52.47247"
           id="path2997"
           style="font-size:71.97831726px;font-weight:bold;text-align:center;text-anchor:middle;-inkscape-font-specification:Sans Bold" />
        <path
           d="m 363.97696,523.03243 c -4.12378,4e-5 -7.32203,1.52302 -9.59476,4.56893 -2.27278,3.046 -3.40915,7.33376 -3.40913,12.86331 -2e-5,5.50618 1.13635,9.78223 3.40913,12.82817 2.27273,3.04597 5.47098,4.56895 9.59476,4.56894 4.14716,1e-5 7.35712,-1.52297 9.62991,-4.56894 2.27271,-3.04594 3.40909,-7.32199 3.40913,-12.82817 -4e-5,-5.52955 -1.13642,-9.81731 -3.40913,-12.86331 -2.27279,-3.04591 -5.48275,-4.56889 -9.62991,-4.56893 m 0,-9.80564 c 8.43492,5e-5 15.0423,2.41338 19.82216,7.24 4.77975,4.82671 7.16965,11.49267 7.16971,19.99788 -6e-5,8.48184 -2.38996,15.13608 -7.16971,19.96274 -4.77986,4.82667 -11.38724,7.24001 -19.82216,7.24001 -8.41155,0 -15.01893,-2.41334 -19.82215,-7.24001 -4.77982,-4.82666 -7.16972,-11.4809 -7.16972,-19.96274 0,-8.50521 2.3899,-15.17117 7.16972,-19.99788 4.80322,-4.82662 11.4106,-7.23995 19.82215,-7.24"
           id="path2999"
           style="font-size:71.97831726px;font-weight:bold;text-align:center;text-anchor:middle;-inkscape-font-specification:Sans Bold" />
        <path
           d="m 426.1848,514.17572 36.51635,0 0,10.22739 -22.98527,0 0,9.77049 21.61459,0 0,10.22739 -21.61459,0 0,12.01982 23.75847,0 0,10.22738 -37.28955,0 0,-52.47247"
           id="path3001"
           style="font-size:71.97831726px;font-weight:bold;text-align:center;text-anchor:middle;-inkscape-font-specification:Sans Bold" />
        <path
           d="m 475.38872,514.17572 15.11264,0 19.08409,35.98916 0,-35.98916 12.82817,0 0,52.47247 -15.11264,0 -19.08409,-35.98916 0,35.98916 -12.82817,0 0,-52.47247"
           id="path3003"
           style="font-size:71.97831726px;font-weight:bold;text-align:center;text-anchor:middle;-inkscape-font-specification:Sans Bold" />
        <path
           d="m 560.72237,514.17572 13.53108,0 0,31.45537 c -2e-5,4.33465 0.70289,7.43918 2.10874,9.3136 1.42924,1.85101 3.74885,2.77651 6.95884,2.77651 3.23337,0 5.55298,-0.9255 6.95884,-2.77651 1.42922,-1.87442 2.14385,-4.97895 2.14389,-9.3136 l 0,-31.45537 13.53108,0 0,31.45537 c -5e-5,7.42746 -1.86277,12.95704 -5.58816,16.58875 -3.72548,3.63172 -9.40736,5.44758 -17.04565,5.44758 -7.61491,0 -13.28507,-1.81586 -17.0105,-5.44758 -3.72545,-3.63171 -5.58816,-9.16129 -5.58816,-16.58875 l 0,-31.45537"
           id="path3005"
           style="font-size:71.97831726px;font-weight:bold;text-align:center;text-anchor:middle;-inkscape-font-specification:Sans Bold" />
        <path
           d="m 619.20479,514.17572 15.11264,0 19.08409,35.98916 0,-35.98916 12.82817,0 0,52.47247 -15.11263,0 -19.0841,-35.98916 0,35.98916 -12.82817,0 0,-52.47247"
           id="path3007"
           style="font-size:71.97831726px;font-weight:bold;text-align:center;text-anchor:middle;-inkscape-font-specification:Sans Bold" />
        <path
           d="m 723.76309,537.44215 c 2.83505,3e-5 4.86179,-0.52716 6.0802,-1.58156 1.24178,-1.05434 1.86269,-2.78819 1.86272,-5.20156 -3e-5,-2.38986 -0.62094,-4.10028 -1.86272,-5.13126 -1.21841,-1.0309 -3.24515,-1.54637 -6.0802,-1.54641 l -5.6936,0 0,13.46079 5.6936,0 m -5.6936,9.34874 0,19.8573 -13.53108,0 0,-52.47247 20.66565,0 c 6.91195,5e-5 11.97292,1.15986 15.18293,3.47942 3.23335,2.31966 4.85005,5.98652 4.8501,11.00059 -5e-5,3.46774 -0.84354,6.31454 -2.53049,8.5404 -1.6636,2.22592 -4.18237,3.86605 -7.55632,4.92039 1.85097,0.42177 3.50281,1.38242 4.95554,2.88195 1.47608,1.47613 2.96391,3.72545 4.4635,6.74796 l 7.34545,14.90176 -14.40973,0 -6.39651,-13.03904 c -1.2887,-2.62419 -2.60081,-4.41662 -3.93631,-5.37728 -1.31213,-0.96063 -3.06942,-1.44096 -5.27185,-1.44098 l -3.83088,0"
           id="path3009"
           style="font-size:71.97831726px;font-weight:bold;text-align:center;text-anchor:middle;-inkscape-font-specification:Sans Bold" />
        <path
           d="m 791.76997,557.08857 -21.15769,0 -3.33884,9.55962 -13.60137,0 19.43555,-52.47247 16.13186,0 19.43555,52.47247 -13.60137,0 -3.30369,-9.55962 m -17.78371,-9.73535 14.37458,0 -7.16971,-20.87652 -7.20487,20.87652"
           id="path3011"
           style="font-size:71.97831726px;font-weight:bold;text-align:center;text-anchor:middle;-inkscape-font-specification:Sans Bold" />
        <path
           d="m 803.7195,514.17572 48.36043,0 0,10.22739 -17.39711,0 0,42.24508 -13.53108,0 0,-42.24508 -17.43224,0 0,-10.22739"
           id="path3013"
           style="font-size:71.97831726px;font-weight:bold;text-align:center;text-anchor:middle;-inkscape-font-specification:Sans Bold" />
        <path
           d="m 883.00812,523.03243 c -4.12378,4e-5 -7.32204,1.52302 -9.59477,4.56893 -2.27277,3.046 -3.40914,7.33376 -3.40913,12.86331 -1e-5,5.50618 1.13636,9.78223 3.40913,12.82817 2.27273,3.04597 5.47099,4.56895 9.59477,4.56894 4.14715,1e-5 7.35712,-1.52297 9.62991,-4.56894 2.27271,-3.04594 3.40909,-7.32199 3.40913,-12.82817 -4e-5,-5.52955 -1.13642,-9.81731 -3.40913,-12.86331 -2.27279,-3.04591 -5.48276,-4.56889 -9.62991,-4.56893 m 0,-9.80564 c 8.43492,5e-5 15.0423,2.41338 19.82215,7.24 4.77976,4.82671 7.16966,11.49267 7.16972,19.99788 -6e-5,8.48184 -2.38996,15.13608 -7.16972,19.96274 -4.77985,4.82667 -11.38723,7.24001 -19.82215,7.24001 -8.41155,0 -15.01893,-2.41334 -19.82215,-7.24001 -4.77982,-4.82666 -7.16972,-11.4809 -7.16972,-19.96274 0,-8.50521 2.3899,-15.17117 7.16972,-19.99788 4.80322,-4.82662 11.4106,-7.23995 19.82215,-7.24"
           id="path3015"
           style="font-size:71.97831726px;font-weight:bold;text-align:center;text-anchor:middle;-inkscape-font-specification:Sans Bold" />
      </g>
      <g
         id="text2989"
         style="font-size:40.22436905px;font-style:normal;font-weight:normal;line-height:125%;letter-spacing:0px;word-spacing:0px;fill:#000000;fill-opacity:1;stroke:none;font-family:Sans">
        <path
           d="m 49.766494,638.83732 c -1.236085,0.859 -1.906491,1.33038 -2.011218,1.41414 -0.712329,0.64949 -1.068482,1.34085 -1.06846,2.07406 -3.31015,3.14257 -6.065097,6.94503 -8.264851,11.40739 -1.717928,3.4568 -3.341567,7.88776 -4.87092,13.29289 -0.251411,0.87992 -0.377113,1.69698 -0.377104,2.45118 -9e-6,3.39393 1.791231,5.82415 5.373725,7.29066 1.948352,0.79611 5.174678,1.41414 9.678989,1.85409 -1.550336,2.57688 -3.058749,3.86531 -4.525242,3.86532 -0.502823,-10e-6 -0.932302,-0.26188 -1.288436,-0.78564 -0.419022,0.85896 -0.869451,1.28844 -1.351288,1.28844 -0.125718,0 -0.314269,-0.0419 -0.565655,-0.1257 l -0.785632,-1.16274 c -0.377119,0.27235 -0.796122,0.40853 -1.257012,0.40853 -1.257024,0 -2.765437,-0.77516 -4.525242,-2.32547 -1.403671,-1.23606 -2.51403,-2.9435 -3.33108,-5.12232 -0.733263,-2.01121 -1.099891,-4.0329 -1.099886,-6.06508 -5e-6,-3.39392 0.879902,-7.34303 2.639725,-11.84734 2.702564,-6.93448 4.200502,-10.57981 4.493816,-10.936 2.136905,-2.57683 5.352757,-6.44214 9.647564,-11.59593 l 0.439954,-0.0314 c 0.879885,-0.0628 1.592191,0.49238 2.13692,1.66555 0.293278,0.9847 0.597055,1.97983 0.911333,2.9854"
           id="path3018"
           style="font-size:64.35899353px;font-variant:normal;font-stretch:normal;text-align:center;text-anchor:middle;font-family:Domestic Manners;-inkscape-font-specification:Domestic Manners" />
        <path
           d="m 60.356817,673.78224 c -1.1e-5,1.02657 -0.345688,2.33595 -1.037034,3.92816 -1.068469,2.43022 -1.623649,3.69771 -1.665541,3.80246 -0.335211,0.31425 -0.680888,0.47138 -1.037034,0.47138 -0.439961,0 -0.95324,-0.3771 -1.539839,-1.13131 -0.754212,-1.00561 -1.183691,-1.55031 -1.288437,-1.63411 -0.377108,-0.73326 -0.565659,-1.44556 -0.565656,-2.13692 -3e-6,-1.82267 1.120831,-3.17395 3.362506,-4.05387 0.607548,-0.25139 0.963701,-0.37709 1.06846,-0.3771 1.298903,10e-6 2.19976,0.37711 2.702575,1.13131"
           id="path3020"
           style="font-size:64.35899353px;font-variant:normal;font-stretch:normal;text-align:center;text-anchor:middle;font-family:Domestic Manners;-inkscape-font-specification:Domestic Manners" />
        <path
           d="m 73.932543,673.78224 c -1.1e-5,1.02657 -0.345689,2.33595 -1.037035,3.92816 -1.068468,2.43022 -1.623648,3.69771 -1.66554,3.80246 -0.335211,0.31425 -0.680889,0.47138 -1.037035,0.47138 -0.43996,0 -0.95324,-0.3771 -1.539839,-1.13131 -0.754212,-1.00561 -1.18369,-1.55031 -1.288437,-1.63411 -0.377107,-0.73326 -0.565659,-1.44556 -0.565655,-2.13692 -4e-6,-1.82267 1.12083,-3.17395 3.362506,-4.05387 0.607548,-0.25139 0.963701,-0.37709 1.06846,-0.3771 1.298902,10e-6 2.19976,0.37711 2.702575,1.13131"
           id="path3022"
           style="font-size:64.35899353px;font-variant:normal;font-stretch:normal;text-align:center;text-anchor:middle;font-family:Domestic Manners;-inkscape-font-specification:Domestic Manners" />
        <path
           d="m 87.508268,673.78224 c -1.1e-5,1.02657 -0.345688,2.33595 -1.037034,3.92816 -1.068469,2.43022 -1.623648,3.69771 -1.665541,3.80246 -0.33521,0.31425 -0.680888,0.47138 -1.037034,0.47138 -0.439961,0 -0.95324,-0.3771 -1.539839,-1.13131 -0.754212,-1.00561 -1.183691,-1.55031 -1.288437,-1.63411 -0.377108,-0.73326 -0.565659,-1.44556 -0.565655,-2.13692 -4e-6,-1.82267 1.12083,-3.17395 3.362506,-4.05387 0.607547,-0.25139 0.9637,-0.37709 1.068459,-0.3771 1.298903,10e-6 2.19976,0.37711 2.702575,1.13131"
           id="path3024"
           style="font-size:64.35899353px;font-variant:normal;font-stretch:normal;text-align:center;text-anchor:middle;font-family:Domestic Manners;-inkscape-font-specification:Domestic Manners" />
        <path
           d="m 120.66195,640.65998 c -3e-5,0.9428 -0.90089,1.51893 -2.70258,1.7284 -2.17884,0.23049 -4.34718,0.45046 -6.50503,0.65993 -3.35205,0.43999 -5.97082,1.06849 -7.85632,1.88551 -2.53499,1.1104 -3.802473,2.57691 -3.802463,4.39954 -1e-5,1.9484 1.759803,3.56157 5.279453,4.8395 2.3883,0.71233 5.80318,1.88554 10.24464,3.51963 3.95956,1.73889 5.93935,4.92332 5.93938,9.55329 -3e-5,4.19005 -0.80661,7.59445 -2.41975,10.21322 -1.94839,3.14253 -4.88142,4.71379 -8.79908,4.71379 -2.82829,0 -5.90797,-0.6285 -9.23903,-1.88552 -4.106248,-1.55031 -6.159365,-3.45677 -6.15936,-5.7194 -5e-6,-0.90085 0.293297,-1.70743 0.879908,-2.41975 0.586599,-0.71229 1.33033,-1.06844 2.231195,-1.06845 0.90085,1e-5 1.906458,0.51328 3.016827,1.53983 1.80171,1.67603 2.87016,2.62926 3.20538,2.85971 1.48745,1.02656 3.16346,1.53984 5.02805,1.53983 2.36735,10e-6 4.29476,-0.73325 5.78225,-2.19977 1.50839,-1.48745 2.26259,-3.41487 2.26262,-5.78225 -3e-5,-2.74446 -1.00563,-4.65092 -3.01683,-5.7194 -1.25703,-0.67039 -3.78153,-1.61315 -7.57349,-2.82828 -3.24729,-1.04749 -5.61466,-2.11594 -7.102117,-3.20538 -2.241678,-1.65504 -3.634864,-3.91766 -4.179564,-6.78786 -0.125706,-0.64942 -0.188556,-1.2465 -0.188551,-1.79124 -5e-6,-4.04335 2.629242,-7.43728 7.887752,-10.1818 2.61875,-1.36171 5.75081,-2.04259 9.39616,-2.04264 1.80169,5e-5 4.08526,0.16765 6.85071,0.50281 1.02653,2.11601 1.53981,3.34159 1.53984,3.67675"
           id="path3026"
           style="font-size:64.35899353px;font-variant:normal;font-stretch:normal;text-align:center;text-anchor:middle;font-family:Domestic Manners;-inkscape-font-specification:Domestic Manners" />
        <path
           d="m 143.03675,652.69587 c -0.56568,0.77519 -1.21513,1.16276 -1.94836,1.16274 -0.69138,2e-5 -1.33036,-0.38755 -1.91695,-1.16274 -0.37712,0.0838 -1.19418,0.64948 -2.45117,1.69697 -1.17323,1.00563 -2.03218,1.50844 -2.57687,1.50841 -1.15228,3e-5 -1.72841,-1.26746 -1.72839,-3.80246 -2e-5,-2.38829 1.21509,-3.73958 3.64533,-4.05386 1.42459,0.46093 2.85968,0.93231 4.30526,1.41414 1.57124,0.69138 2.46163,1.77032 2.67115,3.2368 m -10.37034,9.14476 c -0.10477,1.38273 -0.73327,3.5406 -1.88552,6.47361 -1.08942,2.76544 -1.63413,4.91283 -1.63411,6.44218 -2e-5,1.46652 0.76467,2.19978 2.29404,2.19977 1.15225,10e-6 2.77589,-0.34567 4.87092,-1.03703 1.61315,-0.5866 3.22631,-1.16273 4.8395,-1.72839 0.39803,0.50281 0.59705,1.05799 0.59708,1.66554 -3e-5,0.73326 -0.32475,1.59222 -0.97419,2.57687 -4.1691,2.49308 -7.81443,3.73961 -10.936,3.73961 -3.22634,0 -4.8395,-1.71791 -4.83949,-5.15375 -10e-6,-2.28356 0.68087,-5.22706 2.04264,-8.8305 1.67601,-4.39952 2.65019,-7.29065 2.92255,-8.67338 0.69135,0.25142 1.5922,1.02658 2.70258,2.32547"
           id="path3028"
           style="font-size:64.35899353px;font-variant:normal;font-stretch:normal;text-align:center;text-anchor:middle;font-family:Domestic Manners;-inkscape-font-specification:Domestic Manners" />
        <path
           d="m 204.50462,669.03702 c -3e-5,6.72502 -1.88555,12.84247 -5.65655,18.35237 -0.29333,0.1257 -0.56568,0.18855 -0.81706,0.18855 -0.75423,0 -1.51891,-0.53423 -2.29405,-1.60269 -0.71233,-1.00561 -1.06848,-1.90647 -1.06846,-2.70257 -2e-5,-1.75982 1.35127,-3.59296 4.05387,-5.49943 0.73323,-2.38831 1.09985,-5.27944 1.09988,-8.67338 -3e-5,-2.82826 -0.23048,-4.9128 -0.69136,-6.25363 -0.75423,-2.2626 -2.24169,-3.39391 -4.46239,-3.39393 -3.2054,2e-5 -5.99177,1.87506 -8.35912,5.62512 -1.25703,2.01124 -2.78639,5.50992 -4.5881,10.49605 -1.36177,3.75009 -2.43023,5.62513 -3.20538,5.62513 -2.09502,0 -3.14253,-2.12644 -3.14253,-6.37934 0,-1.5084 0.2514,-4.0748 0.75421,-7.69919 0.52375,-3.62437 0.78563,-6.11744 0.78563,-7.47922 0,-0.43993 -0.0209,-0.84846 -0.0628,-1.22559 1.80171,0.48188 3.21585,1.38274 4.24242,2.70258 -1e-5,0.16762 -0.021,0.50282 -0.0628,1.00561 -0.021,0.41902 -0.0314,0.75422 -0.0314,1.00561 -1e-5,0.60757 0.15712,1.0999 0.47138,1.47699 2.76542,-3.87577 4.56713,-6.22219 5.40515,-7.03927 2.30451,-2.26259 4.94423,-3.3939 7.91917,-3.39393 3.41486,3e-5 5.98126,1.71794 7.6992,5.15375 1.34078,2.66069 2.01119,5.89749 2.01122,9.71041"
           id="path3030"
           style="font-size:64.35899353px;font-variant:normal;font-stretch:normal;text-align:center;text-anchor:middle;font-family:Domestic Manners;-inkscape-font-specification:Domestic Manners" />
        <path
           d="m 224.45968,654.61281 c 3.05871,3e-5 5.71938,1.11039 7.98203,3.33108 2.28354,2.1998 3.42532,4.82904 3.42535,7.88775 -3e-5,4.211 -1.64462,7.89823 -4.93377,11.0617 -3.2892,3.16348 -7.04976,4.74522 -11.28168,4.74522 -4.00149,0 -7.2383,-1.51889 -9.71041,-4.55666 -0.0419,-0.5028 -0.0629,-0.99513 -0.0628,-1.47699 -1e-5,-4.90234 1.82266,-9.17617 5.468,-12.82152 -10e-6,-2.3045 0.95322,-4.26334 2.8597,-5.87653 1.82265,-1.52934 3.90719,-2.29402 6.25363,-2.29405 m 6.85072,10.6846 c -3e-5,-1.57125 -0.54473,-2.88063 -1.63412,-3.92816 -1.08943,-1.06844 -2.41977,-1.60267 -3.99101,-1.60269 -1.15228,2e-5 -2.15789,0.36665 -3.01683,1.09989 0.60754,1.02657 0.91132,1.96933 0.91134,2.82827 -2e-5,1.25703 -0.73328,2.52452 -2.19978,3.80246 -1.36177,1.11037 -2.71306,2.22073 -4.05386,3.33108 -1.42462,1.40367 -2.09503,2.90161 -2.01122,4.49382 l 0.0314,0.59708 c 2.99586,0 5.21658,-0.14665 6.66216,-0.43995 2.3883,-0.48185 4.34714,-1.46651 5.87653,-2.95398 2.28355,-2.24166 3.42533,-4.65093 3.42536,-7.22782"
           id="path3032"
           style="font-size:64.35899353px;font-variant:normal;font-stretch:normal;text-align:center;text-anchor:middle;font-family:Domestic Manners;-inkscape-font-specification:Domestic Manners" />
        <path
           d="m 294.50666,663.56902 c 0.0209,2e-5 1.50838,-1.00559 4.46239,-3.01683 2.97489,-2.03214 5.34226,-3.04823 7.10211,-3.04825 3.47769,2e-5 5.21656,2.47214 5.2166,7.41637 -4e-5,0.58662 -0.36667,4.0853 -1.09989,10.49605 -0.75424,6.5574 -2.02173,9.83611 -3.80246,9.83611 -0.71234,0 -1.33037,-0.35616 -1.85409,-1.06846 -0.46094,-0.62851 -0.69139,-1.31986 -0.69135,-2.07407 -4e-5,-0.77516 0.41896,-2.22072 1.25701,-4.33669 0.58656,-1.48746 1.13127,-3.68723 1.63411,-6.59931 0.46087,-2.78636 0.69132,-5.04898 0.69136,-6.78786 -4e-5,-1.61315 -0.25144,-2.41973 -0.75421,-2.41975 -1.4037,2e-5 -3.14256,0.78565 -5.2166,2.3569 -2.43025,1.84363 -5.2271,5.13281 -8.39055,9.86754 -1.61319,2.40928 -2.7026,3.61391 -3.26823,3.61391 -0.83803,0 -1.58176,-0.5028 -2.23119,-1.50842 -0.60758,-0.90085 -0.91136,-1.82266 -0.91134,-2.76542 -2e-5,-1.11035 0.28281,-2.74447 0.84849,-4.90235 0.58658,-2.1788 0.87988,-3.82339 0.8799,-4.93377 -2e-5,-0.64944 -0.0838,-1.22557 -0.2514,-1.72839 -2.36739,2.17884 -4.63001,5.37374 -6.78786,9.58471 -0.87992,1.75983 -2.48261,5.38421 -4.80807,10.87315 -0.25141,0.0419 -0.43996,0.0629 -0.56566,0.0629 -0.67041,-10e-6 -1.30939,-0.21998 -1.91694,-0.65994 -0.71231,-0.5028 -1.03704,-1.07893 -0.97418,-1.72839 l 1.53984,-19.29512 c 0.0209,-0.23044 0.64944,-0.35614 1.88551,-0.37711 0.2095,2e-5 0.34567,-0.0104 0.40853,-0.0314 l 2.32547,3.1111 c 0.98465,-1.65505 2.35689,-3.20536 4.11672,-4.65094 2.03215,-1.67599 3.85481,-2.514 5.468,-2.51403 1.38269,3e-5 2.44067,0.62853 3.17395,1.88552 0.29328,0.52378 0.70181,1.67604 1.22559,3.45678 0.37707,1.25703 0.80655,1.88554 1.28844,1.88552"
           id="path3034"
           style="font-size:64.35899353px;font-variant:normal;font-stretch:normal;text-align:center;text-anchor:middle;font-family:Domestic Manners;-inkscape-font-specification:Domestic Manners" />
        <path
           d="m 347.11257,660.01796 c -3e-5,1.06848 -0.49236,2.23122 -1.47698,3.48821 -5.88704,3.47775 -12.08829,5.21661 -18.60378,5.2166 -1.19417,10e-6 -2.41976,-0.0628 -3.67675,-0.18855 -1.06848,0.75422 -1.60271,1.78077 -1.60269,3.07968 -2e-5,1.34082 0.54469,2.41975 1.63411,3.2368 0.9637,0.75421 2.13691,1.13132 3.51963,1.13131 1.94835,1e-5 5.01755,-0.84848 9.20761,-2.54545 4.19001,-1.69695 7.17541,-2.54544 8.95621,-2.54545 1.02653,10e-6 1.86453,0.24094 2.51402,0.72279 -7.12309,6.26411 -13.60717,9.39616 -19.45225,9.39616 -3.28919,0 -5.86607,-0.76468 -7.73062,-2.29405 -2.01123,-1.65506 -3.01684,-4.08528 -3.01683,-7.29067 -1e-5,-0.48184 0.0209,-1.18367 0.0628,-2.10549 0.0419,-0.94275 0.0628,-1.65505 0.0629,-2.13692 -1e-5,-1.4665 -0.20951,-2.56638 -0.6285,-3.29966 1.8436,-0.31423 3.991,-1.60267 6.44218,-3.86531 2.61876,-2.40925 4.58808,-3.82338 5.90795,-4.24241 2.1788,-0.69133 4.6195,-1.03701 7.3221,-1.03704 2.19974,3e-5 4.32618,0.36666 6.37933,1.09989 2.78634,1.00563 4.17953,2.39882 4.17956,4.17956 m -4.55666,0 c -1.55035,-0.77513 -3.26826,-1.16271 -5.15375,-1.16273 -1.73889,2e-5 -3.53013,0.3457 -5.37372,1.03703 -2.07409,0.77518 -3.56155,1.78079 -4.4624,3.01683 -0.48187,0.67042 -0.72279,1.19418 -0.72278,1.57126 -10e-6,0.71233 0.63897,1.06848 1.91695,1.06846 1.94834,2e-5 4.37856,-0.58659 7.29066,-1.75981 2.91205,-1.17319 5.08039,-2.4302 6.50504,-3.77104"
           id="path3036"
           style="font-size:64.35899353px;font-variant:normal;font-stretch:normal;text-align:center;text-anchor:middle;font-family:Domestic Manners;-inkscape-font-specification:Domestic Manners" />
        <path
           d="m 391.64221,664.00897 c 3.77102,-4.14811 7.58395,-6.22218 11.43881,-6.2222 2.514,2e-5 4.22143,0.81708 5.12232,2.45117 0.62848,1.15228 0.94273,3.05875 0.94276,5.7194 -3e-5,5.94987 -1.20466,12.38157 -3.61391,19.29513 -0.25143,0.0838 -0.43998,0.1257 -0.56565,0.1257 -0.48188,0 -1.00564,-0.32473 -1.57127,-0.97418 -0.75423,-0.90086 -1.19418,-1.39319 -1.31986,-1.47699 2.01119,-6.85071 3.0168,-12.64343 3.01683,-17.37819 -3e-5,-1.8017 -0.30381,-2.70255 -0.91133,-2.70257 -3.79201,2e-5 -8.44295,4.211 -13.95283,12.63297 -2e-5,0.021 -0.42949,1.30939 -1.28844,3.86531 -0.48186,1.44556 -1.15227,2.13692 -2.01122,2.07407 l -0.31425,-0.0314 -2.32547,-2.70257 c 0.46089,-2.38832 1.0894,-8.08677 1.88551,-17.09536 0.6285,-7.08114 1.67601,-12.70626 3.14253,-16.87538 2.01121,1.06849 3.01682,2.67118 3.01683,4.80807 -1e-5,1.15229 -0.29332,2.8702 -0.87991,5.15374 -0.56566,2.26265 -0.84849,3.98056 -0.84848,5.15375 -1e-5,1.55034 0.34567,2.94352 1.03703,4.17956"
           id="path3038"
           style="font-size:64.35899353px;font-variant:normal;font-stretch:normal;text-align:center;text-anchor:middle;font-family:Domestic Manners;-inkscape-font-specification:Domestic Manners" />
        <path
           d="m 435.76332,654.67566 c -3e-5,2.30455 -0.69138,5.5623 -2.07407,9.77327 -1.42463,4.3786 -2.18932,7.64683 -2.29404,9.80469 0.54468,0.81706 1.26746,1.28844 2.16834,1.41414 1.29889,0.14665 2.11594,0.31426 2.45117,0.5028 0.37708,0.73326 0.56563,1.44557 0.56566,2.13692 -3e-5,1.44557 -1.35132,3.31013 -4.05386,5.5937 -4.06436,0.2933 -6.33745,0.43995 -6.81929,0.43996 -2.82829,-10e-6 -5.27946,-0.55519 -7.35352,-1.66554 -2.55593,-1.40367 -3.83389,-3.41488 -3.83389,-6.03366 0,-1.99026 0.93228,-3.6558 2.79686,-4.99662 1.676,-1.2151 3.55104,-1.82266 5.62512,-1.82267 1.5084,1e-5 2.90159,0.31427 4.17957,0.94276 2.03214,-3.35201 3.23678,-7.42682 3.6139,-12.22444 -1.65508,0.31428 -4.26338,1.44559 -7.82489,3.39394 -3.24729,1.73888 -5.91844,2.67116 -8.01345,2.79685 -1.40367,-1.1313 -2.1055,-2.61876 -2.1055,-4.46239 0,-0.46089 0.0629,-0.91132 0.18856,-1.35129 1.48745,-0.64944 4.94423,-2.0112 10.37034,-4.08529 5.88699,-2.24164 9.06094,-3.36248 9.52186,-3.36251 1.9274,3e-5 2.8911,1.06849 2.89113,3.20538 m -7.35352,23.44327 c -0.77517,-0.35615 -1.45605,-1.39318 -2.04264,-3.1111 -0.85898,-0.3771 -1.80173,-0.56565 -2.82828,-0.56566 -2.34643,10e-6 -3.47774,0.92182 -3.39393,2.76543 l 0.0314,0.5028 c 1.02654,1.08941 2.51401,1.63412 4.46239,1.63412 1.61315,0 2.87016,-0.40853 3.77103,-1.22559"
           id="path3040"
           style="font-size:64.35899353px;font-variant:normal;font-stretch:normal;text-align:center;text-anchor:middle;font-family:Domestic Manners;-inkscape-font-specification:Domestic Manners" />
        <path
           d="m 452.23019,641.44562 c -2e-5,2.87021 -1.16276,5.09093 -3.48821,6.66216 -1.02657,9.30191 -1.92743,19.34752 -2.70258,30.13685 0.5866,0.54471 0.8799,1.20464 0.87991,1.97979 -10e-6,0.69136 -0.20951,1.33034 -0.6285,1.91695 -0.48187,0.64945 -1.058,0.97418 -1.7284,0.97418 -0.79611,0 -1.46652,-0.47138 -2.01121,-1.41414 0.31424,-10.45413 0.84847,-19.63031 1.60269,-27.52855 0.20949,-2.8073 0.70182,-6.7564 1.47698,-11.84734 0.18855,-0.81701 0.80658,-1.66549 1.8541,-2.54544 1.04749,-0.87987 1.97978,-1.31982 2.79685,-1.31987 1.29889,5e-5 1.94835,0.99518 1.94837,2.98541"
           id="path3042"
           style="font-size:64.35899353px;font-variant:normal;font-stretch:normal;text-align:center;text-anchor:middle;font-family:Domestic Manners;-inkscape-font-specification:Domestic Manners" />
        <path
           d="m 464.98885,641.44562 c -2e-5,2.87021 -1.16275,5.09093 -3.4882,6.66216 -1.02658,9.30191 -1.92743,19.34752 -2.70258,30.13685 0.58659,0.54471 0.8799,1.20464 0.87991,1.97979 -10e-6,0.69136 -0.20952,1.33034 -0.62851,1.91695 -0.48186,0.64945 -1.05799,0.97418 -1.72839,0.97418 -0.79611,0 -1.46652,-0.47138 -2.01122,-1.41414 0.31425,-10.45413 0.84848,-19.63031 1.60269,-27.52855 0.2095,-2.8073 0.70182,-6.7564 1.47699,-11.84734 0.18854,-0.81701 0.80657,-1.66549 1.85409,-2.54544 1.0475,-0.87987 1.97978,-1.31982 2.79685,-1.31987 1.2989,5e-5 1.94835,0.99518 1.94837,2.98541"
           id="path3044"
           style="font-size:64.35899353px;font-variant:normal;font-stretch:normal;text-align:center;text-anchor:middle;font-family:Domestic Manners;-inkscape-font-specification:Domestic Manners" />
        <path
           d="m 488.55782,654.67566 c -3e-5,2.30455 -0.69139,5.5623 -2.07407,9.77327 -1.42464,4.3786 -2.18932,7.64683 -2.29405,9.80469 0.54468,0.81706 1.26746,1.28844 2.16835,1.41414 1.29888,0.14665 2.11594,0.31426 2.45117,0.5028 0.37707,0.73326 0.56563,1.44557 0.56565,2.13692 -2e-5,1.44557 -1.35131,3.31013 -4.05386,5.5937 -4.06436,0.2933 -6.33745,0.43995 -6.81929,0.43996 -2.82829,-10e-6 -5.27946,-0.55519 -7.35352,-1.66554 -2.55593,-1.40367 -3.83389,-3.41488 -3.83388,-6.03366 -1e-5,-1.99026 0.93228,-3.6558 2.79685,-4.99662 1.67601,-1.2151 3.55105,-1.82266 5.62513,-1.82267 1.5084,1e-5 2.90158,0.31427 4.17956,0.94276 2.03215,-3.35201 3.23678,-7.42682 3.61391,-12.22444 -1.65509,0.31428 -4.26338,1.44559 -7.8249,3.39394 -3.24729,1.73888 -5.91844,2.67116 -8.01345,2.79685 -1.40366,-1.1313 -2.1055,-2.61876 -2.10549,-4.46239 -1e-5,-0.46089 0.0628,-0.91132 0.18855,-1.35129 1.48746,-0.64944 4.94424,-2.0112 10.37035,-4.08529 5.88698,-2.24164 9.06093,-3.36248 9.52186,-3.36251 1.92739,3e-5 2.8911,1.06849 2.89113,3.20538 m -7.35352,23.44327 c -0.77518,-0.35615 -1.45606,-1.39318 -2.04265,-3.1111 -0.85897,-0.3771 -1.80173,-0.56565 -2.82827,-0.56566 -2.34644,10e-6 -3.47775,0.92182 -3.39393,2.76543 l 0.0314,0.5028 c 1.02655,1.08941 2.51401,1.63412 4.46239,1.63412 1.61315,0 2.87016,-0.40853 3.77104,-1.22559"
           id="path3046"
           style="font-size:64.35899353px;font-variant:normal;font-stretch:normal;text-align:center;text-anchor:middle;font-family:Domestic Manners;-inkscape-font-specification:Domestic Manners" />
        <path
           d="m 505.55889,678.24463 c -2e-5,0.25141 -0.20952,1.26749 -0.62851,3.04825 -1.52938,6.57836 -4.02245,11.6064 -7.47922,15.08414 -0.25141,0.0838 -0.53424,0.12569 -0.84848,0.1257 -1.67602,-10e-6 -2.68163,-0.68089 -3.01683,-2.04264 -0.52376,-0.60757 -0.78563,-1.12085 -0.78563,-1.53984 0,-0.31426 0.38757,-0.83802 1.16273,-1.57126 0.87991,-0.81707 1.40366,-1.45605 1.57127,-1.91695 1.257,-3.03778 2.51401,-6.06508 3.77103,-9.0819 1.38271,-3.68723 2.07406,-6.84023 2.07407,-9.45902 -1e-5,-1.31985 -0.14666,-2.60828 -0.43995,-3.86531 3.07966,2.40929 4.6195,6.14889 4.61952,11.21883"
           id="path3048"
           style="font-size:64.35899353px;font-variant:normal;font-stretch:normal;text-align:center;text-anchor:middle;font-family:Domestic Manners;-inkscape-font-specification:Domestic Manners" />
        <path
           d="m 570.16932,669.03702 c -3e-5,6.72502 -1.88554,12.84247 -5.65655,18.35237 -0.29333,0.1257 -0.56568,0.18855 -0.81706,0.18855 -0.75423,0 -1.51891,-0.53423 -2.29404,-1.60269 -0.71233,-1.00561 -1.06849,-1.90647 -1.06846,-2.70257 -3e-5,-1.75982 1.35126,-3.59296 4.05386,-5.49943 0.73323,-2.38831 1.09986,-5.27944 1.09988,-8.67338 -2e-5,-2.82826 -0.23047,-4.9128 -0.69135,-6.25363 -0.75423,-2.2626 -2.2417,-3.39391 -4.46239,-3.39393 -3.2054,2e-5 -5.99177,1.87506 -8.35913,5.62512 -1.25702,2.01124 -2.78639,5.50992 -4.58809,10.49605 -1.36177,3.75009 -2.43023,5.62513 -3.20538,5.62513 -2.09503,0 -3.14253,-2.12644 -3.14253,-6.37934 0,-1.5084 0.2514,-4.0748 0.75421,-7.69919 0.52375,-3.62437 0.78562,-6.11744 0.78563,-7.47922 -10e-6,-0.43993 -0.021,-0.84846 -0.0628,-1.22559 1.80171,0.48188 3.21584,1.38274 4.24241,2.70258 -10e-6,0.16762 -0.021,0.50282 -0.0629,1.00561 -0.021,0.41902 -0.0314,0.75422 -0.0314,1.00561 -10e-6,0.60757 0.15711,1.0999 0.47137,1.47699 2.76542,-3.87577 4.56713,-6.22219 5.40515,-7.03927 2.30451,-2.26259 4.94423,-3.3939 7.91918,-3.39393 3.41485,3e-5 5.98125,1.71794 7.69919,5.15375 1.34079,2.66069 2.01119,5.89749 2.01122,9.71041"
           id="path3050"
           style="font-size:64.35899353px;font-variant:normal;font-stretch:normal;text-align:center;text-anchor:middle;font-family:Domestic Manners;-inkscape-font-specification:Domestic Manners" />
        <path
           d="m 590.12437,654.61281 c 3.05871,3e-5 5.71938,1.11039 7.98203,3.33108 2.28354,2.1998 3.42532,4.82904 3.42535,7.88775 -3e-5,4.211 -1.64462,7.89823 -4.93377,11.0617 -3.2892,3.16348 -7.04976,4.74522 -11.28168,4.74522 -4.0015,0 -7.2383,-1.51889 -9.71041,-4.55666 -0.0419,-0.5028 -0.0629,-0.99513 -0.0629,-1.47699 -1e-5,-4.90234 1.82266,-9.17617 5.468,-12.82152 -10e-6,-2.3045 0.95322,-4.26334 2.8597,-5.87653 1.82265,-1.52934 3.90719,-2.29402 6.25363,-2.29405 m 6.85071,10.6846 c -2e-5,-1.57125 -0.54473,-2.88063 -1.63411,-3.92816 -1.08943,-1.06844 -2.41977,-1.60267 -3.99101,-1.60269 -1.15228,2e-5 -2.15789,0.36665 -3.01683,1.09989 0.60754,1.02657 0.91131,1.96933 0.91133,2.82827 -2e-5,1.25703 -0.73327,2.52452 -2.19977,3.80246 -1.36177,1.11037 -2.71306,2.22073 -4.05386,3.33108 -1.42462,1.40367 -2.09503,2.90161 -2.01122,4.49382 l 0.0314,0.59708 c 2.99586,0 5.21658,-0.14665 6.66216,-0.43995 2.3883,-0.48185 4.34714,-1.46651 5.87653,-2.95398 2.28354,-2.24166 3.42533,-4.65093 3.42535,-7.22782"
           id="path3052"
           style="font-size:64.35899353px;font-variant:normal;font-stretch:normal;text-align:center;text-anchor:middle;font-family:Domestic Manners;-inkscape-font-specification:Domestic Manners" />
        <path
           d="m 672.64714,633.49502 c 0.0419,0.859 0.0628,1.71796 0.0628,2.57687 -4e-5,4.77669 -0.84852,10.33896 -2.54545,16.68683 -1.6132,5.42612 -3.23684,10.85222 -4.87092,16.2783 0.23042,0.16761 0.4504,0.25142 0.65993,0.2514 0.23042,2e-5 0.77512,-0.42946 1.63412,-1.28843 0.87987,-0.85895 1.6655,-1.28843 2.35689,-1.28844 -0.29334,1.17322 -1.4037,3.10064 -3.33108,5.78225 -1.71795,2.36738 -2.54548,4.2948 -2.4826,5.78226 l 0.0314,0.40853 1.13131,0 c 0.0209,1.15226 -0.65996,1.72839 -2.04264,1.72839 -0.39809,0 -1.02659,-0.0838 -1.88552,-0.25141 -0.83804,-0.1676 -1.47702,-0.2514 -1.91694,-0.2514 -1.44559,0 -3.62441,0.2095 -6.53646,0.62851 -2.89115,0.39805 -5.06997,0.59708 -6.53646,0.59708 -1.84363,0 -3.6244,-0.2933 -5.3423,-0.87991 -2.15788,-0.73326 -3.59297,-1.77029 -4.30527,-3.1111 -0.46091,-0.85896 -0.69136,-2.12644 -0.69136,-3.80246 0,-4.98614 2.75495,-9.06095 8.26486,-12.22444 4.67187,-2.66065 9.69991,-3.99099 15.08414,-3.99101 1.50838,2e-5 2.96442,0.10477 4.36811,0.31425 1.02653,-2.57685 2.17879,-6.56786 3.45678,-11.97304 1.29888,-5.4051 2.46161,-9.39611 3.48821,-11.97303 l 1.94837,0 m -10.8103,28.97412 c -1.17324,-0.33519 -2.44073,-0.50279 -3.80246,-0.50281 -4.02246,2e-5 -7.92967,1.1837 -11.72164,3.55106 -3.77104,2.36738 -5.65656,4.72428 -5.65655,7.07069 -10e-6,2.74448 2.16834,4.11672 6.50504,4.11671 4.77662,10e-6 9.15521,-1.26748 13.13577,-3.80246 -3e-5,-1.31985 0.21995,-3.06919 0.65993,-5.24802 0.50278,-2.55591 0.79608,-4.2843 0.87991,-5.18517"
           id="path3054"
           style="font-size:64.35899353px;font-variant:normal;font-stretch:normal;text-align:center;text-anchor:middle;font-family:Domestic Manners;-inkscape-font-specification:Domestic Manners" />
        <path
           d="m 705.04666,660.01796 c -4e-5,1.06848 -0.49237,2.23122 -1.47699,3.48821 -5.88704,3.47775 -12.08829,5.21661 -18.60377,5.2166 -1.19418,10e-6 -2.41976,-0.0628 -3.67676,-0.18855 -1.06847,0.75422 -1.6027,1.78077 -1.60269,3.07968 -1e-5,1.34082 0.54469,2.41975 1.63411,3.2368 0.9637,0.75421 2.13691,1.13132 3.51964,1.13131 1.94835,1e-5 5.01755,-0.84848 9.20761,-2.54545 4.19,-1.69695 7.1754,-2.54544 8.9562,-2.54545 1.02653,10e-6 1.86453,0.24094 2.51403,0.72279 -7.1231,6.26411 -13.60718,9.39616 -19.45226,9.39616 -3.28919,0 -5.86606,-0.76468 -7.73062,-2.29405 -2.01123,-1.65506 -3.01683,-4.08528 -3.01683,-7.29067 0,-0.48184 0.021,-1.18367 0.0629,-2.10549 0.0419,-0.94275 0.0629,-1.65505 0.0629,-2.13692 0,-1.4665 -0.2095,-2.56638 -0.6285,-3.29966 1.84361,-0.31423 3.991,-1.60267 6.44218,-3.86531 2.61876,-2.40925 4.58808,-3.82338 5.90796,-4.24241 2.1788,-0.69133 4.61949,-1.03701 7.32209,-1.03704 2.19974,3e-5 4.32618,0.36666 6.37933,1.09989 2.78634,1.00563 4.17953,2.39882 4.17957,4.17956 m -4.55667,0 c -1.55034,-0.77513 -3.26826,-1.16271 -5.15375,-1.16273 -1.73889,2e-5 -3.53013,0.3457 -5.37372,1.03703 -2.07409,0.77518 -3.56155,1.78079 -4.46239,3.01683 -0.48187,0.67042 -0.7228,1.19418 -0.72279,1.57126 -10e-6,0.71233 0.63897,1.06848 1.91695,1.06846 1.94835,2e-5 4.37857,-0.58659 7.29066,-1.75981 2.91205,-1.17319 5.0804,-2.4302 6.50504,-3.77104"
           id="path3056"
           style="font-size:64.35899353px;font-variant:normal;font-stretch:normal;text-align:center;text-anchor:middle;font-family:Domestic Manners;-inkscape-font-specification:Domestic Manners" />
        <path
           d="m 733.01517,659.51516 c 0.0419,0.29332 0.0628,0.57615 0.0629,0.84848 -3e-5,1.88554 -0.94279,2.8283 -2.82828,2.82828 -0.85898,2e-5 -2.12647,-0.20949 -3.80246,-0.62851 -1.65509,-0.43993 -2.90162,-0.65991 -3.73961,-0.65993 -1.06848,2e-5 -2.07409,0.31427 -3.01683,0.94276 -1.06847,0.71232 -1.6027,1.57128 -1.60269,2.57687 -10e-6,1.02658 1.14177,2.28359 3.42536,3.77104 2.1369,1.36177 4.27382,2.72353 6.41076,4.08529 2.28354,1.71792 3.42533,3.35203 3.42536,4.90234 -3e-5,1.36176 -0.52379,2.41975 -1.57127,3.17395 -0.92183,0.67041 -2.07409,1.00561 -3.45678,1.00561 -1.61319,0 -4.02246,-0.31425 -7.22782,-0.94275 -3.20539,-0.62851 -5.62513,-0.94276 -7.25924,-0.94276 -1.11037,0 -2.13693,0.0943 -3.07968,0.28282 -0.48186,-0.18855 -1.07894,-0.86943 -1.79124,-2.04264 -0.85896,-1.44556 -1.38271,-2.27309 -1.57126,-2.4826 1.15225,-0.25139 2.46164,-0.3771 3.92816,-0.3771 2.34641,0 5.43656,0.39806 9.27046,1.19416 3.83386,0.79611 6.02316,1.19416 6.56788,1.19416 0.77514,0 1.16272,-0.19902 1.16274,-0.59708 -2e-5,-0.98465 -1.15228,-2.15786 -3.45678,-3.51963 -4.10626,-2.40926 -6.26412,-3.68723 -6.47361,-3.83389 -2.30453,-1.69695 -3.45679,-3.44629 -3.45678,-5.24802 -10e-6,-2.59781 1.33032,-4.79757 3.99101,-6.59931 2.36735,-1.61314 4.9128,-2.41972 7.63634,-2.41975 3.43581,3e-5 6.25361,1.16276 8.45341,3.48821"
           id="path3058"
           style="font-size:64.35899353px;font-variant:normal;font-stretch:normal;text-align:center;text-anchor:middle;font-family:Domestic Manners;-inkscape-font-specification:Domestic Manners" />
        <path
           d="m 766.64022,660.01796 c -3e-5,1.06848 -0.49236,2.23122 -1.47698,3.48821 -5.88704,3.47775 -12.08829,5.21661 -18.60378,5.2166 -1.19417,10e-6 -2.41976,-0.0628 -3.67676,-0.18855 -1.06847,0.75422 -1.6027,1.78077 -1.60269,3.07968 -10e-6,1.34082 0.5447,2.41975 1.63412,3.2368 0.9637,0.75421 2.1369,1.13132 3.51963,1.13131 1.94835,1e-5 5.01755,-0.84848 9.20761,-2.54545 4.19001,-1.69695 7.17541,-2.54544 8.95621,-2.54545 1.02652,10e-6 1.86453,0.24094 2.51402,0.72279 -7.12309,6.26411 -13.60717,9.39616 -19.45225,9.39616 -3.2892,0 -5.86607,-0.76468 -7.73062,-2.29405 -2.01123,-1.65506 -3.01684,-4.08528 -3.01683,-7.29067 -10e-6,-0.48184 0.0209,-1.18367 0.0629,-2.10549 0.0419,-0.94275 0.0628,-1.65505 0.0629,-2.13692 -10e-6,-1.4665 -0.20951,-2.56638 -0.62851,-3.29966 1.84361,-0.31423 3.99101,-1.60267 6.44219,-3.86531 2.61876,-2.40925 4.58807,-3.82338 5.90795,-4.24241 2.1788,-0.69133 4.6195,-1.03701 7.3221,-1.03704 2.19974,3e-5 4.32618,0.36666 6.37933,1.09989 2.78634,1.00563 4.17953,2.39882 4.17956,4.17956 m -4.55666,0 c -1.55035,-0.77513 -3.26826,-1.16271 -5.15375,-1.16273 -1.73889,2e-5 -3.53013,0.3457 -5.37373,1.03703 -2.07408,0.77518 -3.56155,1.78079 -4.46239,3.01683 -0.48187,0.67042 -0.72279,1.19418 -0.72278,1.57126 -10e-6,0.71233 0.63897,1.06848 1.91694,1.06846 1.94835,2e-5 4.37857,-0.58659 7.29067,-1.75981 2.91205,-1.17319 5.08039,-2.4302 6.50504,-3.77104"
           id="path3060"
           style="font-size:64.35899353px;font-variant:normal;font-stretch:normal;text-align:center;text-anchor:middle;font-family:Domestic Manners;-inkscape-font-specification:Domestic Manners" />
        <path
           d="m 794.60873,659.51516 c 0.0419,0.29332 0.0628,0.57615 0.0628,0.84848 -3e-5,1.88554 -0.94278,2.8283 -2.82827,2.82828 -0.85899,2e-5 -2.12647,-0.20949 -3.80246,-0.62851 -1.65509,-0.43993 -2.90162,-0.65991 -3.73961,-0.65993 -1.06848,2e-5 -2.07409,0.31427 -3.01683,0.94276 -1.06847,0.71232 -1.6027,1.57128 -1.60269,2.57687 -1e-5,1.02658 1.14177,2.28359 3.42536,3.77104 2.1369,1.36177 4.27381,2.72353 6.41076,4.08529 2.28354,1.71792 3.42532,3.35203 3.42535,4.90234 -3e-5,1.36176 -0.52378,2.41975 -1.57126,3.17395 -0.92184,0.67041 -2.0741,1.00561 -3.45678,1.00561 -1.61319,0 -4.02246,-0.31425 -7.22782,-0.94275 -3.20539,-0.62851 -5.62514,-0.94276 -7.25924,-0.94276 -1.11037,0 -2.13693,0.0943 -3.07968,0.28282 -0.48186,-0.18855 -1.07894,-0.86943 -1.79124,-2.04264 -0.85896,-1.44556 -1.38272,-2.27309 -1.57127,-2.4826 1.15226,-0.25139 2.46165,-0.3771 3.92817,-0.3771 2.34641,0 5.43656,0.39806 9.27046,1.19416 3.83386,0.79611 6.02315,1.19416 6.56788,1.19416 0.77514,0 1.16271,-0.19902 1.16274,-0.59708 -3e-5,-0.98465 -1.15229,-2.15786 -3.45678,-3.51963 -4.10626,-2.40926 -6.26413,-3.68723 -6.47361,-3.83389 -2.30454,-1.69695 -3.4568,-3.44629 -3.45679,-5.24802 -10e-6,-2.59781 1.33033,-4.79757 3.99102,-6.59931 2.36735,-1.61314 4.9128,-2.41972 7.63634,-2.41975 3.43581,3e-5 6.25361,1.16276 8.4534,3.48821"
           id="path3062"
           style="font-size:64.35899353px;font-variant:normal;font-stretch:normal;text-align:center;text-anchor:middle;font-family:Domestic Manners;-inkscape-font-specification:Domestic Manners" />
        <path
           d="m 814.21811,682.10994 c -3.1635,0 -6.4422,-1.01608 -9.83612,-3.04825 -0.98467,3.37298 -1.95885,6.73548 -2.92255,10.08752 -1.50842,4.54618 -2.98541,7.5211 -4.43097,8.92478 -1.92742,-0.31427 -2.89112,-1.28845 -2.89112,-2.92255 0,-0.71232 0.47137,-2.41976 1.41414,-5.12233 1.96931,-5.61465 2.95397,-10.21321 2.95397,-13.7957 0,-1.19415 -0.0838,-2.32546 -0.2514,-3.39393 1.40366,-1.1732 2.67114,-3.44629 3.80246,-6.81929 1.61315,-4.75567 2.56639,-7.41634 2.8597,-7.98202 1.27795,-2.57685 2.94349,-3.86528 4.99662,-3.86531 3.31011,3e-5 6.36884,2.08457 9.17619,6.25363 2.55589,3.81295 3.83385,7.46876 3.83388,10.96743 -3e-5,2.40928 -0.51331,4.60905 -1.53984,6.59931 -1.23609,2.34642 -2.93305,3.67676 -5.09089,3.99101 -0.56568,0.0838 -1.25704,0.1257 -2.07407,0.1257 m -2.51402,-22.2491 c -2.01124,2e-5 -3.57203,1.83316 -4.68237,5.49942 -0.56567,2.72354 -1.13133,5.44706 -1.69697,8.17058 2.97491,2.11597 5.65653,3.17396 8.04488,3.17395 1.52934,10e-6 2.74445,-0.5028 3.64533,-1.50841 0.92178,-1.0056 1.38268,-2.27309 1.38271,-3.80246 -3e-5,-1.99026 -0.64948,-4.31573 -1.94837,-6.97642 -1.46653,-3.03775 -3.04827,-4.55664 -4.74521,-4.55666"
           id="path3064"
           style="font-size:64.35899353px;font-variant:normal;font-stretch:normal;text-align:center;text-anchor:middle;font-family:Domestic Manners;-inkscape-font-specification:Domestic Manners" />
        <path
           d="m 858.15066,660.01796 c -4e-5,1.06848 -0.49236,2.23122 -1.47699,3.48821 -5.88703,3.47775 -12.08828,5.21661 -18.60377,5.2166 -1.19418,10e-6 -2.41976,-0.0628 -3.67676,-0.18855 -1.06847,0.75422 -1.6027,1.78077 -1.60269,3.07968 -10e-6,1.34082 0.5447,2.41975 1.63412,3.2368 0.96369,0.75421 2.1369,1.13132 3.51963,1.13131 1.94835,1e-5 5.01755,-0.84848 9.20761,-2.54545 4.19001,-1.69695 7.17541,-2.54544 8.95621,-2.54545 1.02652,10e-6 1.86453,0.24094 2.51402,0.72279 -7.1231,6.26411 -13.60717,9.39616 -19.45225,9.39616 -3.2892,0 -5.86607,-0.76468 -7.73063,-2.29405 -2.01122,-1.65506 -3.01683,-4.08528 -3.01682,-7.29067 -10e-6,-0.48184 0.0209,-1.18367 0.0629,-2.10549 0.0419,-0.94275 0.0628,-1.65505 0.0629,-2.13692 -10e-6,-1.4665 -0.20951,-2.56638 -0.62851,-3.29966 1.84361,-0.31423 3.991,-1.60267 6.44219,-3.86531 2.61876,-2.40925 4.58807,-3.82338 5.90795,-4.24241 2.1788,-0.69133 4.6195,-1.03701 7.32209,-1.03704 2.19975,3e-5 4.32619,0.36666 6.37934,1.09989 2.78634,1.00563 4.17952,2.39882 4.17956,4.17956 m -4.55667,0 c -1.55034,-0.77513 -3.26826,-1.16271 -5.15374,-1.16273 -1.73889,2e-5 -3.53013,0.3457 -5.37373,1.03703 -2.07409,0.77518 -3.56155,1.78079 -4.46239,3.01683 -0.48187,0.67042 -0.7228,1.19418 -0.72278,1.57126 -2e-5,0.71233 0.63896,1.06848 1.91694,1.06846 1.94835,2e-5 4.37857,-0.58659 7.29067,-1.75981 2.91205,-1.17319 5.08039,-2.4302 6.50503,-3.77104"
           id="path3066"
           style="font-size:64.35899353px;font-variant:normal;font-stretch:normal;text-align:center;text-anchor:middle;font-family:Domestic Manners;-inkscape-font-specification:Domestic Manners" />
        <path
           d="m 887.97322,662.72054 c -1.21514,1.50843 -2.48262,2.26264 -3.80246,2.26262 -0.48188,2e-5 -0.91135,-0.10474 -1.28843,-0.31425 -0.50283,-0.85894 -1.22561,-1.62363 -2.16835,-2.29405 -1.02658,-0.71229 -2.00076,-1.06844 -2.92255,-1.06846 -2.87019,2e-5 -5.28994,2.81782 -7.25924,8.4534 -1.59223,4.5043 -2.38833,8.60006 -2.38832,12.28729 -0.39807,0.1676 -0.7647,0.2514 -1.09989,0.2514 -1.71792,0 -2.76543,-1.24653 -3.14253,-3.73961 -0.10475,-1.63411 -0.27236,-3.991 -0.5028,-7.07069 -0.35616,-3.18441 -0.53424,-5.55178 -0.53423,-7.10211 -10e-6,-2.66066 0.34567,-5.01755 1.03703,-7.07069 2.30452,0.75423 3.45677,1.52938 3.45678,2.32547 -1e-5,0.29332 -0.0419,0.7228 -0.1257,1.28844 -0.0838,0.56567 -0.12571,0.99515 -0.1257,1.28843 -10e-6,0.69138 0.20949,1.24656 0.62851,1.66554 2.93301,-2.91205 4.52522,-4.47284 4.77664,-4.68236 2.095,-1.7179 4.08527,-2.57685 5.97081,-2.57688 1.82264,3e-5 3.59293,0.68091 5.31087,2.04265 0.14663,0.12572 1.53981,1.47701 4.17956,4.05386"
           id="path3068"
           style="font-size:64.35899353px;font-variant:normal;font-stretch:normal;text-align:center;text-anchor:middle;font-family:Domestic Manners;-inkscape-font-specification:Domestic Manners" />
        <path
           d="m 921.50405,660.01796 c -3e-5,1.06848 -0.49236,2.23122 -1.47698,3.48821 -5.88704,3.47775 -12.08829,5.21661 -18.60378,5.2166 -1.19417,10e-6 -2.41976,-0.0628 -3.67675,-0.18855 -1.06848,0.75422 -1.60271,1.78077 -1.60269,3.07968 -2e-5,1.34082 0.54469,2.41975 1.63411,3.2368 0.9637,0.75421 2.13691,1.13132 3.51963,1.13131 1.94835,1e-5 5.01755,-0.84848 9.20761,-2.54545 4.19001,-1.69695 7.17541,-2.54544 8.95621,-2.54545 1.02652,10e-6 1.86453,0.24094 2.51402,0.72279 -7.12309,6.26411 -13.60717,9.39616 -19.45225,9.39616 -3.2892,0 -5.86607,-0.76468 -7.73062,-2.29405 -2.01123,-1.65506 -3.01684,-4.08528 -3.01683,-7.29067 -10e-6,-0.48184 0.0209,-1.18367 0.0629,-2.10549 0.0419,-0.94275 0.0628,-1.65505 0.0629,-2.13692 -10e-6,-1.4665 -0.20951,-2.56638 -0.6285,-3.29966 1.8436,-0.31423 3.991,-1.60267 6.44218,-3.86531 2.61876,-2.40925 4.58807,-3.82338 5.90795,-4.24241 2.1788,-0.69133 4.6195,-1.03701 7.3221,-1.03704 2.19974,3e-5 4.32618,0.36666 6.37933,1.09989 2.78634,1.00563 4.17953,2.39882 4.17956,4.17956 m -4.55666,0 c -1.55035,-0.77513 -3.26826,-1.16271 -5.15375,-1.16273 -1.73889,2e-5 -3.53013,0.3457 -5.37372,1.03703 -2.07409,0.77518 -3.56156,1.78079 -4.4624,3.01683 -0.48187,0.67042 -0.72279,1.19418 -0.72278,1.57126 -10e-6,0.71233 0.63897,1.06848 1.91695,1.06846 1.94834,2e-5 4.37856,-0.58659 7.29066,-1.75981 2.91205,-1.17319 5.08039,-2.4302 6.50504,-3.77104"
           id="path3070"
           style="font-size:64.35899353px;font-variant:normal;font-stretch:normal;text-align:center;text-anchor:middle;font-family:Domestic Manners;-inkscape-font-specification:Domestic Manners" />
        <path
           d="m 933.35135,673.78224 c -10e-6,1.02657 -0.34569,2.33595 -1.03703,3.92816 -1.06847,2.43022 -1.62365,3.69771 -1.66554,3.80246 -0.33522,0.31425 -0.68089,0.47138 -1.03704,0.47138 -0.43996,0 -0.95324,-0.3771 -1.53984,-1.13131 -0.75421,-1.00561 -1.18369,-1.55031 -1.28843,-1.63411 -0.37711,-0.73326 -0.56566,-1.44556 -0.56566,-2.13692 0,-1.82267 1.12083,-3.17395 3.36251,-4.05387 0.60754,-0.25139 0.9637,-0.37709 1.06846,-0.3771 1.2989,10e-6 2.19976,0.37711 2.70257,1.13131"
           id="path3072"
           style="font-size:64.35899353px;font-variant:normal;font-stretch:normal;text-align:center;text-anchor:middle;font-family:Domestic Manners;-inkscape-font-specification:Domestic Manners" />
        <path
           d="m 946.9271,673.78224 c -2e-5,1.02657 -0.34569,2.33595 -1.03704,3.92816 -1.06847,2.43022 -1.62365,3.69771 -1.66554,3.80246 -0.33521,0.31425 -0.68089,0.47138 -1.03703,0.47138 -0.43996,0 -0.95324,-0.3771 -1.53984,-1.13131 -0.75422,-1.00561 -1.18369,-1.55031 -1.28844,-1.63411 -0.37711,-0.73326 -0.56566,-1.44556 -0.56566,-2.13692 0,-1.82267 1.12084,-3.17395 3.36251,-4.05387 0.60755,-0.25139 0.9637,-0.37709 1.06846,-0.3771 1.2989,10e-6 2.19976,0.37711 2.70258,1.13131"
           id="path3074"
           style="font-size:64.35899353px;font-variant:normal;font-stretch:normal;text-align:center;text-anchor:middle;font-family:Domestic Manners;-inkscape-font-specification:Domestic Manners" />
        <path
           d="m 960.50284,673.78224 c -10e-6,1.02657 -0.34569,2.33595 -1.03703,3.92816 -1.06847,2.43022 -1.62365,3.69771 -1.66554,3.80246 -0.33522,0.31425 -0.68089,0.47138 -1.03704,0.47138 -0.43996,0 -0.95324,-0.3771 -1.53984,-1.13131 -0.75421,-1.00561 -1.18369,-1.55031 -1.28844,-1.63411 -0.3771,-0.73326 -0.56565,-1.44556 -0.56565,-2.13692 0,-1.82267 1.12083,-3.17395 3.36251,-4.05387 0.60754,-0.25139 0.9637,-0.37709 1.06846,-0.3771 1.2989,10e-6 2.19976,0.37711 2.70257,1.13131"
           id="path3076"
           style="font-size:64.35899353px;font-variant:normal;font-stretch:normal;text-align:center;text-anchor:middle;font-family:Domestic Manners;-inkscape-font-specification:Domestic Manners" />
        <path
           d="m 129.61816,779.59119 c -2.30454,-2e-5 -4.03293,-0.5552 -5.18518,-1.66554 -1.04751,-1.04752 -1.77029,-2.74449 -2.16834,-5.0909 2.07406,0.60755 4.2005,0.91132 6.37933,0.91134 8.79906,-2e-5 14.05756,-5.23756 15.7755,-15.71265 -3.91771,2.82828 -7.50019,4.24242 -10.74745,4.24242 -5.40516,0 -8.10774,-2.89113 -8.10773,-8.67338 -1e-5,-1.96931 0.32472,-4.57761 0.97419,-7.8249 0.67039,-3.26821 1.0056,-5.0804 1.00561,-5.43658 -1e-5,-0.14663 -0.0419,-0.3666 -0.1257,-0.65993 -0.0838,-0.31423 -0.12572,-0.54468 -0.12571,-0.69135 -1e-5,-0.73324 0.34567,-1.36174 1.03704,-1.88552 0.62849,-0.46088 1.33032,-0.69133 2.10549,-0.69136 1.3408,3e-5 2.01121,0.78566 2.01122,2.3569 -1e-5,1.65509 -0.45044,4.09578 -1.35129,7.32209 -0.90087,3.20539 -1.3513,5.62514 -1.35128,7.25924 -2e-5,2.82829 1.56077,4.24242 4.68237,4.24242 2.9749,0 6.49453,-1.61316 10.55889,-4.8395 0.0838,-1.52935 0.12567,-3.19489 0.1257,-4.99662 -3e-5,-1.5503 -0.0733,-3.87577 -0.21997,-6.97641 -0.14668,-3.12156 -0.22001,-5.43655 -0.21998,-6.94499 3.03775,1.50844 4.55663,4.38909 4.55667,8.64195 -4e-5,8.65244 -0.56569,15.2727 -1.69697,19.86079 -1.8646,7.64681 -5.5204,12.8215 -10.96743,15.52409 -2.32548,1.15224 -4.64048,1.72837 -6.94498,1.72839"
           id="path3078"
           style="font-size:64.35899353px;font-variant:normal;font-stretch:normal;text-align:center;text-anchor:middle;font-family:Domestic Manners;-inkscape-font-specification:Domestic Manners" />
        <path
           d="m 169.21402,735.06156 c 3.05871,2e-5 5.71938,1.11038 7.98202,3.33108 2.28354,2.19979 3.42533,4.82903 3.42536,7.88774 -3e-5,4.211 -1.64462,7.89823 -4.93377,11.06171 -3.2892,3.16348 -7.04976,4.74521 -11.28168,4.74521 -4.0015,0 -7.2383,-1.51888 -9.71041,-4.55666 -0.0419,-0.5028 -0.0629,-0.99513 -0.0628,-1.47699 -1e-5,-4.90234 1.82266,-9.17617 5.468,-12.82152 -1e-5,-2.3045 0.95322,-4.26334 2.8597,-5.87653 1.82265,-1.52934 3.90719,-2.29402 6.25363,-2.29404 m 6.85071,10.68459 c -2e-5,-1.57124 -0.54473,-2.88063 -1.63411,-3.92816 -1.08944,-1.06844 -2.41977,-1.60267 -3.99101,-1.60269 -1.15228,2e-5 -2.15789,0.36665 -3.01683,1.09989 0.60754,1.02658 0.91131,1.96933 0.91133,2.82827 -2e-5,1.25703 -0.73327,2.52452 -2.19977,3.80246 -1.36178,1.11038 -2.71306,2.22074 -4.05386,3.33108 -1.42462,1.40368 -2.09503,2.90161 -2.01122,4.49382 l 0.0314,0.59708 c 2.99586,1e-5 5.21658,-0.14664 6.66216,-0.43995 2.3883,-0.48185 4.34714,-1.46651 5.87653,-2.95398 2.28354,-2.24166 3.42533,-4.65093 3.42535,-7.22782"
           id="path3080"
           style="font-size:64.35899353px;font-variant:normal;font-stretch:normal;text-align:center;text-anchor:middle;font-family:Domestic Manners;-inkscape-font-specification:Domestic Manners" />
        <path
           d="m 229.42488,721.89436 c -2e-5,2.87021 -1.16276,5.09093 -3.48821,6.66216 -1.02657,9.30191 -1.92743,19.34752 -2.70258,30.13685 0.5866,0.54471 0.8799,1.20464 0.87991,1.9798 -1e-5,0.69135 -0.20951,1.33033 -0.6285,1.91694 -0.48187,0.64945 -1.058,0.97418 -1.7284,0.97418 -0.79611,0 -1.46652,-0.47138 -2.01121,-1.41414 0.31424,-10.45413 0.84847,-19.63031 1.60269,-27.52855 0.20949,-2.80729 0.70182,-6.7564 1.47698,-11.84733 0.18855,-0.81702 0.80658,-1.6655 1.8541,-2.54545 1.04749,-0.87987 1.97978,-1.31982 2.79685,-1.31986 1.29889,4e-5 1.94835,0.99517 1.94837,2.9854"
           id="path3082"
           style="font-size:64.35899353px;font-variant:normal;font-stretch:normal;text-align:center;text-anchor:middle;font-family:Domestic Manners;-inkscape-font-specification:Domestic Manners" />
        <path
           d="m 242.12069,721.89436 c -2e-5,2.87021 -1.16275,5.09093 -3.48821,6.66216 -1.02657,9.30191 -1.92743,19.34752 -2.70257,30.13685 0.58659,0.54471 0.8799,1.20464 0.87991,1.9798 -1e-5,0.69135 -0.20952,1.33033 -0.62851,1.91694 -0.48186,0.64945 -1.05799,0.97418 -1.72839,0.97418 -0.79612,0 -1.46652,-0.47138 -2.01122,-1.41414 0.31425,-10.45413 0.84848,-19.63031 1.60269,-27.52855 0.20949,-2.80729 0.70182,-6.7564 1.47699,-11.84733 0.18854,-0.81702 0.80657,-1.6655 1.85409,-2.54545 1.0475,-0.87987 1.97978,-1.31982 2.79685,-1.31986 1.2989,4e-5 1.94835,0.99517 1.94837,2.9854"
           id="path3084"
           style="font-size:64.35899353px;font-variant:normal;font-stretch:normal;text-align:center;text-anchor:middle;font-family:Domestic Manners;-inkscape-font-specification:Domestic Manners" />
        <path
           d="m 273.13746,740.4667 c -4e-5,1.06848 -0.49237,2.23122 -1.47699,3.48821 -5.88703,3.47775 -12.08829,5.21661 -18.60377,5.2166 -1.19418,10e-6 -2.41976,-0.0628 -3.67676,-0.18855 -1.06847,0.75422 -1.6027,1.78078 -1.60269,3.07968 -1e-5,1.34082 0.54469,2.41975 1.63411,3.2368 0.9637,0.75421 2.13691,1.13132 3.51964,1.13131 1.94835,10e-6 5.01755,-0.84847 9.20761,-2.54545 4.19001,-1.69695 7.1754,-2.54543 8.9562,-2.54544 1.02653,10e-6 1.86453,0.24093 2.51403,0.72278 -7.1231,6.26411 -13.60718,9.39616 -19.45226,9.39616 -3.28919,0 -5.86606,-0.76468 -7.73062,-2.29405 -2.01123,-1.65506 -3.01683,-4.08528 -3.01683,-7.29066 0,-0.48185 0.0209,-1.18368 0.0628,-2.1055 0.0419,-0.94275 0.0628,-1.65505 0.0628,-2.13692 0,-1.4665 -0.2095,-2.56638 -0.6285,-3.29965 1.84361,-0.31424 3.991,-1.60268 6.44218,-3.86532 2.61876,-2.40924 4.58808,-3.82338 5.90796,-4.24241 2.1788,-0.69133 4.61949,-1.03701 7.32209,-1.03703 2.19974,2e-5 4.32618,0.36665 6.37933,1.09988 2.78634,1.00564 4.17953,2.39882 4.17957,4.17956 m -4.55667,0 c -1.55034,-0.77513 -3.26826,-1.16271 -5.15375,-1.16273 -1.73889,2e-5 -3.53013,0.3457 -5.37372,1.03703 -2.07409,0.77518 -3.56155,1.78079 -4.46239,3.01683 -0.48187,0.67043 -0.7228,1.19418 -0.72278,1.57127 -2e-5,0.71232 0.63896,1.06847 1.91694,1.06846 1.94835,10e-6 4.37857,-0.58659 7.29067,-1.75982 2.91204,-1.17319 5.08039,-2.4302 6.50503,-3.77104"
           id="path3086"
           style="font-size:64.35899353px;font-variant:normal;font-stretch:normal;text-align:center;text-anchor:middle;font-family:Domestic Manners;-inkscape-font-specification:Domestic Manners" />
        <path
           d="m 304.877,731.79332 c 2.05309,3e-5 3.07965,1.00564 3.07968,3.01683 -3e-5,1.57129 -1.25705,4.00151 -3.77104,7.29067 -1.86459,2.32549 -3.71868,4.64048 -5.56227,6.94499 -2.7026,3.81294 -4.33671,6.08604 -4.90235,6.81929 -1.96933,2.49307 -3.93865,4.48334 -5.90795,5.9708 -2.36739,-0.83801 -4.2529,-2.8178 -5.65655,-5.93938 -0.87992,-1.96931 -1.78078,-5.11183 -2.70258,-9.42758 -0.94276,-4.39953 -1.71792,-7.32207 -2.32547,-8.76766 0.5447,-1.63409 1.19416,-2.45115 1.94837,-2.45117 0.35615,2e-5 0.74372,0.1781 1.16273,0.53423 0.96371,1.80174 2.08454,5.14329 3.36251,10.02466 1.15225,4.39956 2.47211,7.65731 3.95959,9.77327 2.6816,-2.49307 5.50988,-6.32695 8.48482,-11.50166 3.64531,-6.32693 6.15933,-10.38079 7.54207,-12.16158 0.48183,-0.0838 0.91131,-0.12568 1.28844,-0.12571"
           id="path3088"
           style="font-size:64.35899353px;font-variant:normal;font-stretch:normal;text-align:center;text-anchor:middle;font-family:Domestic Manners;-inkscape-font-specification:Domestic Manners" />
        <path
           d="m 320.30681,735.06156 c 3.0587,2e-5 5.71938,1.11038 7.98202,3.33108 2.28354,2.19979 3.42533,4.82903 3.42536,7.88774 -3e-5,4.211 -1.64462,7.89823 -4.93377,11.06171 -3.2892,3.16348 -7.04976,4.74521 -11.28168,4.74521 -4.0015,0 -7.2383,-1.51888 -9.71042,-4.55666 -0.0419,-0.5028 -0.0629,-0.99513 -0.0629,-1.47699 0,-4.90234 1.82266,-9.17617 5.468,-12.82152 -1e-5,-2.3045 0.95323,-4.26334 2.85971,-5.87653 1.82265,-1.52934 3.90719,-2.29402 6.25363,-2.29404 m 6.85071,10.68459 c -2e-5,-1.57124 -0.54473,-2.88063 -1.63411,-3.92816 -1.08944,-1.06844 -2.41977,-1.60267 -3.99102,-1.60269 -1.15228,2e-5 -2.15788,0.36665 -3.01682,1.09989 0.60753,1.02658 0.91131,1.96933 0.91133,2.82827 -2e-5,1.25703 -0.73327,2.52452 -2.19977,3.80246 -1.36178,1.11038 -2.71306,2.22074 -4.05386,3.33108 -1.42463,1.40368 -2.09503,2.90161 -2.01122,4.49382 l 0.0314,0.59708 c 2.99587,1e-5 5.21659,-0.14664 6.66217,-0.43995 2.3883,-0.48185 4.34714,-1.46651 5.87653,-2.95398 2.28354,-2.24166 3.42533,-4.65093 3.42535,-7.22782"
           id="path3090"
           style="font-size:64.35899353px;font-variant:normal;font-stretch:normal;text-align:center;text-anchor:middle;font-family:Domestic Manners;-inkscape-font-specification:Domestic Manners" />
        <path
           d="m 389.3796,735.12441 c -3e-5,2.30454 -0.69139,5.56229 -2.07407,9.77326 -1.42464,4.3786 -2.18932,7.64683 -2.29405,9.80469 0.54468,0.81706 1.26746,1.28844 2.16835,1.41414 1.29888,0.14666 2.11594,0.31426 2.45117,0.5028 0.37707,0.73326 0.56563,1.44557 0.56565,2.13692 -2e-5,1.44557 -1.35131,3.31013 -4.05386,5.59371 -4.06436,0.29329 -6.33745,0.43995 -6.81929,0.43995 -2.82829,0 -5.27946,-0.55518 -7.35351,-1.66554 -2.55593,-1.40366 -3.8339,-3.41488 -3.83389,-6.03366 -10e-6,-1.99026 0.93228,-3.6558 2.79685,-4.99662 1.67601,-1.2151 3.55105,-1.82265 5.62513,-1.82266 1.5084,10e-6 2.90158,0.31426 4.17956,0.94275 2.03215,-3.35201 3.23678,-7.42682 3.61391,-12.22443 -1.65509,0.31427 -4.26338,1.44558 -7.8249,3.39393 -3.24729,1.73888 -5.91843,2.67116 -8.01345,2.79685 -1.40366,-1.13129 -2.10549,-2.61876 -2.10549,-4.46239 0,-0.46089 0.0628,-0.91131 0.18855,-1.35129 1.48746,-0.64943 4.94424,-2.01119 10.37035,-4.08529 5.88698,-2.24164 9.06093,-3.36247 9.52186,-3.3625 1.92739,3e-5 2.8911,1.06848 2.89113,3.20538 m -7.35352,23.44326 c -0.77518,-0.35615 -1.45606,-1.39318 -2.04265,-3.1111 -0.85897,-0.3771 -1.80173,-0.56565 -2.82827,-0.56566 -2.34644,1e-5 -3.47774,0.92182 -3.39393,2.76543 l 0.0314,0.5028 c 1.02655,1.08942 2.51401,1.63412 4.46239,1.63412 1.61315,0 2.87016,-0.40853 3.77104,-1.22559"
           id="path3092"
           style="font-size:64.35899353px;font-variant:normal;font-stretch:normal;text-align:center;text-anchor:middle;font-family:Domestic Manners;-inkscape-font-specification:Domestic Manners" />
        <path
           d="m 424.26169,749.48576 c -4e-5,6.72502 -1.88555,12.84247 -5.65656,18.35237 -0.29333,0.1257 -0.56568,0.18855 -0.81705,0.18855 -0.75424,0 -1.51892,-0.53423 -2.29405,-1.60269 -0.71233,-1.00561 -1.06848,-1.90647 -1.06846,-2.70257 -2e-5,-1.75982 1.35126,-3.59296 4.05386,-5.49943 0.73323,-2.38831 1.09986,-5.27944 1.09989,-8.67338 -3e-5,-2.82826 -0.23048,-4.9128 -0.69136,-6.25363 -0.75423,-2.2626 -2.24169,-3.39391 -4.46239,-3.39393 -3.2054,2e-5 -5.99177,1.87506 -8.35913,5.62513 -1.25702,2.01123 -2.78638,5.50991 -4.58809,10.49604 -1.36177,3.75009 -2.43023,5.62513 -3.20538,5.62513 -2.09502,0 -3.14253,-2.12644 -3.14253,-6.37933 0,-1.50841 0.2514,-4.07481 0.75421,-7.6992 0.52375,-3.62437 0.78563,-6.11744 0.78563,-7.47922 0,-0.43993 -0.0209,-0.84846 -0.0628,-1.22558 1.80171,0.48187 3.21585,1.38273 4.24242,2.70257 -10e-6,0.16762 -0.021,0.50282 -0.0629,1.00561 -0.021,0.41902 -0.0314,0.75422 -0.0314,1.00561 -1e-5,0.60757 0.15712,1.0999 0.47138,1.47699 2.76541,-3.87577 4.56713,-6.22219 5.40515,-7.03927 2.3045,-2.26259 4.94422,-3.3939 7.91917,-3.39393 3.41486,3e-5 5.98125,1.71794 7.6992,5.15375 1.34078,2.66069 2.01118,5.89749 2.01122,9.71041 m -10.40177,-26.55437 c 0.83798,-0.29326 2.6816,-1.50837 5.53085,-3.64533 2.30449,-1.75977 4.44141,-2.60825 6.41076,-2.54545 l 0.40852,0 c 0.94273,0.4819 1.41411,1.31991 1.41414,2.51402 -3e-5,0.5238 -0.22001,1.62369 -0.65993,3.29966 -0.31429,-0.0419 -0.61806,-0.0628 -0.91133,-0.0629 -2.0322,4e-5 -4.3053,1.1942 -6.81929,3.58248 -2.51405,2.36741 -4.67192,3.55109 -6.47361,3.55106 -0.39807,3e-5 -0.8066,-0.0419 -1.22559,-0.1257 -1.00562,-0.64942 -1.5608,-2.12641 -1.66554,-4.43097 -0.10477,-2.53493 -0.45044,-4.14809 -1.03703,-4.83949 -3.31015,1.3199 -5.30041,2.14743 -5.97081,2.4826 -2.30453,1.11039 -4.05387,2.33598 -5.24802,3.67676 -1.27797,-0.75418 -1.91695,-1.90644 -1.91694,-3.45679 -10e-6,-0.69131 0.1257,-1.34077 0.3771,-1.94836 2.19977,-2.17878 4.45191,-3.66624 6.75644,-4.4624 0.87989,-0.3142 3.51962,-0.87986 7.91917,-1.69696 l 2.70258,2.70257 0.40853,5.40515"
           id="path3094"
           style="font-size:64.35899353px;font-variant:normal;font-stretch:normal;text-align:center;text-anchor:middle;font-family:Domestic Manners;-inkscape-font-specification:Domestic Manners" />
        <path
           d="m 444.75096,735.06156 c 3.05871,2e-5 5.71938,1.11038 7.98203,3.33108 2.28354,2.19979 3.42532,4.82903 3.42535,7.88774 -3e-5,4.211 -1.64462,7.89823 -4.93377,11.06171 -3.2892,3.16348 -7.04976,4.74521 -11.28168,4.74521 -4.0015,0 -7.2383,-1.51888 -9.71041,-4.55666 -0.0419,-0.5028 -0.0629,-0.99513 -0.0629,-1.47699 -10e-6,-4.90234 1.82266,-9.17617 5.468,-12.82152 -1e-5,-2.3045 0.95322,-4.26334 2.8597,-5.87653 1.82265,-1.52934 3.90719,-2.29402 6.25363,-2.29404 m 6.85071,10.68459 c -2e-5,-1.57124 -0.54473,-2.88063 -1.63411,-3.92816 -1.08943,-1.06844 -2.41977,-1.60267 -3.99101,-1.60269 -1.15228,2e-5 -2.15789,0.36665 -3.01683,1.09989 0.60754,1.02658 0.91131,1.96933 0.91133,2.82827 -2e-5,1.25703 -0.73327,2.52452 -2.19977,3.80246 -1.36177,1.11038 -2.71306,2.22074 -4.05386,3.33108 -1.42462,1.40368 -2.09503,2.90161 -2.01122,4.49382 l 0.0314,0.59708 c 2.99586,1e-5 5.21658,-0.14664 6.66216,-0.43995 2.3883,-0.48185 4.34714,-1.46651 5.87653,-2.95398 2.28354,-2.24166 3.42533,-4.65093 3.42535,-7.22782"
           id="path3096"
           style="font-size:64.35899353px;font-variant:normal;font-stretch:normal;text-align:center;text-anchor:middle;font-family:Domestic Manners;-inkscape-font-specification:Domestic Manners" />
        <path
           d="m 484.88105,739.9639 c 0.0419,0.29332 0.0628,0.57615 0.0628,0.84848 -3e-5,1.88554 -0.94279,2.8283 -2.82828,2.82828 -0.85898,2e-5 -2.12647,-0.20948 -3.80246,-0.62851 -1.65509,-0.43993 -2.90162,-0.65991 -3.73961,-0.65993 -1.06848,2e-5 -2.07409,0.31427 -3.01683,0.94276 -1.06847,0.71233 -1.6027,1.57128 -1.60269,2.57687 -10e-6,1.02658 1.14177,2.28359 3.42536,3.77104 2.1369,1.36177 4.27382,2.72353 6.41076,4.08529 2.28354,1.71792 3.42533,3.35203 3.42536,4.90234 -3e-5,1.36177 -0.52379,2.41975 -1.57127,3.17396 -0.92183,0.6704 -2.07409,1.0056 -3.45678,1.00561 -1.61319,-10e-6 -4.02246,-0.31426 -7.22782,-0.94276 -3.20539,-0.62851 -5.62514,-0.94276 -7.25924,-0.94276 -1.11037,0 -2.13693,0.0943 -3.07968,0.28283 -0.48186,-0.18855 -1.07894,-0.86944 -1.79124,-2.04265 -0.85896,-1.44556 -1.38272,-2.27309 -1.57126,-2.4826 1.15225,-0.25139 2.46164,-0.37709 3.92816,-0.3771 2.34641,10e-6 5.43656,0.39806 9.27046,1.19416 3.83386,0.79611 6.02316,1.19417 6.56788,1.19416 0.77514,1e-5 1.16272,-0.19902 1.16274,-0.59708 -2e-5,-0.98465 -1.15228,-2.15786 -3.45678,-3.51963 -4.10626,-2.40926 -6.26412,-3.68722 -6.47361,-3.83389 -2.30454,-1.69695 -3.4568,-3.44629 -3.45678,-5.24802 -2e-5,-2.5978 1.33032,-4.79757 3.99101,-6.59931 2.36735,-1.61314 4.9128,-2.41972 7.63634,-2.41975 3.43581,3e-5 6.25361,1.16276 8.45341,3.48821"
           id="path3098"
           style="font-size:64.35899353px;font-variant:normal;font-stretch:normal;text-align:center;text-anchor:middle;font-family:Domestic Manners;-inkscape-font-specification:Domestic Manners" />
        <path
           d="m 533.46457,714.98079 c -2e-5,6.22225 -0.5552,13.17771 -1.66554,20.8664 l 0.97418,-0.0314 c 3.54057,-0.10472 6.98687,0.91136 10.33892,3.04826 3.75006,2.38834 5.6251,5.27946 5.62513,8.67338 -3e-5,0.98467 -0.17811,2.0217 -0.53423,3.1111 -1.71795,5.19565 -6.94501,8.4115 -15.68122,9.64756 -5.48896,0.77516 -8.34866,1.16274 -8.5791,1.16274 -0.98467,0 -2.11598,-0.74373 -3.39393,-2.2312 -0.12571,-0.14665 -0.98467,-1.33033 -2.57688,-3.55105 -0.0419,-0.14665 -0.0629,-0.28283 -0.0629,-0.40853 0,-0.48185 0.59708,-1.12083 1.79124,-1.91695 l 1.53984,0 c 5.44704,-14.70701 8.17056,-26.76383 8.17058,-36.1705 -2e-5,-2.28353 -0.23047,-4.10619 -0.69136,-5.46801 0.94275,5e-5 1.93788,0.30383 2.9854,0.91134 1.1732,0.6914 1.7598,1.47703 1.75982,2.35689 m 10.5589,31.61385 c -3e-5,-2.0112 -0.96374,-3.55104 -2.89113,-4.61952 -1.55034,-0.87989 -3.4149,-1.31984 -5.5937,-1.31986 -1.61318,2e-5 -2.73402,0.17809 -3.36251,0.53423 -1.38272,0.77517 -2.58736,2.83877 -3.61391,6.19078 -0.69136,2.43023 -1.39319,4.84998 -2.10549,7.25924 1.7179,0.85896 3.71865,1.28844 6.00223,1.28844 3.14251,0 5.78223,-0.7542 7.91917,-2.26262 2.4302,-1.69696 3.64531,-4.05385 3.64534,-7.07069"
           id="path3100"
           style="font-size:64.35899353px;font-variant:normal;font-stretch:normal;text-align:center;text-anchor:middle;font-family:Domestic Manners;-inkscape-font-specification:Domestic Manners" />
        <path
           d="m 560.96169,740.78096 c -0.67042,2.28359 -1.3513,4.55668 -2.04264,6.81929 -0.81707,3.01683 -1.2256,5.27945 -1.22559,6.78786 -10e-6,2.19977 0.69135,3.29966 2.07407,3.29965 1.65505,10e-6 4.06432,-2.16834 7.22781,-6.50503 1.99025,-2.76541 3.84434,-5.70891 5.56228,-8.83051 0.37708,-0.31423 0.76466,-0.47136 1.16274,-0.47138 0.52373,2e-5 1.04748,0.3457 1.57126,1.03704 0.37708,0.58662 0.75418,1.16275 1.13131,1.72839 -2.7864,5.23756 -4.17958,8.86194 -4.17956,10.87315 -2e-5,0.81706 0.1152,1.34082 0.34568,1.57126 0.12567,0.14666 0.85893,0.60756 2.19977,1.38272 1.04748,0.60755 1.57123,1.19416 1.57126,1.75981 -3e-5,0.60756 -0.39808,1.23606 -1.19416,1.88552 -0.79613,0.6704 -1.51891,1.00561 -2.16834,1.00561 -1.75984,0 -3.32063,-2.29405 -4.68237,-6.88214 -1.31988,1.21512 -2.62927,2.43023 -3.92816,3.64533 -1.71793,1.38272 -3.2892,2.07407 -4.7138,2.07407 -1.94837,0 -3.45679,-0.78563 -4.52524,-2.35689 -0.92181,-1.36176 -1.38272,-3.05873 -1.38271,-5.0909 -10e-6,-1.48746 0.2095,-3.10062 0.6285,-4.8395 l 2.70258,-11.1874 c 0.27234,-0.0838 0.53422,-0.12568 0.78563,-0.1257 0.4609,2e-5 1.01608,0.31428 1.66554,0.94276 0.48185,0.48188 0.95322,0.9742 1.41414,1.47699"
           id="path3102"
           style="font-size:64.35899353px;font-variant:normal;font-stretch:normal;text-align:center;text-anchor:middle;font-family:Domestic Manners;-inkscape-font-specification:Domestic Manners" />
        <path
           d="m 606.81119,739.9639 c 0.0419,0.29332 0.0628,0.57615 0.0629,0.84848 -3e-5,1.88554 -0.94279,2.8283 -2.82827,2.82828 -0.85899,2e-5 -2.12647,-0.20948 -3.80246,-0.62851 -1.65509,-0.43993 -2.90163,-0.65991 -3.73961,-0.65993 -1.06848,2e-5 -2.07409,0.31427 -3.01683,0.94276 -1.06848,0.71233 -1.60271,1.57128 -1.60269,2.57687 -2e-5,1.02658 1.14177,2.28359 3.42535,3.77104 2.1369,1.36177 4.27382,2.72353 6.41076,4.08529 2.28355,1.71792 3.42533,3.35203 3.42536,4.90234 -3e-5,1.36177 -0.52378,2.41975 -1.57126,3.17396 -0.92184,0.6704 -2.0741,1.0056 -3.45679,1.00561 -1.61318,-10e-6 -4.02245,-0.31426 -7.22781,-0.94276 -3.2054,-0.62851 -5.62514,-0.94276 -7.25924,-0.94276 -1.11037,0 -2.13693,0.0943 -3.07968,0.28283 -0.48186,-0.18855 -1.07894,-0.86944 -1.79124,-2.04265 -0.85897,-1.44556 -1.38272,-2.27309 -1.57127,-2.4826 1.15226,-0.25139 2.46164,-0.37709 3.92816,-0.3771 2.34641,10e-6 5.43657,0.39806 9.27046,1.19416 3.83387,0.79611 6.02316,1.19417 6.56789,1.19416 0.77513,1e-5 1.16271,-0.19902 1.16273,-0.59708 -2e-5,-0.98465 -1.15228,-2.15786 -3.45678,-3.51963 -4.10625,-2.40926 -6.26412,-3.68722 -6.47361,-3.83389 -2.30453,-1.69695 -3.45679,-3.44629 -3.45678,-5.24802 -10e-6,-2.5978 1.33033,-4.79757 3.99101,-6.59931 2.36736,-1.61314 4.9128,-2.41972 7.63635,-2.41975 3.4358,3e-5 6.2536,1.16276 8.4534,3.48821"
           id="path3104"
           style="font-size:64.35899353px;font-variant:normal;font-stretch:normal;text-align:center;text-anchor:middle;font-family:Domestic Manners;-inkscape-font-specification:Domestic Manners" />
        <path
           d="m 638.26789,739.42967 c -0.43999,1.29893 -1.6551,1.94839 -3.64534,1.94837 -0.50283,2e-5 -1.26751,-0.0314 -2.29404,-0.0943 -1.00564,-0.0628 -1.75984,-0.0942 -2.26263,-0.0943 -2.70259,2e-5 -5.85559,1.49795 -9.45901,4.49381 -3.70819,3.07969 -5.56228,5.92892 -5.56227,8.54768 -10e-6,1.23607 0.42947,2.28358 1.28843,3.14253 0.85895,0.83801 1.90646,1.25702 3.14253,1.25701 1.5922,1e-5 4.4938,-1.05798 8.70481,-3.17395 4.21096,-2.13691 7.14398,-3.20537 8.79908,-3.20538 1.96928,1e-5 2.95394,0.71231 2.95398,2.13692 -4e-5,0.62851 -0.12574,1.18369 -0.37711,1.66554 -9.09241,4.54619 -15.86979,6.81929 -20.33216,6.81929 -2.40928,0 -4.51478,-0.60756 -6.31648,-1.82267 -2.05313,-1.38271 -3.07969,-3.22633 -3.07968,-5.53085 -10e-6,-3.72913 2.07406,-7.69918 6.22221,-11.91019 3.01681,-3.0587 6.69357,-5.86603 11.03027,-8.42197 l 0.78563,-0.0314 c 1.65505,-0.0838 3.46724,0.37713 5.43658,1.38271 1.65504,0.96374 3.3101,1.92744 4.9652,2.89113"
           id="path3106"
           style="font-size:64.35899353px;font-variant:normal;font-stretch:normal;text-align:center;text-anchor:middle;font-family:Domestic Manners;-inkscape-font-specification:Domestic Manners" />
        <path
           d="m 665.16796,735.12441 c -3e-5,2.30454 -0.69139,5.56229 -2.07407,9.77326 -1.42464,4.3786 -2.18932,7.64683 -2.29405,9.80469 0.54468,0.81706 1.26746,1.28844 2.16835,1.41414 1.29888,0.14666 2.11594,0.31426 2.45117,0.5028 0.37708,0.73326 0.56563,1.44557 0.56565,2.13692 -2e-5,1.44557 -1.35131,3.31013 -4.05386,5.59371 -4.06436,0.29329 -6.33745,0.43995 -6.81929,0.43995 -2.82829,0 -5.27946,-0.55518 -7.35351,-1.66554 -2.55593,-1.40366 -3.83389,-3.41488 -3.83389,-6.03366 0,-1.99026 0.93228,-3.6558 2.79685,-4.99662 1.67601,-1.2151 3.55105,-1.82265 5.62513,-1.82266 1.5084,10e-6 2.90158,0.31426 4.17956,0.94275 2.03215,-3.35201 3.23679,-7.42682 3.61391,-12.22443 -1.65508,0.31427 -4.26338,1.44558 -7.8249,3.39393 -3.24729,1.73888 -5.91843,2.67116 -8.01345,2.79685 -1.40366,-1.13129 -2.10549,-2.61876 -2.10549,-4.46239 0,-0.46089 0.0629,-0.91131 0.18855,-1.35129 1.48746,-0.64943 4.94424,-2.01119 10.37035,-4.08529 5.88698,-2.24164 9.06093,-3.36247 9.52186,-3.3625 1.92739,3e-5 2.8911,1.06848 2.89113,3.20538 m -7.35352,23.44326 c -0.77518,-0.35615 -1.45606,-1.39318 -2.04265,-3.1111 -0.85897,-0.3771 -1.80173,-0.56565 -2.82827,-0.56566 -2.34643,1e-5 -3.47774,0.92182 -3.39393,2.76543 l 0.0314,0.5028 c 1.02655,1.08942 2.51401,1.63412 4.46239,1.63412 1.61315,0 2.87016,-0.40853 3.77104,-1.22559"
           id="path3108"
           style="font-size:64.35899353px;font-variant:normal;font-stretch:normal;text-align:center;text-anchor:middle;font-family:Domestic Manners;-inkscape-font-specification:Domestic Manners" />
        <path
           d="m 700.20714,749.48576 c -3e-5,6.72502 -1.88555,12.84247 -5.65656,18.35237 -0.29332,0.1257 -0.56568,0.18855 -0.81705,0.18855 -0.75423,0 -1.51892,-0.53423 -2.29405,-1.60269 -0.71233,-1.00561 -1.06848,-1.90647 -1.06846,-2.70257 -2e-5,-1.75982 1.35127,-3.59296 4.05386,-5.49943 0.73323,-2.38831 1.09986,-5.27944 1.09989,-8.67338 -3e-5,-2.82826 -0.23048,-4.9128 -0.69136,-6.25363 -0.75423,-2.2626 -2.24169,-3.39391 -4.46239,-3.39393 -3.2054,2e-5 -5.99177,1.87506 -8.35913,5.62513 -1.25702,2.01123 -2.78638,5.50991 -4.58809,10.49604 -1.36177,3.75009 -2.43023,5.62513 -3.20538,5.62513 -2.09502,0 -3.14253,-2.12644 -3.14253,-6.37933 0,-1.50841 0.2514,-4.07481 0.75421,-7.6992 0.52375,-3.62437 0.78563,-6.11744 0.78563,-7.47922 0,-0.43993 -0.0209,-0.84846 -0.0629,-1.22558 1.80171,0.48187 3.21585,1.38273 4.24242,2.70257 -10e-6,0.16762 -0.021,0.50282 -0.0629,1.00561 -0.0209,0.41902 -0.0314,0.75422 -0.0314,1.00561 -1e-5,0.60757 0.15712,1.0999 0.47138,1.47699 2.76541,-3.87577 4.56713,-6.22219 5.40515,-7.03927 2.3045,-2.26259 4.94423,-3.3939 7.91917,-3.39393 3.41486,3e-5 5.98125,1.71794 7.6992,5.15375 1.34078,2.66069 2.01119,5.89749 2.01122,9.71041"
           id="path3110"
           style="font-size:64.35899353px;font-variant:normal;font-stretch:normal;text-align:center;text-anchor:middle;font-family:Domestic Manners;-inkscape-font-specification:Domestic Manners" />
        <path
           d="m 741.65712,713.94376 c 0.0419,0.85901 0.0628,1.71796 0.0629,2.57687 -4e-5,4.77669 -0.84852,10.33896 -2.54545,16.68683 -1.6132,5.42613 -3.23684,10.85222 -4.87092,16.2783 0.23042,0.16762 0.4504,0.25142 0.65993,0.25141 0.23042,10e-6 0.77513,-0.42947 1.63412,-1.28844 0.87987,-0.85895 1.6655,-1.28842 2.35689,-1.28844 -0.29333,1.17323 -1.40369,3.10064 -3.33108,5.78226 -1.71794,2.36737 -2.54548,4.29479 -2.48259,5.78225 l 0.0314,0.40853 1.13131,0 c 0.0209,1.15226 -0.65996,1.72839 -2.04264,1.72839 -0.39809,0 -1.02659,-0.0838 -1.88552,-0.2514 -0.83803,-0.1676 -1.47702,-0.25141 -1.91694,-0.25141 -1.44559,0 -3.62441,0.20951 -6.53646,0.62851 -2.89115,0.39805 -5.06996,0.59708 -6.53646,0.59708 -1.84363,0 -3.6244,-0.2933 -5.3423,-0.87991 -2.15788,-0.73325 -3.59296,-1.77029 -4.30527,-3.1111 -0.4609,-0.85896 -0.69136,-2.12644 -0.69135,-3.80246 -10e-6,-4.98614 2.75494,-9.06094 8.26485,-12.22444 4.67188,-2.66065 9.69992,-3.99099 15.08414,-3.99101 1.50838,2e-5 2.96442,0.10477 4.36811,0.31425 1.02653,-2.57685 2.17879,-6.56785 3.45678,-11.97303 1.29888,-5.40511 2.46162,-9.39612 3.48821,-11.97304 l 1.94837,0 m -10.8103,28.97412 c -1.17324,-0.33519 -2.44072,-0.50279 -3.80246,-0.50281 -4.02246,2e-5 -7.92967,1.18371 -11.72163,3.55106 -3.77105,2.36739 -5.65656,4.72428 -5.65656,7.07069 0,2.74448 2.16834,4.11672 6.50504,4.11671 4.77662,10e-6 9.15521,-1.26748 13.13577,-3.80246 -3e-5,-1.31985 0.21995,-3.06919 0.65993,-5.24802 0.50278,-2.55591 0.79608,-4.2843 0.87991,-5.18517"
           id="path3112"
           style="font-size:64.35899353px;font-variant:normal;font-stretch:normal;text-align:center;text-anchor:middle;font-family:Domestic Manners;-inkscape-font-specification:Domestic Manners" />
        <path
           d="m 757.5583,735.06156 c 3.05871,2e-5 5.71938,1.11038 7.98203,3.33108 2.28354,2.19979 3.42532,4.82903 3.42535,7.88774 -3e-5,4.211 -1.64462,7.89823 -4.93377,11.06171 -3.2892,3.16348 -7.04976,4.74521 -11.28168,4.74521 -4.00149,0 -7.23829,-1.51888 -9.71041,-4.55666 -0.0419,-0.5028 -0.0629,-0.99513 -0.0628,-1.47699 -1e-5,-4.90234 1.82266,-9.17617 5.468,-12.82152 -10e-6,-2.3045 0.95322,-4.26334 2.8597,-5.87653 1.82265,-1.52934 3.9072,-2.29402 6.25363,-2.29404 m 6.85072,10.68459 c -3e-5,-1.57124 -0.54473,-2.88063 -1.63412,-3.92816 -1.08943,-1.06844 -2.41977,-1.60267 -3.99101,-1.60269 -1.15228,2e-5 -2.15789,0.36665 -3.01683,1.09989 0.60754,1.02658 0.91132,1.96933 0.91134,2.82827 -2e-5,1.25703 -0.73328,2.52452 -2.19977,3.80246 -1.36178,1.11038 -2.71307,2.22074 -4.05387,3.33108 -1.42462,1.40368 -2.09503,2.90161 -2.01122,4.49382 l 0.0314,0.59708 c 2.99586,1e-5 5.21658,-0.14664 6.66216,-0.43995 2.3883,-0.48185 4.34715,-1.46651 5.87653,-2.95398 2.28355,-2.24166 3.42533,-4.65093 3.42536,-7.22782"
           id="path3114"
           style="font-size:64.35899353px;font-variant:normal;font-stretch:normal;text-align:center;text-anchor:middle;font-family:Domestic Manners;-inkscape-font-specification:Domestic Manners" />
        <path
           d="m 795.04865,744.01776 c 0.0209,2e-5 1.50839,-1.00559 4.46239,-3.01683 2.97489,-2.03214 5.34226,-3.04822 7.10212,-3.04825 3.47769,3e-5 5.21655,2.47215 5.2166,7.41637 -5e-5,0.58662 -0.36668,4.0853 -1.09989,10.49605 -0.75425,6.55741 -2.02173,9.83611 -3.80246,9.83611 -0.71235,0 -1.33038,-0.35615 -1.85409,-1.06846 -0.46094,-0.62851 -0.6914,-1.31986 -0.69136,-2.07407 -4e-5,-0.77515 0.41897,-2.22072 1.25701,-4.33669 0.58657,-1.48746 1.13127,-3.68722 1.63412,-6.59931 0.46086,-2.78636 0.69131,-5.04898 0.69135,-6.78786 -4e-5,-1.61315 -0.25144,-2.41973 -0.7542,-2.41975 -1.4037,2e-5 -3.14257,0.78565 -5.2166,2.3569 -2.43026,1.84363 -5.2271,5.13281 -8.39055,9.86754 -1.61319,2.40928 -2.7026,3.61391 -3.26823,3.61391 -0.83803,0 -1.58176,-0.5028 -2.2312,-1.50841 -0.60757,-0.90086 -0.91135,-1.82266 -0.91133,-2.76543 -2e-5,-1.11035 0.28281,-2.74447 0.84848,-4.90235 0.58659,-2.1788 0.87989,-3.82339 0.87991,-4.93377 -2e-5,-0.64943 -0.0838,-1.22556 -0.2514,-1.72839 -2.36739,2.17884 -4.63001,5.37374 -6.78787,9.58472 -0.87992,1.75982 -2.48261,5.3842 -4.80807,10.87315 -0.25141,0.0419 -0.43996,0.0629 -0.56565,0.0629 -0.67042,0 -1.3094,-0.21998 -1.91694,-0.65993 -0.71232,-0.50281 -1.03704,-1.07894 -0.97419,-1.72839 l 1.53984,-19.29513 c 0.0209,-0.23043 0.64945,-0.35614 1.88552,-0.37711 0.20949,2e-5 0.34567,-0.0104 0.40853,-0.0314 l 2.32547,3.1111 c 0.98465,-1.65504 2.35688,-3.20536 4.11671,-4.65094 2.03215,-1.67599 3.85482,-2.514 5.468,-2.51402 1.38269,2e-5 2.44068,0.62853 3.17396,1.88551 0.29327,0.52378 0.7018,1.67604 1.22558,3.45679 0.37708,1.25703 0.80656,1.88553 1.28844,1.88551"
           id="path3116"
           style="font-size:64.35899353px;font-variant:normal;font-stretch:normal;text-align:center;text-anchor:middle;font-family:Domestic Manners;-inkscape-font-specification:Domestic Manners" />
        <path
           d="m 847.6546,740.4667 c -4e-5,1.06848 -0.49236,2.23122 -1.47699,3.48821 -5.88703,3.47775 -12.08828,5.21661 -18.60377,5.2166 -1.19418,10e-6 -2.41976,-0.0628 -3.67676,-0.18855 -1.06847,0.75422 -1.6027,1.78078 -1.60269,3.07968 -10e-6,1.34082 0.5447,2.41975 1.63412,3.2368 0.96369,0.75421 2.1369,1.13132 3.51963,1.13131 1.94835,10e-6 5.01755,-0.84847 9.20761,-2.54545 4.19001,-1.69695 7.17541,-2.54543 8.95621,-2.54544 1.02652,10e-6 1.86453,0.24093 2.51402,0.72278 -7.1231,6.26411 -13.60717,9.39616 -19.45225,9.39616 -3.2892,0 -5.86607,-0.76468 -7.73063,-2.29405 -2.01122,-1.65506 -3.01683,-4.08528 -3.01682,-7.29066 -10e-6,-0.48185 0.0209,-1.18368 0.0629,-2.1055 0.0419,-0.94275 0.0628,-1.65505 0.0628,-2.13692 -10e-6,-1.4665 -0.20951,-2.56638 -0.62851,-3.29965 1.84361,-0.31424 3.991,-1.60268 6.44219,-3.86532 2.61876,-2.40924 4.58807,-3.82338 5.90795,-4.24241 2.1788,-0.69133 4.6195,-1.03701 7.32209,-1.03703 2.19975,2e-5 4.32619,0.36665 6.37934,1.09988 2.78634,1.00564 4.17952,2.39882 4.17956,4.17956 m -4.55667,0 c -1.55034,-0.77513 -3.26826,-1.16271 -5.15374,-1.16273 -1.73889,2e-5 -3.53013,0.3457 -5.37373,1.03703 -2.07409,0.77518 -3.56155,1.78079 -4.46239,3.01683 -0.48187,0.67043 -0.7228,1.19418 -0.72278,1.57127 -2e-5,0.71232 0.63896,1.06847 1.91694,1.06846 1.94835,10e-6 4.37857,-0.58659 7.29067,-1.75982 2.91205,-1.17319 5.08039,-2.4302 6.50503,-3.77104"
           id="path3118"
           style="font-size:64.35899353px;font-variant:normal;font-stretch:normal;text-align:center;text-anchor:middle;font-family:Domestic Manners;-inkscape-font-specification:Domestic Manners" />
        <path
           d="m 869.99799,749.92572 c -2e-5,5.3842 -1.69699,10.10847 -5.0909,14.1728 -0.69137,0.81706 -1.3932,1.22559 -2.10549,1.22559 -0.71232,0 -1.6027,-0.38758 -2.67115,-1.16274 -1.25702,-0.92181 -2.10551,-1.45604 -2.54545,-1.60269 -0.16761,-0.18855 -0.25141,-0.40853 -0.2514,-0.65993 -1e-5,-0.48185 0.18854,-0.97418 0.56565,-1.47699 0.3771,-0.5028 0.78562,-0.82753 1.22559,-0.97418 0.60754,0.52376 1.18367,0.78563 1.72839,0.78563 0.77514,0 1.61315,-0.61803 2.51402,-1.85409 0.50279,-0.6285 1.14177,-1.56078 1.91695,-2.79685 0.69133,-1.48746 1.03701,-3.71865 1.03703,-6.69359 -2e-5,-3.35201 -0.82755,-7.06019 -2.4826,-11.12455 -0.71232,-1.73884 -2.44071,-5.26894 -5.18517,-10.59032 -2.24168,-4.3576 -3.76057,-7.88771 -4.55667,-10.59033 l 0.78563,-3.45678 c 0.2095,-0.0838 0.419,-0.12565 0.62851,-0.1257 0.5866,5e-5 1.1732,0.33525 1.75982,1.00561 1.69695,3.85488 3.62437,8.17062 5.78225,12.94722 2.1788,4.69287 3.76054,8.49533 4.74522,11.40738 1.46649,4.35766 2.19975,8.21249 2.19977,11.56451"
           id="path3120"
           style="font-size:64.35899353px;font-variant:normal;font-stretch:normal;text-align:center;text-anchor:middle;font-family:Domestic Manners;-inkscape-font-specification:Domestic Manners" />
      </g>
    </g>
  </g>
</svg>
